<mxfile host="app.diagrams.net" agent="Mozilla/5.0 (Windows NT 10.0; Win64; x64) AppleWebKit/537.36 (KHTML, like Gecko) Chrome/128.0.0.0 Safari/537.36" version="24.7.12">
  <diagram name="Pagina-1" id="zF334e68MmdDKeig4qBN">
    <mxGraphModel dx="1279" dy="989" grid="1" gridSize="10" guides="1" tooltips="1" connect="1" arrows="1" fold="1" page="1" pageScale="1" pageWidth="1169" pageHeight="827" math="0" shadow="0">
      <root>
        <mxCell id="0" />
        <mxCell id="1" parent="0" />
        <mxCell id="fVwzWta8XXvmtXb5B4zN-1" value="" style="shape=image;verticalLabelPosition=bottom;labelBackgroundColor=default;verticalAlign=top;aspect=fixed;imageAspect=0;image=data:image/png,iVBORw0KGgoAAAANSUhEUgAAAgAAAAIACAYAAAD0eNT6AAAABHNCSVQICAgIfAhkiAAAAAlwSFlzAAAOxAAADsQBlSsOGwAAABl0RVh0U29mdHdhcmUAd3d3Lmlua3NjYXBlLm9yZ5vuPBoAACAASURBVHic7N15mFxFuT/w71vn9DpLJpmsrGELS1gEUZAlMQjKIhcURUDQy1VBSQYFw2TC1d8dvWoWUJaEVVEEBEnYEiCKCvGyIyBI2JdAwhJCMpNkZno7S72/P0JkgCwz3ae7qrvfz/Pc5z7CnKpvQk/Xe+rUqSIIIcQg9CzGcLcvdpIOnaOIeZzWajhrNLKGAxBYg0gxEyEkYp8UulnpZUo5T5EKrksf6//D9J9BCAGQ6QBCCPtl7o7tD19N06E6PPSopZS2SLHvxPVLpPTl6f/wryKCjiqnEGLgpAAQQmwUM1RmYXKaDvAD7auR4Oj7IIcDN873qRBnpE7IL4u+ByHEpkgBIIT4mN4FyZ+yh3YdqEQl+iPF7MTDx90EnZI8uvBaJfoUot5JASCE+LfswvgJoa9+HXpqqIn+SbF2knxjQ3P+dJqEwEQGIeqFFABCCPA8xLPJ5B1+Rh1lOgsAqLjujSWCY1JfDB4wnUWIWiUFgBB1rnBHfK+8rx7kQDWbztIfKWYnrS9qPLbwQ9NZhKhFUgAIUccyd8aPD/POfB2QazrLpsRSwaPp47yD5W0BIaIlBYAQdapvYWpamMUMZrL+e8BNhS82eIV96ER4prMIUSus/8UXQkQvuyAx28s655nOMRhuXL/VEM/vSsciazqLELVACgAh6kxuQfKKQlZ913SOYjhx/W5jmN+FTkSf6SxCVDspAISoI713pG4Pc3S86RyDRYqhHAYIiCX1kgR5n6KjUTCdS4hqJgWAEHWi947EfWHOmWQ6x5aQYjgJhhMP4cQZymWQ+vA2hAReRH38ZSkChCieFABC1DieByfjJv4ZFJy9TWfZFFIMN6URS4VwEgNb7E/MfyLNX6ZJyJc5nhA1SQoAIWoYL0IiW0g86+ednU1n2RjlMGINIWIN4cfu8geCwH+mkL8kRYAQgycFgBA1ihehuS+XfDH01BjTWT6KFCPeHCDeEJbeFvgeCvl4KQKEGBwpAISoQZkF6a20z8+FfmlH90aOgHg6RLw5KOqOf9PN8l/I5ePpIOQia1SIGicFgBA1Jn93YpyXpX/qQDWYztKfchjJof6An/EPFhH/lRw+TooAIQZGCgAhakj2zting7x7vw6oIsf4DpST0EgN8yO9698YBt3vhOExNEn2CRBiS5TpAEKIaOQXJo7ys+7Dtg3+sYYQ6Vav7IM/ABB4Qug4d/NiNJa9MyGqnBQAQtSA3IL41ws5dRdrckxn6S/RHCDZ4ld0rpHAE0LXWSRFgBCbJwWAEFUue1eszcs717Mmq36fE0N8xJsCI30T86Gh4/yJH0STkQBCVAGrvjCEEIOTWZj8id8Xu5S1XSf6JVt8xBtLf8WvFAQ+JNRSBAixKVZ9aQghBi6zIDXXz9FklP/R+qCkWj24yfKs9C8Ggx524uFRdCB6TGcRwiZSAAhRhbILkjd5OXWSTYM/0frBv1yv+ZVCigAhPk4KACGqTGZhcpGfUUeZztEfKUaq1YcTt2/w/wA9qSg8gg7FGtNJhLCBFABCVAlmqMyC+GNBzt3fdJb+yHl/8I/ZPPhvQE8qN/w8HYRu00mEME0KACGqAM9DvM9NLAkLzjjTWfpTLiPV6kG5Fj2L2LJ/KlcfIUWAqHfyFoAQluPFaMy4yddsG/wdVyM1vOoGfwDYTwfqb/w3tJoOIoRJMgMghMV6b8NIcPL50FNWDVZOXCPVWv6tfcuK8bTy9eF0OLpMRxHCBCkAhLBUbmFyB9/Hv7SnrHqP3UlopFo92LXzQJEYTyutj6BJWG06ihCVJo8AhLCQd1tsH7+A520b/N2UXr+vfy0M/gBA+IR21N94MYabjiJEpUkBIIRlcne7E/KB+7gOVNJ0lv5iDSFSQ71anDfcRzvqfl6M0aaDCFFJUgAIYZHMXYn/8DOx+3RIMdNZ+os3Vf5QnwrbXbtqMd+PMaaDCFEpUgAIYYncwth/+hl1hw7tO9Ev0WzmUJ+KYuymSd0nRYCoF1IACGGBvgWpc72s+1vYeKiPoRP9jGDspqEW84PYynQUIcrNqi8bIepR34LE7CDnnGfTvv4gIDXUg5uqht39yuIFBf05moAVpoMIUS5SAAhhUGZh8io/o84wnaM/IiA1zINj0Yl+hjynXD1BdgwUtUoKACEMySxI3OpnnS+bztFfdRzqUzkMeszJhZ+jLyBjOosQUZM1AEJU2PpDfRIPWDn4D5fBvz8CH8Bpuo5ZbpZE7ZEPtRAVxIvh9q1JPBUWnD1NZ+lPOVyt+/pXBuMHzkR9iekYQkRJCgAhKoQXozHTnXwu8NR2prP0p1yN1HAfypHBfzM8RfogOhRPmg4iRFTkEYAQFdCzGMP7upNLbRv8nbhGeoQM/gMQ16yu5nmwao8GIUohBYAQZZa7Nbk9upKvhZ4aYTpLf04iRGp4lZ/oV1n76VHqu6ZDCBEVeQQgRBkVbovv6Wn1j9BXKdNZ+nOTGqlhNbmvf7mtVaHegSZhrekgQpTKNR1AiFqVvcs9qJBzFuuA4qaz9OemQ6SG+kVfr7XCSyvG4IW3t8byrhHo6mlExksAABJugOFNPdh62BqMG/MOxm/7JhJuTe0k2KJdNRnQPzcdRIhSSf0vRBnkFySOKRTUArZsX/9YQ4jkkOIO9fECF4ufG497n90TPbn0gK5JxHx8ZpeXccy+T6EplRt8p3bqUqEeS5PQZzqIEKWQAkCIiOUWxE/18s7vWZNVa2ziTcUf6vPIy+Ow4Mn9sTbTUNT1yZiPI/Z6Bl/Y52m4TvXvM8BE33IPDX9rOocQpZACQIgIZe+Mne1n3YvZskN9EkN8xBvDQV8XhAo3PnwIHn5p10hy7DzqXZzxub+hOV3dswEM+j93QvhZ0zmEKIVVX1JCVLPMguT/Bjn1I7ZsUX1yqI9YevCDf86P47J7voBX3x0daZ7Wxl60HflnjG6p6nV0rBy9Ax2MZaaDCFEsq6YohahWmQWpy30LB//UMK+owV8z4Zr7Dot88AeArr4mzL3nSPTlk5G3XUGkQ3W06RBClEIKACFKlF2QvNnP0fdsOs6XCEgPL/4431sfOxDPvrltxKk+sLq3CVf97XAEYfV+BRH4c6YzCFGK6v3tE8ICfQuSf/Wy6kSrBn+1fl9/J1Hc4P/Ku2Nw77PlP6rglXfH4P4X9yh7P+XCoElySJCoZlIACFEEZqjM7ckngqw63HSW/pTDSI8o7US/Ox7/VISJNu+uf+6HbCFRsf4iNgz3YxvTIYQolhQAQgwSz0M8c0fiBT+vPmk6S3/K1UiN8KDc4gf/fy3bHq+tHBVhqs3LFhL427N7Vay/qAXkVu8Uhqh7UgAIMQj8Vwzpc5JvBHlnnOks/TkxjXQEJ/qZmJJ/6KVdobk6Z9IV691MZxCiWFIACDFAvfdgZF9P8rXQU2NMZ+nPjWukRvigEgf/vB/DC29vFVGqgVuXTWNpBWcdImbVAU9CDIYUAEIMQP6u5I56/eDfajpLf05SIzncA1HpqxCXrhwFrc18JbyywqqaauAIVn0ehBgMKQCE2ALvzth+Xh7Pc6AaTWfpz01rpId5iGrPwbfXDIumoSK8s3aosb5LNMR0ACGKJQWAEJuRu9udkM+5j2pfWbVUPdYQItUS7XG+3X3m6huTfZeEUfyxikIYJgWAEJuQWRg/zs/E7tMhxUxn6S/eFCDZUtyJfptTCMydDp73rPorHjiCZzqCEMWSAkCIjcgtiH0nyDu3a8uO800MKf5Evy1xIlhHUCzXGfx2xVZgZE1HEKJYUgAI8RHZu1JTvXzsKg7tOtEv2eIj3liewR8A0olC2drect9VeiNNeMt0BCGKZW7OTwgLZe9MXOj10Q9t2toXBKSGFr+v/0CNal5X1vY3Z+QQc32XgpmWm84gRLGkABDifX13JP/gZdQpNg3+RECqtfh9/Qdj+5Gryt7Hpuww4j1jfZfCccLXTGcQoljyCEAIAJmFyUVBzrLBv8RDfQZrq5ZutDRkKtJXf0SM3bZ6p+L9RiCPoXjGdAghiiUFgKhrzFCZO+KP+hl1lOks/a0f/Es71GfQfRLw6Z0qf0O7y+h3jRQepWLQUzRe3gIQ1UsKAFG3eB7imQWJ5/yce4DpLP0ph5Ee6cGJVW7w3+CwPZcg7pZvoeHGHPWJpyraX1SI+P9MZxCiFFIAiLrEi9GYiSVfDXKOVYe5/PtEvxL39S9WSzqLSeOfq1h/u2/9Nnbf+u2K9RclBX2H6QxClEIKAFF3ehZjeG938vUgr7Y1naU/J6aRHlH6iX6lOvITT6MlXf4peVeFOOHTj5W9n7JgrMQheNx0DCFKIQWAqCu5W5PbY3XyNe2p4aaz9OdsONFPmV+FmIp5OOvzfyn7o4CTDnoY27R2lbWPsiH8ngiVf0YjRISkABB1o3BbfM9A4wUdqGbTWfpzkxrpiE70i8p2w1fj1EMfiOygoY86fK8lOGS3F8vTePlpxfpK0yGEKJVV25wKUS65u9xDCwX3YR1adqhPOkRqWPT7+kdh62Hd2GroGix5czuEER0TTAR8YZ9/4cuf+kfZiotyI/CdaiKuMJ1DiFJV6a+gEAOXvytxjJdVC2zb1z/WGCI5xP7D5JavHo6r7j0cXb1NJbWTjHv45oT7se/Y1yNKZoRW0J+iCfin6SBClEoKAFHTcnfHTvP63GtZk1WPu+JN5TvUpxyCUOH+F/fAXU9+ElkvPqhrHaVx0LiXcewnn0RzqurPzrnBmaBPMx1CiChIASBqVt+dqXPDLC5kbddkc6LFR7yhOk+/yxSSeOjFXfH40p3wVncreDPLFoY39WK/HZbi0N1exIjmnsqFLJ+sCvV4moQ3TAcRIgpWfTEKEZXeBcn/DXPqRzZt7VupQ30qpTefxFtdrVi5bgjyfhyaCQnXx4jmXmw9tButTb2mI0bK63VfTh7t7UZk1adKiKJJASBqTm5h8qpCRp1hOkd/REBqmAcnWRuDf70JCwrZ1XEQ02lDTsncYDqPEFGQAkDUlOyC5Dwvp75q0z0aKUZymA+3Qof6iGjpkJBbFYcOCQC6HEft3nRin7mjE4WIiFULo4QoRWZhcpGXtW/wT7XK4F+tmIF8V2zD4A8ArWGgZ5nMJERUZAZAVD1mONmFiSf9rLOP6Sz9KZeRavWgXIsqEjEoue44gtzH7pMYoCNaTs7cayKTEFGRAkBUNZ6HeMZNPBsUnF1MZ+lPuRqp4eb39RfFy6+Lwe/b1NYR9MqQfGZvOh35ioYSIkLyCEBULV6E5oybfN22wd+J23GojyheocfdzOAPALzL2mT6/IoFEqIMZAZAVKW+v2EUr00+H/pqmOks/bkJjeQwOw71EcXx+xzk18UG8qNeyGq/1lP6Knd+shARkhkAUXXyixI76bXJV20b/J2kRrLVk8G/igU5hXzPgAZ/AIg7pK/hTvkeFdVJPriiqmQWxfb1M/Ss9lWj6Sz9uakQ6WFe1R5wI9a/65/rjmOQb5EcsG5c+jtliiREWcnXlagauUXuRL8v9lcd0oBv0Soh1hgi2WzniX5iYEJfIbcqvtmtjTejJ3B4j+En5t6OOJYQZSUzAKIq5O6On+L1xu6zbfCPNwXrT/STwb9q6YCQ64oVO/gDQLMbql9FGEmIipACQFgvc2dsstfn3GDbiX6JIX5VnegnPk6HhFxXHByWWsHxid03po+NJJQQFSL3LcJqmQXJziCn/qeEu7OySLb4iFXpiX5iPdaE7KoYdBBZXbncc7LjR56IvqgaFKKcrLqjEqK/zILEHN/CwT81zJPBv8oxA7muSAd/ANguETT8JMoGhSgnmQEQVupbkLwxyKmTrdrXn4BUqwdH9vWvbgxku+MI82W5/wmhcUDL17NPlqNxIaIkMwDCOpmFyUVB1rLBXzFSw2XwrwX5tbFyDf4A4EDhGl4Mt1wdCBEVKQCENZihMrfHH/Mz6ijTWfojh5Ea7sOJy+Bf7QrrYvCzm9viNxL7rH031VbuToQolTwCEFbgeYj3xRLPhHlnV9NZ+lPO+jt/OdGv+nm9Lgo9Fbsxz8LRe7acmH+9Uh0KMVgyAyCM48VozDjJ12wb/J2YRmqEDP61wM86lRz8ASCNUF1WyQ6FGCyZARBG9d6GkayTz2tftZrO0p8T10i1yqE+tSDIK+S64mY6Jz6x5aTcfDOdC7F5UgAIY3ILkzt4Hv7FvmoynaU/J6GRapV9/WtBUHh/8DdXx70LHduj5evr1hhLIMQmyCMAYURhQXxvv4DnbRv83ZRGergM/rUg9BXy3TGTgz8AjIbyf2E0gRCbIF9zouJyd7qH+Dn79vWPpUMkh/qmY4gI6ICQXRUHayu+4rRmnjjslNyDpoMI0Z/MAIiKyi9KHOtnY3+3bfCPNwUy+NcI1u/v72/H4A8ASgG/4UVImA4iRH9SAIiKyd0V+2ahV92hNZX9RezBSDQHcqhPjWBNyK2OQQfWDP7rEe26ric91XQMIfqz7LdE1Krs3alz/F78ktmup+tyqE8NYSDbFUdYsPa+pqDY+UTzKb0vmg4iBCAzAKIC+hYkf+H10q+sGvxJDvWpNbk1Vg/+AJDQpK9klhsvYQerf1tE9cssTF4ZZNV0q/b1JyA9zIObkq19a0V+bQxBrhq+znji2psavmE6hRCAPAIQZZRdkJjvZZ2vmM7RHylGqlX29a8lhR4XXm9Vnb3T5fhqj6Zv9L1nOoiob9VQMosqlFmYXCSDvyg3P+NU2+APAK1BLLzQdAghZAZARIoZKrMg8USQc/Y1naU/5TJSrbKvfy0Jcg5ya4xv9FM8ps+3nJL5q+kYon5JASAiw4uR7FuTeDYsODuZztKfcjVSw30op1pHCvFRYUEha3aL3yi8kfeze47+BjKmg4j6JI8ARCR4EZoza5JLbRv8nbhGeoQM/rUk9Izv7x+VsclY+nzTIUT9khkAUbLsHaltg4Cf1b5qNp2lPycRIjUskBP9aogOFLKrYjbt8leqgDV9aujXM0+bDiLqj8wAiJIUFsX3CHx+ybbB303Jcb61RoeEXFdNDf4A4JLiq7hTvotF5cmHThQtuyh2YCHjPKUDlTKdpT83HSI1TE70qyXWbvEbjU/3jEt/13QIUX9q8rdJlF/+jsTRBU8t5NCuff1jDSGSQ3z5ZNcQZiC3Oo7Qq+n7lZ7A4T2Gn5h723QQUT9q+jdKlEduQfzUQkHdadvgH28KkGyRwb+mMJDrrvnBHwCaXU2XmA4h6ot8VVpg0Q2LmnNebjglaVuP0eqyTpvMo0gFrDjrxt1eRSpPRN6Gf7eHe+nXErm3p0axrz+xhoMcHGThcAEK3pYv2oTEEB/xRtnXv9bk18TgZ62qM8uKCccPPSm7wHQOUR+kAKiAW25asL/mcAIHvB8Yu2nW27DWQxkcY2aq9OtMigjkOHAcBeUoKKWglANFBCiADH0sCAyHs3DRizSvQBLvIMUrkNbvIIUVSPBqbOzdr+RQH7G0DP61Zt0bBA5jcJI1f/ff35t+Oj1+xHGre00HEbVPCoAyuO3G2yYGIZ+imQ/lINwl1NroXqVKKTiuA9d1EYu5IFWdX6gx9KBZv4JmfgEt/Awa9OtItxbgJmVr31rT+xbQu5ygHEJqTAzKqZ+vKmK6ZMgpmR+YziFqX/38VpXRvHnzGrngTNdheIoO9XbMbHaEJawf7OMxuK4LVaUD/pbEaR2GxZdgq8SDGBH/Bxwq/hGCsEf2XWDt0g++mpykQnpUzGCiitNEfPCQk3KPmg4iapsUACW45YZbTg1CPTUM9V6sDQ/6WH+nH0/EEUvE10/n1xGXshiVeAxj4g9gROJJEOSRQDXKdwPdL9HHnvTEWxwkhlTdoT+leGZIT3Z/OhO+6SCidtXXKBGBedfN246hrg4D/TmtQ/PfSESIJ+JIJOI1e6c/WAnVje1S92D71J2IU4/pOGKACuuA7hcIvIknOulR9bYegM5rOTkjpwaKspECYIBuufGW8aHPlwVhOIE1G/97I0WIxxNIJGMgqqcvxYFT8DEm+SB2Tt+EBucd03HEZvhZQtcSQG9m4qYO1wNkofVeLV/PLzUdRNSmuvlNKtb86+84NNTB1UHg72bD4SOKCPFUEvF4XHa6GyBCiDHJ+7Fzeh4anTdNxxEfEeSBriWEcACT3XW4HuDPLSdnjzIdQtQmGUI2Yd68ecM4R7f5fjDRdBZg/at5sWQcyWRSBv4iEQXYPrkI4xr+AJfkBFYbaB9YvYQQ5Ad+Tb2tByDik4eclPuj6Ryi9shQshHzr5v/v76vOzSbfX1vA9d1kUyn4Dgy1R+FhFqDcek/YJvkPSCyYFqnTukA6HoO8DOD/xqqs/UAK6Fju7d8fd0a00FEbZECoJ8Ff1gwKesXbg2DcKjpLABASiGVTiIWq6spz4oZ6r6APZvmosldZjpK3WENdD8PFHqK+wqqw/UAv245OXuG6RCittTNb8+WzL/+tl/5nv8DbclZo7FYDKmGpCzwKzNFHnZruBZjU3diY7sMivLofpGQ7y6tjTpbD8BgdXjLKX33mQ4iaocVg51Jt9765zF+b++DQRDsaDoLsP5ZfyKdRCIRNx2lroyKP4a9mi+R1wYrYO2rhOx70bRVX+sB6OUh+cw+dDoGsWJCiE2r69vL+dffdnp+3bpltgz+ynHQOKRRBn8DVnoH4ME1c9Dl7WU6Sk3rWRbd4A8A3toQYb5etoLmcT3J9DTTKUTtqNsZgHnX3zbbKxTOM51jA9d1kW5Mg2SJv1EEjfFNV2C75J9MR6k5mXeBdUuj/3zX2XoAzyH1iaaT+l4wHURUv7qcAbj597feZtPgH4/HkW6Swd8GDIVneyfj+b4zUMf1ceRyq4F1r5fn71OHjPzqoCxtWygear6SWT6conR19SGaN29eHDl63PODvU1n2SCRTCKZSpiOITZidOJBfKLpV1ByyFBJCmvWL/rjMq+xrKf1AAx8a+jJ2d+aziGqW90UAPPmzWvkLL3sB8EY01k2SDWkEI/L836btcaewf5DfgqHZN1VMbxeQtdz2OT+/lGro/0Bul2mPRpPyaw0HURUr7r4TZk3b15c5+g5qwb/tAz+1aDL3xtP9PwYmuW/1WD5WUL3C5Ub/AEgvzqADuvidc5hAelfmQ4hqlvNFwDMrHQWSwI/2M50lg2S6RTistK/anR5++CfPdPAXB/Ty1EIPaD7hfW7/VVSfa0HoFPW3ZQ+xnQKUb1qugBgZvXH6255JgjCcaazbJBMyTv+1eg97wA81dsOru1fmUis3+KXEBbM9B/mNQrr6qMIYOCyd69Dg+kcojo5pgOU0x47jn848MP9TOfYIJFMIJlKmo4hitQXbgtPt2Bk4nHTUazF4fo7/2L2949SmGe4SQXl1vwypxbXdd2ZtwR/Mx1EVJ+avZ2Zf92tl/p+eKDpHBu4cVcG/xqwPH8UlueONh3DVsGaVxR7vXYMunWzHoDp3DU3pfc1HUNUn5osAOb/cf6XC57fZjrHBqQU0umU6RgiIs9lzkC3P950DNtoZjpVe2q26SAb1NF6AJeAq3hebc/oiujVXAFw661/HuPn9E02HezS0JiWQ31qCLOLp3o6kNetpqPYg3GuOzG8edQUr8NNOUtMx9mgjtYDfKonSJ1lOoSoLjU1KjGz8np7ntChtmaVXaohBceRwrzWFPRQPNXTAS1vBgCMnzgT9SUb/qczxjtIxShjMlJ/9XJeAAM/77ohtY3pHKJ61FQBMO+G224Og3Ar0zk2iMVj8q5/DVvj746lua+YjmEW4Spnou7s/49Gnoi+WAOOJkXWTMPVxXoAoibl0JWmY4jqUTMFwK03LDww9PwTTOfYgBQhJc/9a96r2ZPQa88WExVF4DvUCj15Y/9u5HeD+2ONsh6g0gg4Zs1NqS+ZziGqQ80UAH5QuF0z27H8GEAqlZLDfeqAZhfP9p0Niz56FUHEi6mPT6ITEW7qZ0adJesBzKDL1vyupcV0CmG/migAbrn+1suDIBhtOscGbiyGWDxmOoaokDX+blheqKtXA/9FAX+ZjsYWt/qJt3qHqDhlKxFqIOphPQABY5D0/td0DmG/qi8AbvvjbeMKnn+m6RwbEAHptLzvX29e6vtP5PQI0zEq4VXl6S/QJKwdyA+3nooe1YAvynqAyiLgrJ6bUgeZziHsVvUFgOfpm5jZmj9HPJEEKWviiAoJOIVXMl83HaPc3lGhPoIOx6BOoBtzZrA41kDWHFxTJ+sBlCa6kq+CTEWKTarqkWre7+Z9IvB8a7b6JSIkkrLqv169nT8MfeG2pmOUyzrl6GNoEt4o5uJRk/2psh6gwhh7rWtuONd0DGGvqi4AtKIbTGfoL5FMyMK/OsZQeCVzsukY5ZBTWh9LB+PpUhqR9QAm8P+s/WNiJ9MphJ2qtgCYf/38gwI/sGY/ViJCPJEwHUMYtqJwKHqCHU3HiFLITKfSZ/FAqQ3JegAjUtDq18yQOxPxMVVbALDGtaYz9JdIJSA3/wKgWloLwEx0hjsxvC2qBmU9gAFEk3pubjjFdAxhn6osABZcv2BXLwh2MZ3j34gQj8vdv1hvpfdpZOzZkLJ4jHb30PC3UTcr6wEqj5kv7rmxabjpHMIuVbmReU4Hl1h01g/i8VjV3P2vW7sW3d1d6O3rQ19fHwLfh+8HADPceBwxx0VjYyMamxoxdNgwtAxpAakq+cNZg/Bm/vPYreFa00FKMduZqC8sV+PxVu8Qfs9dEXqcLlcfg+GtDeEmFJxkVd4TDcRwTeEsAN8yHUTYo+q+2ZlZ3fS7m/NaszWvtzQ1N0JZeuAPM6O7qwtvvvkmVry7Ar7nD+p613UxZvQYbLPdNhgxYmSZUtaeOPXgsOHfhMLg/r4tcYM6VH+DqLxl9oqr3EnhOtzL2o5tFJVDSI2JQTlWxCkHBuiIlpMz95oOIuxQdZ/0eTfc1uHlCzNM59jAdRw0NDeajvExzIx3EybkYgAAIABJREFU3nkbr7z8Cnp6eiJps7GxETvvsgu22XYbKDneeIv2bZ6JMYkHTccYFALfRSF/iSahInPiKy+P/dLr0da8quYkFdKjrLm3KAN6ZUg+szedjrzpJMK8qvsW12E4xXSG/mIWrvxft3YtHnzgATz5xJORDf4A0NfXh6efegp/v28xVq16L7J2a9Xy/FGmIwwKMz1KOT6pUoM/AIw6y/+hm7ZrPYBX0+sBeJe1ifR00ymEHapqBmDedfO287xwmekc/0bAkCHNsGUBAGvGSy+9iJdffrnsfRERxu6wI8aP3wNKdj7cBMZhracjqVabDrJlhGeVoyfSQeiudNddN6C5YNF6AABIj4rV8noAj5xw/JATC6+aDiLMqqpPOJH6gekM/bmua83g7/keHn74oYoM/sD6RwyvL30NDz7wIPJ5mU3cOMKqwv6mQwzEm0rro00M/sD6/QFI9geopDiHjjVHNQtzqqoACEP9H6Yz9OfG7HiJIp/P46EHHkJXV1fF+167dg0eeuABZDKZivddDVZ6nzIdYUtWK6WPoIl402SIMWcGi2ONdJHJDP3Vwf4AX1p7U7oqqlNRPlVTAHR2drphqHcwnaO/WMz8YiGv4OHhhx5Gb290z/oHK5PN4qEHH0Q2mzOWwVZd/j7QbO35EL2K9JF0CF4yHQSQ9QCVx+eYTiDMqpoCYM+d9/6GTaf+Kccx/uxbhxqPPPoI+vp6jeYA1s9CPProI/CDqnztrWxCTqLb39N0jI3xNKuv0KF40nSQ/uLDvEMci84LKNT0eQH01XXzmoeZTiHMsWZA3ZJA69NMZ+jPhun/Z5Y8g3VrB3Qse0X09fbiX0+VdF5MTXrPs26mVTPTabGJwV9MB/koWQ9QUTGtw+NMhxDmVE0BoEO9l+kM/bmGN/555513sHyZPS9EbGBrLpPW+ruajvBhhHPcieE80zE2RdYDVA4xf9F0BmFO1RQArPVQ0xn6c1xzBUAQBHju2WeN9b8lzz/3PApewXQMa/SGO4BhzU6R/+Mcqi81HWJLRp3l/9BNOdZ8yGt4PcDBpgMIc6qiALjlpgX72vT8H0RGn/+/+soryOXsXXDn+R5eftGKdWVWCDmOvmAb0zEA4Apngv6p6RADFW/1Dpb1AGU3quuGlBUfTlF59gyqm8FBYNXrf47B6f/AD/D6668b63+gli9bjnze3iKl0npD4y+w3KwO1Vbtorklsh6gMshh4x9OYUZVFACa+RDTGfoz+fx/2bI34Pv2r7QPdYg3Xn/DdAxrrPN3MtY3ge9TffqbRKi629cxZwaL3Qa62HSODWpxPYADZ1vTGYQZVVEAMPM40xn6U465v7Y33zS6X8ugLF++HMy1dbdUrN5wrJF+mekJCvk4OhpVuyhj9GT/XFkPUD7M9mzBLCqrKgoAMA8xHaE/Uyfh9fT0RHq4T7nl83l0dxvZXdY6hdDI69YvORQeTZPQZ6LzKCWSsj9AuRBg7U5VoryqogBg5pTpDP2RMrP//+pVq4z0W4pVVZi5HArcUuku31GhPpImoCb+Aww7E+tkPUC5UPXcVYhIVUUBoJnN77nbDxl6A2B1VxWcKvcRXaurL3M5+NwM5optHtWtlP48TcIbleqwEmQ9QHmQYnt2ExMVZX0BcM01C5pYsx1H7r1PGZoB6FlnfsvfwaqmRxblxEzwuLkSXeWU0sfRIXiuEp1VmqwHiB5BvWY6gzDD+gJgWFLvbjpDfwQzg7/WGrmcNY9AB8z3fXiFql1/FqmCLvtjAJ+ZvkKH4MFyd2SSrAeIlN+o+qQAqFPWFwABgh1NZ+jP1PP/fL5QtSvqc/m86QhWKPMMADPRt9yJ4aJydmKDYWdinWrCsbIeoHQMPE4nwjOdQ5hhfQGgQ6fVdIYPITMFQBja/+7/pgRBdU+RRiXUyfI1zjjPPTS8vnwd2GX0d4L7ZD1A6Yix2HQGYY71BQABFV8+vTlkqADQYdVOMULr0HQEK4QoUwHAmOVM1L8sT+P2kvUApWPCraYzCHOqoACozMqpgTK1GtHk4UOlchzzRyfbIOREOZq9Xk3Q08vRcDWQ9QDFY8bzQ0/OPmU6hzDH+gIAlhUAph4BuG71DqKua9VbnMZEXQAQ850q1P9FhOp7+BwRWQ9QvK5s602mMwizrB9VNKjJdIb+DI3/SCZTcJSDsMqm04kI6bRV+zgZE3J0jwCY6AHl6q/RQaiuOecyGP2d4L53L4td7PfyOaazAB+sB0iPsrfw7fMb8NslX/vf9jb3GDCu99zkjRdf3Cn7AdQZ62cACGgwnaE/U68BAkBDY/Vt2Z1IJKp69iJKISKbAVjiIDyODoIct/g+WQ8wOH9fdhAC7QLAgSBcFg/zb7a3dVzSPqV9K9PZROVYXwAwuNF0hv5MLQIEgCFDhhrru1gtLVat4TQq1JEUAK8r6C/QoVgTRWO1RNYDDMxbvWOw5L3dPvqPGwGcDVKvtp/d8dNzzjlHpu3qgPUFABh2fRAN7kk4fIRdb0QOROvw4aYjWCOCNQCrlNJH0QSsiCJPrZH1AFvmh3Hc9erh4E1/kaXA+HHMTzx73tnTj65kNlF51hcABLuOqjQ5AzBixEij/Rdj1KhRpiNYIyjtNcAeBX0kHYKXospTi2R/gE1jEO589XB05wYwk0jYkZjvbp/ScVVnZ6ecFlijrC8AQstmAEwOv8lkEiNGjDCYYHCGDh2KxkarnuAYVcIjgILW6niagH9GmadWWbkeoMd8EXDvG4fgxa6dB3cR4YxsV+Ghc8/6723Lk0qYZH0BQIhw6XQUDN+Bb7f99kb7H4ztttvOdASrFLkRUMhEp8U+G8iObYMQb/UOtmo9wBpz6wGYgcXLDsY/3tm32Bb2d53wsanfP3/vSIMJ46wvABhUlt1TimZ4Bn7MmDFVcVedSCSw7bZSAPSnuaiZ1HPcQ8P5UWepda2nokfWAwCBdnD30sPxyNufLLWpMUrz4qnfn35AFLmEHewvALi4b81yMfkaILB+DcK4cbsazTAQu4wbB+VY//GqqEHvA8D4sTNBzylPmtpX7+sB1uaH4LolX8UzK/eIqEUepjTfM61t2j4RNSgMs/4bmoit2k3DhjV4W2+ztdWr65ubmzB2h7GmY1hnUG8BMC53JuqflS9NfRg92T83llJ1tx7ghdW74LfPnIR3MyOjbnoIg+6SNQG1wfoCAEx27SJjQQVARNh7772svMNWpLDPJ/aFIvuymTaINQB/VBN0Wzmz1JNYq3+witXHeoCMn8ItLx6D218+CvmgbE9Pt3EdfVtbW5tdj2fFoFn/Lc3MVhUA5of/9ZqamrHXnvatydltj90wdGj1bVhUCQN5C4DAf1Gt+ptEsG8HmSrVeip6nObaXw/wcvd2uObpU/By906RtrtxvH+aGmZVoCNRRvYXAIBVx+DZ9B7+9mO3x9ixO5iO8W9bb7MNdtppkK8Z1ZEtzQAw6HEK+QQaD69CkerG6O8E97mp2lwPUAhiuPXZAzH/hePQ51du53RmnC2bBVU36wsAMNuV0aICAAD22nsvbLX11qZjYMSIkdh3332tKpBsE3IMzJv8+3nFccIv0iT0VTJTPRndVnvrAV5fMxIXPXQMnnhnNxO/e0TMV0ydOtWq81rEwNk1uG4EY9PfmCZYFQbrZyQ++clPYvux5vYHGD1mNA444AAoZf3HyTCC3tiBQIy3laOPoIPxXuUz1ZdaWQ/gaweLXtoPVzz6eXRlm+C6xl6W2k557jRTnYvSWP2NfdVVV8VsO+ncxjvc9YsC98Fuu1X2LoCIsPPOO+NTn/q0lQsSbRR8/FXALkX683QwlpnIU29qYT3Ait6hmPPwUVi8dPy/9/SPuQaflDLOO/8H548xF0AUy+pv7aFDx9l3+o2FBQDw/v4Au+6Kzxx0EFKp8u+enEgk8OkDPo09xo+3siiy1UeOBM4q6ONoAp43lacejf5OcF+sCtcDaK2weOl4XPrw0VjR++GFto4yulY66evwByYDiOJYXQCooNeqAsD0JkADMXz4cEz63GHYeZdxcFT0dwWKFHbccUccdvjnMGrU6Mjbr3X93gTwWdFXaAIeMpmnXo1q8891k+o50zk22NJ6gK5sE678xxFY9NJ+CPSHv7YVKZAyvEEZ0/fOOeecYUZDiEGz6hW7j9JBYNduN1Vyp+s6LvbYY3fsuOMOeO3VV7F82XL4gV9Sm47rYtttt8XOO++CdNqq85mqyvtvAjCDznAPCf9kOk89iw/3D9Ir3RXat+PE0cLaEE7CgZP44HuGGXjsrV1w5wv7wws3/nVtydqbpngYPxnAZaaDiIGzugBgIrteKK+O8f/fkskkxu+5J3bbY3esfHcl3nn7bazu6oJXKAzo+lg8jhHDh2PUmNEYM2YMXMfqj0tVCDkBEKa6h4bXms5S71pPRc/Ky3Gcr/EXDi347WYgt9pHw+gYyCGszTXg5iUH4dWuzc+0kR0FAKDpNEgBUFXMf+g3Y/71t51eKBR+azrHBspx0NRs/0E8m8PMyGQy6OvtRSaTged58P0ADEY8FkMsFkdDYwOaGhvR2NRkOm7N2b3hNzfvfORtJ5nOIT6w8rJ4p9cb/o/pHBs4SYVX9c649bkDkfW3vLo/EUsgnbZiEgOOpl1nXDbjZdM5xMBYfUtHjBbTGfqzuloaICJCY2NjVZwoWItezP7XrcBtpmOIfkZN9jrfnRPf38+Ex5jOAkV4ePXeuGf5/gO/xqIvplDhSABSAFQJS+aONo6Jm01n+JAqWQMg7MVQsoDCQqPbvC+6DY7RNRkFN4Vfv3784AZ/2PZqsp5kOoEYOKsLAICHmE7Qn1W/Z6IqkYbsmmapMW3e0fEmuqXid9REWJLfFbOe+TpWZIp58cmaLQ0A4LOdnZ2WjytiA8v/Q5FVD6Gr4TVAYTmCHQ9rxUaNmhx8Nd7onkcOVeQwJt9J4PdvfhG3Lz206DY021QAUEvvKl+OCq4SVhcAIbNdBYBMAYjSSQFguVGTCxfGmp1xTlItLVsnRHghvwtmLfk6lvWMKqkp1jYVAIBS4a6mM4iBsXsRIJFdK9Vk/BclYrLjnXOxeaPOLLwGYKf3Lk9+MygEvwwLHM2mZIqwMhyJ216fgFW5aJ5whmzXydEE2g3AX0znEFtmdQEAtuvLUh4BiFIxk6wBqCIjz8r/HsDv37k8fTz5wU+1p/fQIQ96i83QdbE0uy3++vansDoX7dpmrcNI2ysVAaVNaYiKsboAYNumS2X8FyVSsKuoFQOz1VnZOwDcwfPgvLsqeRrp4DgOaT8dcitrpMAg1kykiIkQ5hF3+8JGvJUbgSdW7Yq3+kaULxwDYajh2HIgF8OqR7di06wuABSzVa9MyRoAUTJZBFjV6ESEQP5aANdu7ufO+M/vhKx1xUbkQPtwnI0cNW0C2bV2S2yaJSXjxmnAqgJAZgBEqeQRQJ3QXNFvizCw5zGAJrtvLMUHrC4AAFhS0q4nawBE6eQRQD0gQkVX5pV62FekmHpNRxADY3UBwMx2FQDyCECUTGYA6oKiTZ/tWwZaawRBRbvcNNJSAFQJ26dqtnwSRiXJ+C9KJjMA9YBABVR4BtMPPLiu+a90pbHGdIYS0bln/fc2ruOPIaZWAK1MajiY81DQDGhorFPMKylGy7uz3W9fffXVFk3BDJz5T8tmENuVT8Z/UTqSAqAOkFIrEYYVPcuk4HlIJVLG9yxnUlV1GND0ydPHhcSHA9gHhL0A7AmETYDCBys5eP0A8P7/AwFMBA6BlsSwsL2t4y1i/BOKHgbpRz3lPXnRRRflDP2RBsyqAfajNHPMdIb+5BGAiIA8AqgDDmNpAOxSyT6ZGQXfQyJu9smpJrK6ADjjjDNiQ+NDD9ekjiHgyBC8U4lNOgC2Z8L2YP4SmBDTifx5bR1/JaJbfSd/50UXXdQdRfaoWV0AMAa/4UZZSQEgSiczAHWAlfMk4H+h0v3mC3nTBYDf2BN/1WSATZl69vl7OtD/xYyvMzCSynuIUpKAY8F8bCxI+O1tHX8h5jmz5s76Cyw6vcnqAgAMqwoAmQEQEZACoA4w+78DcH6l+9Vao+DlkYgnK931Bv/ovLYzb6rzjemY0vFZJkxn1p83NPLGABzDRMe0T+l4gYgv8VzvOhseEVj9FgAse+xuVRhRreJPXPWEVY+2RPQuv+byVx3lGPmCz+XzYEMnBBLoXiMdb0R7W/uB7W0dD2rCYgY+bzoPAICwO4OujAWJl9rPnn6a6aOTrS4AGJXdTGOL7EojqtSaoWtkFqAOKOU8a6JfZkY2b+bmkjV/evrk6eOMdP6+9rb2bc47e/ofAPUwgINNZtmMbcF8XbYr93jHlI7PmgphbQFwz3X3NNjzpOR98ghARCB0QikA6oCKqUtN9e15BTObAykcGSp+vr2t44b2H7TvXunu26dMPx1QzxLzKaiKWzbaTxPuO69t+tzOMzor/r1g7V/QTb+7aWwY4nXTOfobMjSa4ztFfdOh2uW4E4+0cqGUiNZ3T/9eLgy1kQfyRITmxmYoZew+T4NpHrH+2azLZj1Xzo5++MMfDnf82O/A+GI5+ymzlwH9zdlzZj9aqQ6tnQGgVOMw0xk+RO7+RVSUbAZULxzH+ZupvpkZmWyfqe4BQIH4JFb0THvbtPlTv3/+3uXopH1K+/6OF3uyygd/ABgHqAfap3ScVakOrS0AlJ9rNZ2hPxn/RVSIpACoFw3J9Jko8/tmmxOEIfoyfaZfPFMAfUVp/XR727TbO9o69o2q4WlTpp0KUg8A2C6qNg1zQbjsvLbpczs7O8v+lp69BQBiQ01n6E8OAhJRIS3nAdSL2XNnvxNzEw+YzOAHPrL5rMkIGxBAx2vgyfPaOhZ2fL/jU6U01t42/QdMdB0AY+88lguBJ+e68nd3ntXZWM5+rC0ANNBiOsOHyBSAiIrMANQVjvunw/A9eMErIJPLmJ4J2IAIOFZr/KN9Ssfd7W3tBw62gWlt038C8EWweB1bqRj4fNbJ31XOxYHWFgBEdhUAsgmQiAzJZkD15IorrliaiMevN53D8zz0ZfsAQ3sEbBThaEA90t7W8WDHlI7DBnJJ+9kd0xn8/8odzRITs4n8n6dOnVqWWUNrCwAwW7XkXoZ/ERViOQ+g3gzfpvVbjqOMH5PrBz56Mj0IdWg6ykcdrAn3ntfWce95bdMnbuqHprVNOxOMn1cymAUOVQX3lnKsCbC2ANDMTaYzfIjMAIiIsGwHXHc6OzsDx4mfQCDjt99hqNHb14uCVzAd5WMIOIzAf29v63hwWtu0Y/v/u/azz/8cg+aiPu/Hjsx152dH3ai1f5E3X3/LtX7B/6bpHBvE4jGkG+R7W5SOCB1f/PLRs0znEJU35dtTLi14fpvpHBu4rot0Mg3HserYlf4eYuCnzO4rioLHAZT77bAAwCPM/BgIS1iplzhQ7zZxrAsjkc2vzA8hl9zAoa0p4O2geDwzPkPAZwAML3M2gOgbsy+dEdnjJGsLgHnX3XKL5/knmM6xQTweR6ohZTqGqAn8k2NPOKbTdAphxuT/mvK0F/j7mM7RXzyeQCqRNLlp0JZkUb6Zs5CBRWBc77vJv158cefawTbQ2dmpMl2FgxXxCcw4BcCIMuQEgBxrdcgFl/3in1E0Zu1pgJqprK8/DJo8AhARIZbXAOvZiO2G779y2aqlQRhsazrLBp5XgOcVEHNjSCYScF3rzqsqx+DfB8Ylfsy54qKLfv52KQ11dnZqAA8AeKDzPzs7Ms35U8H4IQG7RRP131Kk9LWdnZ37d3Z2eqU2Zm25pxTbdbst47+IirwGWNc6OzsDt1Ht6Tpul+ksH+UHPnozfejp7UEun0MYBh/+Aca/AGgj4aITEtMcB7Tj7Lkzf1Tq4P9Rndd25i+4dOZvGlqTexH4LADvRdk+gL2y3flIjpq2tgDgkK26S5LxX0SFSWYA6t2cOXN6mkY07OC67pums2xMqEPkC3n09PVibc9a9GX6OAz96bPnzvyEcrELGFdj/fPyavOcVnTwrLkzzp4xZ8aqcnbU2dkZzJoz6wrPSe7KhBsibZzx31HsqGhvAUBk1e5Osg+AiAzLWwACmD17du+o7UbsGHdj/zKdZbMYcMiZ/cvLfzkTAGZeNHPp7Lkzz3Q0jQfj96iSQoCAa3PIfPLCS2Y8Vsl+L764c+0Fl848jcHfBJCPqFlXMy4utRFrR7Wbr533qh+EO5nOsUEynUIiETcdQ9QEvvvYE46p9oNLRITavt12Ud73vg+26ztZKfJijnvq3Gvmzt/Uz5zXdt5OCs75DJwGwLrFAwA0QD+cPWdGyQNmqdbveqhuBzA6ivaI+chZc2fdU+z19s4AwLYZANMJRM2QRwDiI+b8Zs45iXjyKMdxjB7f118sFnsu3hTbZnODPwBcMOeC12bNmfmtUDu7ALgU0d3lRiEE07dtGPwBYPac2Y8yhRMAvBNFe0z0c5RwI29vAcBs1e22HAYkIsOyCFB83NxfX3JPV9+qlng89jsiMrbQzlFOLpGITb78mrl7zpkzZ8DPyX952c+XzZ4z8/ukeFcQLgdgeqchZuDbs+fO+J3hHB9ywaUXvOIwfQ7Aygia+2T7lOnHFXuxvQUAyKqpJJkBENEhKQDERs2fPz+87Ddz/wsJPc6NxR+o5M6BSikvEYv/WseDIXN/PffyYtuZdcms5bMvnTnZVWp7ALMA5KJLOXAEmnHBnJnXmuh7S2bMnfGi1vQlRFAkMfH3i73W2gKAoK0qAKQCENGx6w0XYZ+rr776tSuumTOhId26bTyWWOQ4qmx3047rrkkmkxeMGTuqYe41c864+uqr/Sja/cUlv1g5e87MDtdROwF8MdZv5lMpf061Jn5cwf4G7cLLZjwCxg9KbYeAie3fb9+1yGvtdNNvb86HWidM59igsakBjmvtvkmiuqw89oSjI1kEJOrH2d85+7RA89lhGOyptS5pjZRSzlrHcR5wiX5y6W8ufTKqjJszvW36iJB4MjHOYaC5fD3xWoD3mj1n9lvl6yM657V13EFA0dP4AMDMF14wd9Z5g73O2gLgxmtu9jVra0bcpuZGKHv3yxbVpe/YE46267ArUVW+973v7aq8+OkMvS9r3omhRzJzAswOMxQTQ0GFRAhBKqMUrQDoFRf0dxWq31987cWD3u42KtPbpo8ICOcS82QA0f8eRLxffrm1t7VvQ1DPlVgUrUq3JrcZ7O6A1hYAf7jmjyEzW/OIomlIk837ZIvqor/45aNcIvMnwwlhyvTJ01tDh9vA/H2AWiJq9ql0a3L/97fmrRrntU07n0AlHXOsNR104WUzHhnMNUYLAF6E5nwYOx5wD9TMYxHooRtWJXT7Ox9Y8TxE8KkRATUgVElouNjwVxRPxGUzIBGZsYkFv1TK/2ADFQUfGmsZ9Lqjw+fxWbxEBCkQRM3r+F7HUB3D96MoBBTjczPnzrwvqmyVMnXq1AZVcF8DMKroRhjfmz135pWDuaTiI1puYXKHUONnHOBI7athpr/hSDHcpEYsFUIltKz1E7Z4D8B9THSjkwr/TPsjkoVZQtjqvCnTLiCiqSU08eTsOTP3jyxQhU2bMq2DiWYUez0R/XDWpTN+NZhrKjannb3LPaj3tsQSL6uWBjl1Smh48FcOIzHER8PoApJDfThJGfyFVUYCOImYF+qseiN8QJ3LT8gWwqJ2KdChpVxPzFZs9lMsx3F+B5RS6OtBby5U9gKAF6G57/bkvX5f/KGw4OzJxm/5gXhjgPSoAuKNoQz6ohpsBcYvdVa9ENzvHG86jBBR6zyrs5EJ+5XQRJ8X826NLJABv7jkFysBXlDk5UyKHh3sRWUtALJ3uQf1ZpNvB3l1mPGBH+vv+tPDPSSGBDLwi2q0HYFvD+9X1/E9kL0ERM3IqMI+KOEcASL86aKLLjKy4VCUmFWRsxj895kXz3xjsFeVrQDI3Bmb7GdiD2pfNZarj8Fw4hrpkR6ceFUtDhViY07TKXU//62EBUNCWEQR9ijlegbdGVUWky6YO+MhBgY7CxCydopaO1GWAiC7MDUtyMTmsrbjPtuJa6SGeyBlwTSEENHYT8fVg3w/xpgOIkSpGLq0AoCDh6PKYpqr6VsAnhvgjzMIZ11w2S/+WUxfkRcAubti3/RzNMOGKX8AcFyNVKsvU/6iFu2sof7Ef8UQ00GEKNHYEq5974I5F7wWVRDTZlw2o8vRNJGBLcxq8FpmfG32pTOvLravSAuA3MLkDn7O/Q1rOzYYIgKSrYHc+Ytatg8n6BrTIYQoDZXyOOvlyGJYYsZlM7oumDPzP0DqcCa6EeDXATCANQAeAuF8FdCOF8ydudmjmrck0q12wwAP6YCs2b430eJDufLMX9Q2Bp0Q3K++404If206ixBFKuVR1rLIUlhm9qW/uBfAveVqP7IZgMxdyZ8EBWXN80g3rhFLh6ZjCFERBJ7FD2Gk6RxCFKnoMwGYeUWUQepJJAUAP4FYmEVHFG1FJT4k2PIPCVE7hupA/bfpEEIUqeiZY0UqH2WQehJJAZBZkZipQxWPoq0oOEktr/uJ+kP4tswCiCpV9FGrzDyoE/DEByIpALRHp0fRTlTiabn7F3UprQN1mukQQhSh6Oe1rEi2yC5SyQVA5u7Y/tpXQ6MIE4UNh/sIUadONR1AiCL0FHshsW6NMkg9KbkA4NA5y6ZDS50EGz7kWAiDCPvI5kCiCq0t9kIGjY4ySD0puQCggCdEESQqbkJW/ou6RiGciaZDCDE4vLrYKwlU0i6C9azkAkBrsupug1yLpiOEMICY9zSdQYhBISwt/mLesb29vejXCOtZ6QVAqFJRBImKkgJA1DkijDOdQYjBoVK28iWdUwdEFqWOlFQA8D1osGXb3w2UbPsr6h4PM51AiMHQwIulXO8Qjo4qSz0pqQAo+En7jiO1qhwRovI0VLPpDEIMhmL9eCnXM+P+VJ9FAAAgAElEQVSYqLLUk9IeATgciyiHECIiBC56UxUhTJg9Z/ZbxHi7hCbGTZ08/TORBaoTkR8HLIQQQgyawsMlXe7o70QVpV5IASCEEMI4zVhUUgNMJ7VPad8qojh1QQoAIYQQxrmguwGUso1rCkoOxBoMKQCEEEIYN2POjFUAHimpEca3p0+eLq/BDpAUAEIIIazAhGtLbCIeKr62s7NTxrYBKPoMZlGH3OGg4d8ENR8BJMcCqt8hXBwA/kpw3yPgrhuBzBPR95/cHTT8VFDTBCA2Buh/ArXOA96b4J77wKuvA7w3I++emicBw04ENewPuCMA6vcdE/aC868C6/4E7roeCDOR9y9ErWsIkn/MOvlfAShlZ7/PZLsKUwBcGlGsmlXSW/P5PyV2za91StrAIWpNW+dNR6hJNPx00LY/A9RAfi8Z3H0LePnZ0QyEFAdt83PQiG8DNIA33HQevOIC8LsXAlGcVOWOBO34G1DTZwf28/574OVng9eWtqapBP90JuhPmupciFK0T+m4CoQzSmzGZ9ARF8yZ8X+RhKpRMk0itoi2mg7a/pIBDv4AQKBhX4Ua9ydANZbYeQy08zzQyDMHNvgDgEqCtv4xaOzc0voGgNgYqN3vG/jgDwCxkaCdbgS1nlZ6/0LUGUW4EqVX7jEC/7HjBx1jI4hUs2pnBiA2BDT2LLjDdgeT+f2JCBoxXgEHa0DFLGz114B77gNyz0QfbhCo5RjQTjei2I8Kd98Kfv304vvf5megUWcXfT0vPxe86jdFXq2gdr0HaCxym3H2oF88Asg+VWT/RZMZAFHVzmvruIOA4yJoarlyMHHmxTPfiKCtmlMTBYDa9lT4206FtuQYANeNo6m5BY5T+hIL7r4dvGwyoPsiSDZI5ELt8QSQ3LGkZvRLRwB9jw3+wsRYqPFPABTf8s9uStANvWQvQPcO+lIa9hXQDr8tvm8A3PsA+OWK71IqBYCoatOmTNuLiZ5GNLPUr6oQR828fOarEbRVU6r+EQCNPAreNvYM/o7rYkhLaySDPwDQsC+BdroeRg45aDiw5MEfAKj1lOKuG3ZSaYM/ALjDQC1FnhMSwRQ+NR0KJMaW3I4Q9WTW3FlLANwcUXM7a4ceaz/7/EkRtVczqr4A0Dv9vyiWeUWmId0MomgHa2r+HGjoFyNtc0D9Nh1itp2mgyLpH0X1T6DGaLYWpwbZolyIwVIufgQgG01rPAys72mf0vE/nZ2d8vbb+6q6AKDUtgiQMh3j34gIsXiiPI23HF+edjcnFtFhj7ExRV1GJvt3WgCVjKb/eHF/fiHq2cyLZi5lxo8ibDIGQme2q/BIe1v7pyNst2pVdQGAxvGmE3yIUk7kd/8bUHzbsrS7WTqi4jsscv1CGFX/RbyKyFlE8gohAGjZE0CIYryx8rVLATwabau8P6AebZ8y/abpU6bvFm3b1aW6p0KciO7QIlPGhxEm3mwovBZNO/ni2uHCUlBDBGvZvCLW/ugC4L0NxLcpvf8i//xC1Lv58+eHP2yb/i0H/CSAKL/wCcQnhcDX2tum/wWMy3PUd8+cOXMKpTTacU7HjuzzgayoEYyMJvWvCy/9xbNRhY5adRcAoqx43T3vv8JY2kQRrytyQ5x1dwPDvlpS3wDAa/9U9HU0ssQTRnUvuO/B0toQoo79cs6M59vPnn4GmK8rQ/ME8BdA+EIaDT3tbR13E2gxWD+6dOXS5+fPnx9u7tqpU340VlG4L4iPAPMXdIAdQPTve0HFGu1tHc9qwv+78NKZt5chf0mq+jVAGn08vB06TXX/MY7jYOiwiJ5bf1TmSegXK7+IlcZeWfQqfgBA0AX97D5A2FNE5w7UHo8CyV2L7p77HgC/VORreInt178GqYpf18HvzACvmFH09UWS1wBFzZl2dsevmHFOBbv0ACwH+E0iWr3hH2pGKwGtBOzAQPMg2vvN6+++9t0tFBUVVd1rAETZ8Vs/LmFffX5/O+AiBn8A4BB6Wdv66fhihGvBy4rfRAiFZeB3flL89dmnwSsvKf56IcS/pYYl2wn4WwW7jAPYGaBJzPjqhv8j4DAA+wxy8AeAb48dvbNVXwhSAIjNC1ZBv/JloPDG4K5jH7zsB+A1d5bWf9+j63cSHOxCvmAV9KtfLfn5O6+cC14xG4Ne35F9GvrVr0W3kFKIOtfZ2RlkkTwBkS8KrBwCn9UxpeMw0zk2kAJAbFn+JegXJoLfu3L9qXtb0vsg9EufB6/+XSTd89q7oF+cCF73J2BL2ypzAO6+Cfr5Q4vbfXBjTb7zM/ArXwZyS7b8w7oXvGIG9EtHAv6KSPoXQqw3Z05nDxX4SAYeN52lSKQVdZgOsYGsAYhQLa4B+BinAdQ0EUhsD7gjPzgSN+gFvLfAmUcHP1swGLHR63fXi20NxIZ+8M/9Ve8fB3w/EK4pX//J3dcfBxzfGnDe34OCQ8B/D8i/Au57aGBFUnnJGgBR0zq+1zFUu/grgGr8nAc6EbRceOGFxt8PlrcAxOCEGZPH3AL+u+Du+eb6z78Azr9grn8hBGZeMXPN1KlTJ6qCcwNABnZJK4nr+u4esGAWQx4BCCGEqDoXXnhhJt2aOoGJZprOMlihprTpDIAUAEIIIapUZ2envuDSGdOJ+GT8//buPDyuq7wf+Pece2fVvnqRZcervMROnIU4mxNDgISEsDSYpbQsLYUSSEroQ1mLCvwoSR/iQEopXYAWaCAkBNvZSWI7i42zOHEc7/IqW7IsyVpGmvXee35/ODayY0fSzJ177sx8P8/jJ7E0955XI0vnvWd5D1S/7njGTFgdukMAmAAQEVGBu/2Ht/8aUAshxB90xzIGR8tqy3xRHpQJABERFbw77r7j0B0//Od3CqjPAsjjSuDcKKX+t7W1dZTtTN5gAkBERMVC3X737T/OmKlZgLoLx6v5+clRK5D2vDTo2TABICKiorJixYpjd9x9+xcU7PkAfgF/JAIJIdWfrVix4pjuQE5gAkBEREXpX+7+lz133P29vzQNeY6A+BaALk2htAHO1bf/4HZfnQzGBICIiIrad+/6buftd//zNxMYniaEei+AX3iwayADYB2U+OsEhs+94+47ns9ze+PGQkBERFQS7r777hSAlQBWtra2BoePJd8KiKuEUpcCuAhAWQ63t6CwG0I9C8hHEwg9cffdrVmehOYNJgBERFRyWltb0wAeff0PWltbzeH+9LnCVrMANU0oMc0R6hwJRABAATWv/zcmoHogRI9QokcJtClbbCkbDm5r/Xmr9jrg48EEgIiISl5ra6sF4JXX/5QErgEgIiIqQRwBoOzIKBBoxMkDJe0YYPV4175RDZinnQboDHnUuDj+tcvXy3krC7C6/XAKIBHRmDEBoLGLLISY8FmIqncAZsMbP++koIY3AD2/ev3EPneLXYnqdwH1H4MoXwoYZ1irYw9ADTwJ1fMfQGy9q21DBCEaPgZR8wGg7CJAnOFHJ90O1f8o1NG783skMhGRC5gA0OiEAdH0LYgJN+NNZ41kCKLiaqDiaojGT8PZ+xdA+nDu7Rs1EDN+ClH5tlFeVwVR+36I2vdDHbsH6sCt7jyVR+ZDzvgVEJ755q8LNkM0fgqi4WNQh1uhuv4197aJiPKEawBoFALinH+HmPB5jOufS9lFkC1PAIFJuTUvKyBbHh698z+NqP0wxKx7z/ykPh6R+ZBz/zB6539K40GIKd+FaPpGbm0TEeUREwB6U6LhExC1H8zu4mAT5PT/zq39aSuAyILsrq24GmLSl3NoPHj8yV9WZHf5xL+HqLwm+/aJiPKICQCdnQxDTPpqbveouOL4moFsRBZC1H4gp+bFhM8DZmN21zZ8bHxP/m+8A8SUf8rheiKi/GECQGclKq5+faV/jrIcQRB1H8DJXQbZkhGImndn137N8tzaBoDIQiA8L/f7EBG5jAkAnV3Zha7cRpRdlN110eyue4Oyi7O4SLr39Zdn0z4RUX4xAaCzO9NWv6zuk+UoQsCl9rO5j1md+wLCk/dyYRSFiMhlTADo7ByXzrGw+7K8bsCd9q0sDv2yY3CtjkG2Xz8RUR4VdgKQ7tUdwSmUyuO9PatyN0J8myu3Uckd2V2X2O5K+8jmPioDpPa40rxKuvR1EBG5qKATADXwIoTIcZGYixzHhuPY+bl5fHN+7vsm1ODj7hTS6VuV5XUrc28bCqp/dXZXutF+pgsY2pj7fYiIXFbQCQDsBALJXbqjOEUyEXf/pioD1fMz9+87GusYVPd/5HaP1H6oY/dkdakafBIYfj6n5tWx3wHJndld2/UjwM5tGkQduQNQeUoKiYhyUNgJAAC15VMwRUp3GCfFE0PIZNyMx4E6+EUg6c5w9Hipjv8HDL+U5cVpOAc+AzjZvh8Kzv7PAHYWc/gAkD4I1f6lLNsGYPVC7f9bANnN7ajBJ6G6f5p9+0REeVTwCQAy/RAvvAPB1HZ/TAcohYGBY4gPx+A4OS4iG34Javf7oHp+7kpoWXEScNo+CAz9cXzX2QNQbctzP5Qn2QZn13uBTMc4r9sBZ9e7j5/SlwPVvxpq36fHPRWi+h+E2vtRPv0TkW/l1GMmHwm1JPuN7FZ45YMMIjqjBSowVXckr3Mg7WOQapzDyCpz/BAdP60eFwGIho9DNH4OCE0/++ucIahj90F1fG/8nfabMWogJv09RP1HAaPm7K/LdEId/S+ooz8CHBenY0KzISZ/HaL6OkCGz/66xFaoI9+HOnY/sh05cMEmY6njThEDIipaxZUAAKho4pnseReaDRGeAcjInz6mbKhMF5DYnMOQ/xgIE4gsgghOAkTgTx93UlDpdiCxFXnteI2y4+0HGnDKAJodg0q1AakD+Wt77JgAENGoeBwwjV9qN1Rqt562lQXEN0HlYa3lmNjDwNAGfc/2REQuKfw1AERERDRuTACIiIhKEBMAIiKiEsQEgIiIqATllgAkfLYWygdlAIiIiApBTglAJpzy0UZ1aNx2TeQfSohh3TEQkf/llACUX4cetwJxi3I4DEClTSq3znEmomKWUwIgBJQ0VMatYNzgWEwAqLQpiH26YyAi/8t5EaAwla+mAVh6nQjZHX9IRCUl5wRASrzqRiBusdKG7hCItJLKeU53DETkf7knAIb9GzcCcYuT4hQAlbQeLMVm3UEQkf/lnACEb8j8VBjKciMYN9gZCTvD8gZUsu4TAjmeQ01EpSD3NQACjhHw15CjFWcCQKVJSud/dMdARIXBlZ7StPEpIf2zCz8TN7gdkEqOglgnrsAfdcdBRIXBlQQgfFNqtxmyNrpxLzcoRyA9xMWAVFKUAfubuoMgosLh2li5XZV+t/TRWoD0kAnH4lQAlYxfiaVYpzsIIiocrvWQlcvQI8P4klv3y5kCkn0mywNTKTgkbecLuoMgosLi+kT50APhJ62kfKvb981WsMxGqNpXxQqJ3JSScN4mlsJXC3GJyP9cHyMve2/y7UbY9k0lsvSwgfSQqTsMonxwlBB/wc6fiLLhegIgBJzyTGqREba3uX3vbKUGTKRjTAKoqKSVEB81r7R/qzsQIipMed0rN7wq/HBmWF6XzzbGI1BmI8zpACp0Cl2Okh8OXG2t0R0KERWuvC6TL7sx+a5AWeZmaap0PtsZq8ywgXh3EDZ3B1CBElAPSuEsZudPRLnypFqOehiVw6nwb620eDscob9Cjzi+ODBYbkEY3CZABWGrgviaudReqTuQfJi5MjkrLqz/TGbsC20lwirPP5ZhU1gTosZAZdBMBqQ7pZMF0AWoJ+EEf7B2mehx456F6pwHYx+KW2jNWGqapZD3oizVIZFoiAZiZaZISyFy/tcjFDIQar9S4jdCBX6xdpnwzRZ3N3naGQ89gQliKPQjOyOudSxZ5mXbZyIEYEZtBKI2jCDLp5PvpAXUow7kT40r7dXFWuN/2kNDH+kZtn5hqfyOSJ5QFzYwqyoImb9nkW4pcMNTS4PP56sBP5uyMnZ/T9J+v1ePVjOqgpgQyesar2ciocANjywRg/lsRAdtT+OJ1eYVjjI/6VjqUig50baNajiOtoikAciAhAgCwhAQpoCQ0PgOUSkJYKgLAv1Cqb1Kim1KiWcM214nlqFfd2z5NPP38eYuy9qXsR1PSndGTYmFdWHI/P9cd4UCgfmPXSaO5b0lH5n24PDXjgxnvuNVe01lAUytCOS9HSHEb9csDSzPe0Me80339sv/vkf5qWhPZXUlhA9mK6g0JOxIxfLly4Z0x+G1plVDD/UkrHd51d6sqhAaIl6VCRffWHtVwLPO0A9qfjcwGM+oCi/akgAunBCB6dXvaUctXLss9Jo3jXnDF6vh7r333qCfOn8APkqNqBSYZjqqOwYdUrZzsZftVQW9/JWnfFMQzQtNTwzWedX5A0A0IL3r/AEoIZZ51phHfJEAhEKhet0xnE4wAyAPmRa0r4nRwXGUp4mP6cHY/wgNXjamWzChZnrZXsDb7yUkVNF9P32RAAz3Z3yVAHDknzwnve0I/UJ5PNbmaWOqtJ4ilEeLOE/w+s1VRfhU6IsEIByQNbpjOAUzAPKaKM0EgIj08UUCYEu7TncMIxVhokc+J5zSnAIgIn18kQAIy6jWHcNIHAAgzwlwBICIPOWLBMBRjq8SAGYA5DUhOQJARN7yRQIAJat0hzASu3/ynMMRACLyli8SAAW7UncMI7EAEHmPiwCJyFu+SAAETM+KR4wJEwDymMMpACLymD8SAGX7KwEg8hqnAIjIY75IABwpfPX0I4Qv3hYqJdwFQEQe80dP5zjlukMYSfjuYAIqAUwAiMhT/kgAgIjuAE7BNQDkMSG4BoCIvOWPBED4KwHgLgDynOIIABF5yxcJgFII647hFEwAyHtMAIjIU75IAKCErxIAdv/kOU4BEJHH/JEAwAnqjmAkTgGQ5zgFQEQe80UCoKB8lQBwCIA04AgAEXnKFwkAHBHQHcJIPA6YNOAIABF5yhcJgIIydccwEqcASAMmAETkKV8kAAAM3QGMxP6fNOAUABF5yhcJgFLKVwmA4hQAeY8jAETkKV8kAPDZsjuOAJAGgRd/8qKv1sIQUXHzRQKgoHzV5XIRIOnQV9PHUQAi8oz2BOCXv3y40ndn73AIgDSIhxTXARCRZ7QnAEFnqE53DKdj/09apByOABCRZ7QnABLSVwkAO3/SRZrcCUBE3tGeAChp1OqOYSTO/5M+iiMAROQZ7QmAhFOjO4ZTcAiAdLG5FZCIvKM9AVAQvkoAWAWQdBGSUwBE5B3tCYCtUKU7hpHY/ZM2giMAROQd7QkAhO2rBIAZAOniKI4AEJF3tCcA0hGVumM4hWQGQHpILgIkIg9pTwAcqArdMYwk/FWUkEoJpwCIyEPaEwAo6a8EQP87QqWLCQAReUZ7dyfg+Gvek7sASBeHCQAReUd7AqB89tTDKQDSRQkuAiQi72hPAABEdAdwCo4AkC5cA0BEHtKfACjhqwSA/T9pw22AROQh7QmAggrrjmEkngVAGnEEgIg8oz0BABDSHcApOARAunAKgIg8pD0BUFC+SgC4DZC04RQAEXlIf3enENAdwkjcBUAacQSAiDxj6g7AwfEEwBRJNAR3otbchUqjHWXyKAyVgUQKAg4kbEA53gRlH/+PMCWEYQCmBEwDEOL4CIGQx6cKmCvQGNgqBFuFYasIMioKS0UxbDcd/2M1YdieDAcBCHAEgIi8oy0BUGsQTg4GbzqSviNciX0wrMSfPmnjZCfsJSPowAg5MEMOjKDDDp48oSAxaM3AQGbOBOsZ4wNGwH5MLMGg7riIqLh5mgCo1YjGnfBXlIWPD3bJKUoBNdjmZQhvYIQdBKM2jLDN9X+khYCDKrMNVWZbBAr3OmmZcp5WjzpK/q8xbD8k3oWU7hiJqPh4kgAkHjavclLGXYNxuUg5+pfZSUMhUG4jELEhDKU7HKLThRTEe4RQ73HKZZ/9NH4jbecHYhl26A6MiIpHXjvj5EPmtbHfhXalBoJrM0njfN2dvzQUQtUZlE1IIVhusfOnQlAD4DOOIbc6T4vVai0u1h0QERWHvIwAxFcFlji2cW8yJpvhgz5WSIVQlYVAVMPCAiJ3SAVxg5LieudptVrY6otiGdp0B0VEhcvVJ3K1HpHY70O/y8TN9VbSB52/AMyojbIJaXb+VCyEgrjRMeRWe538nloDX1XSJKLC4VoCkFgV+PjQ4XCfnTDep5T+5XRGwEG0IY1ITQZC6s5EiFwXhMA/OIZ8Ta3DUt3BEFHhyTkBUApiaGX4N6nhwM9sS/qiqp8ZtRFpSMMIeFQ3gEifmY6QT9nrZKu6F4buYIiocOSUACQfDM8YfiB82IrL5W4FlAshFCI1rz/1ax+DIPKMAYFvqoniUfUEJugOhogKQ9YJQPzRwFsySWyzUnKSmwFlS0iFSEMGZpRP/VSaFMQ1TlBuVM+iRXcsROR/WSUAyYdCN2QGzfV2xh9D/tJQiHLInwgApjmOXK/W4lLdgRCRv407AUg8GPir1JBcpWzhi/lGI+Ag2piGNLnQj+h1tY6Uj2eeMa/RHQgR+de4EoDh1cH3pofN/1SOP2bYpakQqecqf6IzKJfKWaWexRW6AyEifxpzAhD/feASK2Hc55fOXxgKkbo0O3+is4s4jnxQPY1FugMhIv8ZUwKQfCTUYmXMp/0y7C+EQqQuw2F/otFVOZAPqjWYojsQIvKXURMAtQZmJi6edSwR9CKgsQhXZ7jgj2jsmm3DuF9thW9+holIv1GH84dWhh+34vLtXgQzFoEyG+HqjO4wiArOMzsvwSNbrtY+bBaJRFJV5VUJABgKlMmM9O6MsDIn49nXLx0F005pf7+9YguJwWCZZ99MUzkIKdu776edgem4354CFAT6oTAEgV6h1C4F7FSOeLVchTd8uvXTcbfbPOFNE4Dk6sBnksOBH2uv6f86I+Ag0pBmkR+iLCgF/GL9+7G9Y5bWOIQQqK6qQSjoi13ERH6WBrARAg8bFv7v1tZbD7p587N2pYNrUI/uSKdji7ycGDhuAihrTEOaHPonytZQMoo7H/trJNJ6zxCSUqK+tgHSw6d/ogLnQGCdgvpxzOq/v7W1NefO8KwJwPDvg89lEuZluTbglmC5hVCVpTsMooL3x7bFWPmy/lm9aDiKysoq3WEQFR6FHZD43qDV94tcEoEzpt/Jlebb/dT5S0MhWMnOn8gNl8x8Bc21nbrDQDwZRyaT1h0GUeERmAuFn1caNS9+/zs/XJL9bc4gdn+4x07Luuyjc1ekNg0zwqF/Ire0H5uEHz/1F1Ca1/cEAkHUVtdCcGEPUbYcodQPjWr55VtuuSU1ngvfMAKQWBn4lJ86fyPgsPMncllzbSdaJu3RHQYymTTS6XH9ziKiU0klxN9ZA1h/Z+ud41rh+4YEIGMZ33UvrtwFKzj0T5QPy+Zt0B0CAGAoHoPSPRRBVPDUBcIwnr/zWz+8cqxXnJIAxFcHP+ikZb37gWVHGopP/0R5MrW2A7MmHNAdBjIZC2muBSDKmQJqINQfVnz7hzeN5fWnJAB2Wt6Rn7Cyw6d/ovy6quWPukMAAMQTeat1QlRqQgrqnhXfXvHe0V54MgGI/z7S7GTk1PzGNQ4CfPonyrOZjQdRHR3UHQZSqSRsx9YdBlGxMBXkPXd9566lb/aiP40ASPVdP03DmWGHJ/1laTgVxqHeOhzoaUAsEdEdzlkdGyrHvu5GdPbVIGX5o97U6SzHQGd/DfZ1N6I7Vgmlimu1uhAK503drjsMAEAikdAdAlExCTtKrHyzhYEnf5sN3hcecDKy0pu4RhetS8MIcwRgrJQCXto3A0+9di72dTee0lE11/Vi6bxtuHzOLkip9z1NZIL4w+ZF2LhnFnpjFSc/bkob86YcxnXnv4IZjV0aIzzucF8tHt60GK+1Tz0lOamIJHDxjD249rxXUBktjg6ra7Aedz32Sd1hwDRM1Nc16A6DqNi8ijJ7yW233faGX1gGAAyvClxsJ83PeR/XmQmpEK7h/P9YxdNB/PsT78Bjm89H33A5Ti/vMJiIYsvBadh2eArObW5HOKDnMKV93Y34/uobsKV9KhLpU+vAO0ri6EAV1u9qQSoTwNymDm1nPjz+6iL855PXoKOvFrZz6kaZtBXAvu5GPLtjLprretFYpX/4PFfloTi2Hp6DoVSZ1jgc5SAcjrA8MJG7JqiMrHx8zaOPnP4JCQCOY/yN9zGdnRHi0P9YZWwD//rotdh2aPTj3vcdbcSKh25APOX9ISydfTX4wSPXoT/+5p2MUsAftizCvRv0FKJ85JXz8bvnL4EzylB/IhPEjx6/FlvbR3/fC8HMRv27AQAglWJNACK3CeDmFd9acenpHz+eajtqmecRvQkzyMVAY7X6pQux9+iEMb++a6AKv17vbedqOxI/efIaJNNjP45+7bb52HxgWh6jeqP9PQ1Y9dJFY369owR+vm4ZEpmxf11+NbPR1UPGspZiUSCifJBKyJ+0traesthKAoCypbe/aUchwxwBGItYMow1W88d93Uv7J2Jzr6aPER0Zs+3zcKR/upxX7fqxbF3xm5Y/dJF417kF0uGsea1BXmKyDvTG9ohhf6fO54NQJQ3C6tkzcdHfkAmVptXOJZPjvzF8fl/g0f+jsmWA9OQsY1xX6eUwKZ90/MQ0Zm9uG9mVtcd7qtFZ783iUo8FcKOw5OzuvalvTNcjsZ74UAKk6r1L75USsGyuP6HKB+UxFdGjgJIxzHfpjOg0xkB/U8hheJgb/ZHNrQf8+64h/ae7Ns61FvrYiRnd/gMC/7GqqO/FpZd+AvXGiqP6Q4BAJCxOApAlBcKM6rM2g+e+Kt0oBbrjOd0wmACMFZDqXDW13pZH2AomX2cgx7FOZTMfmGkUsBQ0r/1FsaqoaJXdwgAAMvmCABRviilPnvi/6VwMFtnMKeTJhOAsXJU9k+do61yd1MubeXyNY6HcgFU6t0AABTzSURBVHJ7P7x8P/OlodwfIwC2xSlAojy67K5v39UCAFI5YpLuaEaSnP8n0qK+ok93CADAksBEeeYofAQATDjw19hl4U+lks8d6q3Dht1zsKtzEgbiUViOhJ3FYsqRvn3/n0FIhaBhoa5iCAumtOOylp2ojhbOITfRkD8qG9o2EwCifFJCXAfgm6aj/LMDAAAEEwDKk4xt4NfrL8f6XXNcr+l/ohZAHCH0x8uwp2sCHt18Pm688EVcs3CLq23lS8j0x+I7pTgKSJRPArhgReuKahPKX8/cwgd7kan4ZGwDP3jkXWg7MtGzNtOWifs2LkFPrAIfumy9Z+1mK2SmIcTxRY1EVNQMxxBLpXL89cztr2ioWPxmw2Wedv4jrd22AOt3zdHS9ngIoRAw9I8CKKWgmIUQ5ZlYyO6Wit7hvlo8t7NFawy/f+FipH165PFIAcMfW/CYABDllwBamABQ0duQhzn/8RpMRPFae7PWGIiIRmACQMVvt6ah/9Pt6vTVjlsiKm0N/h+TJMrRQDyqOwQAwMAoRyGT/wkhEAoHEQoGIKSEchyk0mkkE/rXTtCZBYMBRCJBCGlAOQ4ylo1EPMlpJqCCCUAB6Y5VouNYzcnyuL2D5VnfK5aI4JkdcwEA5eEUJlb3Y1K1PwrBuC3ok3ntUCCjOwTKQllZGJMnN6CuoRpVVeUw5BsHTm3bRn/fEHp6+9FxuBuJBI811iUQNDFpUj0aGmpQW1uJQOCN3ZxSCrFYHD29AzjS0YP+/piGSLWrZAJQALa2T8GqTRfhQHeDa/fsiVXgV89eecrHJlX34frFL+PCGXsgCr+y7UmNVYM4OlilOww0Vg7oDoHGobauCrNmNaO+fvR/O4ZhoK6+CnX1VZgzZyq6u/vQtrsd/f1DHkRKABCNhjFz5hQ0TWmAPEOSNpIQApWVZaisLMOM6ZMRi8XR1taOI529pTQyEGQC4GNKCdy3cQmefO1cT9rr7K/Bf615KzYfnIa/XLoOAaM4KrKdN+2ALxbgLZp6UHcINAahUADzF8zApEn1WV0vhEBjYy0aG2txqP0otm/bi4xVHD9LfiSEwKxZUzBjVjMMmd2TS0VFFIsXt6D/nEG8umUPhmKFU8EzF1wE6GMPvHCxZ53/SC/smYmfrVtWNAVhlszajdoyvU9i5za3Y0qdP07bo7OrranEFVeen3Xnf7opzY24/MrzUVnJ9R/5EAoFsGTJQsyeMzXrzn+k6ppKXHH5eZgypdGF6PyPCYBP7TvaiD9sOU9b+5v2TsfL+6dra99NAdPCn1/xDKSmKpPl4SQ+dNlzWtqmsWtsrMXFSxYgFAq6et9oNIwlly5EbV2lq/ctddFoCEsuW4Sa2gpX7ysNiUXnzcbMmVNcva8fMQHwqYdevkD7E/jDryzWG4CLFjQfwl8uXQdTejsUWxmJ4+Z3Pob6ipJcZFQw6uqrcMGFLWdc4OcG0zRw0UXzUVWV/cJd+pNgKICLLzkXZdFw3tpomTsN084p7q27TAB8KJUJYMfhybrDwKHeOvTE3M2udVoyeze+9J5VmNvUkfe2pHRw2Zxd+Nr7HsD0hqN5b4+yF44EsXhxy6gLx3JlmgYuvHAegsFAXtspdkIILF7cktfO/4T586ePaRFooeIiQB/qjlXCcnI7ntYtR/qri+rpdWpdD/7uuofQG6tA25GJODZchmQmiCP91dh8YFrW9106bzsiwTQqwgnUlg9h7uQOREPcClYIzls0x7NOORwJ4tyFM7HppR2etFeMZsxsQl2dN52yEAKLzpuNp9e9DKsIF3IWVQLQE6vAnq4JONJfg4F4FEkrACkclIdSqK8YxNT6Hkxv6EbA9Me+8LNJZvzzhJBMuzsf6hd1FTHUjUhsNu2dnlMCcO15r6C2nFu+Cs3kpgbUefyEN3FiHeobqtHT3e9pu8UgHAlh9ixvd/SEwyHMnt2M7dv3e9quFwo+AYglw3h2x1xsbJuNI/3Vo74+YNhYOO0grmzZjnlNhz2IcPwqIwndIZxUES2N7TBUeoQQmDlLz0KvOXOmMgHIwsyZTZCG9zPXU8+ZjL17O5BKFVfFx4JNAFKWiYdfvgBrti4Y1ylrGdvApr3TsWnvdExr6MZNl2zE7ImdeYx0/BoqBlEVjWsvYWtKG9Pqe7TGQJQv9fVVqCjX8zNWXV2B6upyFgoaB9Mw0Dxlgpa2DSnQ3NyItrZDWtrPl4JcBNjWNRHfuv8mPLb5vJyOWD3Q3YA7H7oB96y/HBnbH3PuwPFz2d8ys013GDh/+n6EWb6WilRTk9693rrbLzQTJ9dpefo/oRi/XwWXADy3swV3PnQ9el1ana4UsG7bfNz54A2IJfO/qnSsrj1/M8rDSW3tB00LN174krb2ifKtvmH0KcP8tl+jtf1CU1+v9/0qK48g4sHOAy8VVAKwdtsC/PLZpXAc98Pe192I769+t2+SgLJQEn/ztie0lOOVQuFjV61j7XoqWuVlEe3b8crKwgiF/LPg1+9qa/RvSa7xQQxuKpgE4OX90/GbDZfmtTjOkYFq/Ntj7/TNdMCcSZ34wvUPnbJaPd8qwknc/I5HceH0vZ61SeS1sgp/HBFdVuaPOPzOMAyEIyHdYaBc05qRfCmIRYDdg5X4n6eXQqn8H1G3r7sR921cgg/7pHTrjMYutN70Wzy3cy427ZuOgz31rm8TDJoWmmqP4fxp+3HVvO0IB4trpSvR6cI+efLmCMDY8PuVHwWRAPx6w+We7kd/evt8XDB9L1om+WN3QMCwcfX8rbh6/lYAx3dA2LaB/3n6qqz3rk+r78at1z0CKR0u9KOSIw1/jPKZpj/i8Dudi/9GMkx/xOEW3381Ww5OxdZ2b/fqKgX87vlLPG1zPEKmhWgoBcNwsr6HlArRUIqdP5Uk5WT/s+Mm2ydx+J1y/HE0qWP7Iw63+D4BeGyznhPxDnQ3YPvhJi1tE1F+ZTL+KOtqZfxdldQvMpY/3qdi+375OgHoGqhCW9dEbe0/u2OutraJKH+Gh/1RbXNoWN9W30KSSmWQ8UHnO1xk3y9frwF4cc9Mre2/2j4VGdvQshWvEA0monh6+zxsaW9Gz2AFhlO5b6m8f+MluH/jJQgYNiojccya2IUls3f5towzFYZYLA7HcfJ+AuCbyWQsJHySiBSC2OAwaj06BOhsBgaHtbbvNl8nADs79Z7FnLFM7DvaiDk+WQzoZ09vn4f7n78EqTwdZJSxDfQOVaC3rQIb22Zh/pRD+MTVa1ChsVgSFS7bttHfP4Ta2kptMRzrHUBxzSjnV0/vgNYEIGPZGOgvnpNRAZ9PARzqrdcdAtp9EIPfrd50If7vuSvy1vmfybZDU3DHqvcgloh41iYVl85Ovedc6G6/0HR06H2/uo70QOWzEI0Gvk0AhpJhxH1wFG3XgN4hJ7979cBUPPzyBVra7h6sxH+teauWtqnwdXR0w9Z0xns6nUHXkWNa2i5U8eEEjvUOamu//WCXtrbzxbcJQDytv+oTACR8kIT4lVICv3vhkrxWZxzNzo7JePXAVH0BUMHKpC0cPHhES9v79nZwC2AW2va0a2m3t2cAfX3FNfwP+DgBsPNQ7z8blu2POPxoz9EJONKv90AVANiwe47uEKhA7d7d7vkZ74lECvv2d3jaZrHo6e7H0aPejpwoANu37/O0Ta/4tncLmf4oUBMO+iMOP9pzRM/Z3KfTuVWUCptl2di6xbtzLxSAzZt3w7H59J+trVv2IpP2bkvgnrZDGCyy1f8n+DYBqIzEIaX+H5LqsuL8xrthMOGPgzGGkpG8nBBJpeFIVy/27fVmW+muHQdwrJenbOYikUzhlVd2erIgr6e7H7t3Hsh7O7r49remaTioL9c/5zKxql93CL7ll1Ea07B8kSxS4dqx4wAOH+7Oaxv793diz55DeW2jVHR392PLlra8JgED/UPY9NKOot6q6dsEAABmTtS/6nKWD2LwqwlV/niSmeiTOKhwKaXw6ubd2L8/PzU/du86iG1becS2mw61H8UrL++CnYdzAnq6+7Hxj6/Bsou6CJzydQJwbrOeFZ8nTKrpQ50PRiH8akFzOwwfPHmfN614h+jIO0opbNu6F6+8ssu1srOpVAYvvrAdu3fr/V1WrDo7e7Dhuc2IDcVduZ9SCrt3t+OF57cWe+cPAHFfVwJcNPUAosG0tnoAl8xq09JuoSgPJ3Hl3O1Yu22BthgigfTJY5KJ3NBxuBu9Pf1oaTkHTVMaIIQY9z1sR+HQwSPYteugL2rYF7PBwWE898xmTJ8+CTNmTkEgkF231n20H9t37MNQzJ1kogAM+joBCBg2rpy3XcuJgCHTwuUtOzxvt9DceNGL2NHRpGU7oBDAR654FuUsB0wuS6UyePXV3di9+yCap07EpMn1KIuOfrZFbCiOzo4etB/s8nx7YSlzHAd79hzG/gNHMKWpAZObGlFdXT5q8pZKZXCkswft7UcxODjkUbQ+oRDzdQIAANcsfBXPbJ/n+SjAW899jXXmxyAaTONz73wU//b4O9HRV+NZu1I6WL5kAy6eucezNqn0JBIp7Np5ALt2HkA0GkJ1VSWi5WGEggFIKWA7CulUGsPDSfT1DyKZYKevk23ZOHDgCA4cOIJA0ERNdQXKyqMIhYMIGBKOo5DJWIgnkhjoH0YsVrq7vITEAd8nABXhJN578fP4v+eu8KzNuvIYrjv/Zc/aK3T1FTH8w40r8eir52HN1gVI5jFZEwKYPbET779kI86pz++qbaKR4vEU4nH+mysUmbSFo0f7gKN9ukPxJQWx0/cJAABcOXc7th5uxub90/LelpQOPrFsLYIm5+3GIxTI4D0XvojrF7+Mts4J6I5VIp46Xs75gRfekvV9z21ux+yJnTANB1WROGZM7EJtWYkN1RERuUwotasgEgAhgE8sXYs7Y9fjYB5P5xMC+Ojlz2LWBD31wYuBKW3MberAXPyp1GkuCUDL5A68feGrboRGRESvE0r90dfbAEcKvz7X3FzXm5f7C6HwwUufw2UtO/NyfyIiIp8YmDx38qaCSQAAoDKawG03PIhFU93d9x0JpPGZt/0BV8/f5up9iYiI/EZArFu+fLldEFMAI0UCafzt2x/HMzvm4fcvvCXn3QHzpxzCRy5/FvUVLPhDREQlQKj7AKDgEgDg+Fz90nnbsXj6PjyxZVFW2wRnTTyC6857GQuaWZubiIhKxnDQMh8ACjQBOKEinMT7Ln4eN1zwErYcnIrX2qei7cgE9MQq4ahTC0BEg2lMqevB3KYOXDB9Hw/5ISKiUnTfza03DwEFngCcEDBsXDB9Hy6Yvg8AYNkSA4kyJDMBBA0L4WCaRX2IiKjUKSnVnSf+UhQJwOlMwymJQ3xEDkdhCg8PuRQCyDZUr+IUOS6HFaKYDw0lomKgIFb+3dduPbmvuqB2AdCpyiPZj2p4WT+/PJR9W16N3JTlEKMQ3r6fRERZsKHwrZEfYAJQwCZVZ7+OYVKNd2sgJtVkX4pzokdxTqweyPopvr5iEAGj6I8OJaJCJvCTL/7jLafUuGcCUMAWTT0AmWWndf45+90N5k0sPmdfVtfVVcQwtc6b2uuVkThmNnZlde350/a7GwwRkavU0ZQR+PrpH2UCUMBqy4dw6Zxd475uQfMhTG84moeIzuyKlp2oKRv/qVvXn/8ysjiKPWvXX7Bp3NeEAhlcs3BLHqIhInKFghB/85WvfPYNQ7FMAArcn71lIxorB8b8+spIAn9+xTN5jOiNAqaFjy1dCymdMV9z3rQDWSU3uZjXdBhL520f1zUfXLIBVdF4niIiIsqNUvj+bV+/deWZPscEoMBFQync+q5H0FRzbNTX1pXHcMt1j2g5TW9uUwc+9dYnERrDKYuLz9mPTy57SsvK+g9duh5Xzh09CTCkg49c/izPjiAi/xJYUz4h/NWzfdr48k2BVg/DGVWwwvZ02LcYRINpXDpnN4KGjc7+GqSswKmfD6WwbMFWfHLZGtSV6ztKd1J1Py6asRdDyQiODlTBUafmnxOr+rH8sg248cIXYRpjHy1wkxAKi6YexLT6HhwdrMJAvOyUz0vp4Nzmdvz1sqewcOpBLTHm09M734KMHRj9hXlWFi2H4C8ColxsEbZz7ef+/nNnHaIU/fdEfbWBuXxSCkL6KqSCopTAwZ569A6Vw3EkaiuGcE5997iG372QygSwv7sB/fEoIsEMGisHMDGHXQ350hurQEdfDeLpICojCUyt70FZKKU7rLz5zqrPYTgV1R0GGusnQEoOUBJlRWGH5ZjLvtR685uebV+UhYBKmRAK0xq6Ma3Bm9Xz2QoFMmiZ3KE7jFHVVcRQx4OiiKhAKOCFgCmuv+2rN4/aCTDFJiIiKgYKDzjh9LJbvnrLmJ4AOQJARERU2CwF8fXbvvH5O8Q4Vk9zBICIiKhgiU2OwpIvfuOW28fT+QMcASAiIipExwTwj00tE/99+fLlWdUiZwJARERUOHoU8CNpO3d9ofULOW2dYgJARETkb7YQeArAL6JW+P5Pt37alfKjTACIiIh8R7QDaq1S4inLEY//Q+vnXd83zQSAiE4KhwK7LIT1n21sYAOA0etGExU45WBQCgw5AjEJdCuIncKyd+U6vD8WrARIRCdJOI1iKfxdRYqIXMFtgERERCWICQAREVEJYgJARERUgpgAEBERlSAmAERERCWICQAREVEJYgJARERUgvyXAAjdARCVMBsswkFUIqSQytEdxEhKfw0yolJloxt9uoMgIm9IKVVKdxAjOQ6HAIi0UDgiloMpOFGJkMJUO3UHMZKT8t+sBFFJOH7aGBGVCClN52e6gxjJSjABINJBCfGA7hiIyDsy+u7MD42g45t5PzsjYSeZBBB5bIvRaa/SHQQReUcCgGk6t+gOZKTkgAnFtchEXrEdR97K+X+i0iIBIPKe9C8DZc5/6A7mBMeSSPYFwQ1JRB4Q+FLgamuN7jCIyFsnx9rLbkx+OhC1/1X4ZBG+lZBI9AU5EkCUPzYEvmxc6dypOxAi8t4buvv4Q8EPWwnxb07GqNYR0OmMgINQpQUj7KtyBUQFTUFsNJR9m7gK63XHQkR6nPV5P/lg4G/tjPFXjo15ji3CyhFaV+YZQQdm2IERciANBSEVqwYSjd1RAJ0QeNZR8gHzSuspITjJRlTK/j8XuWuuu90UEQAAAABJRU5ErkJggg==;" vertex="1" parent="1">
          <mxGeometry x="130" y="332" width="164" height="164" as="geometry" />
        </mxCell>
        <mxCell id="fVwzWta8XXvmtXb5B4zN-2" value="" style="shape=image;verticalLabelPosition=bottom;labelBackgroundColor=default;verticalAlign=top;aspect=fixed;imageAspect=0;image=data:image/png,iVBORw0KGgoAAAANSUhEUgAAAgAAAAIACAYAAAD0eNT6AAAABHNCSVQICAgIfAhkiAAAAAlwSFlzAAAOxAAADsQBlSsOGwAAABl0RVh0U29mdHdhcmUAd3d3Lmlua3NjYXBlLm9yZ5vuPBoAACAASURBVHic7N13lJRF1sDhX4fpmZ7MwJBzzkFyUJSkmBNiYs3ZFdc151V0jWtc05rFhDmjgqISBUmSBMk5MzNM7vD90fiJSpipqu439H3O4ayrVvV1aPq9favqlgchhN15gZpAXhX+NwXI3DMuCKTt+esswL/nr2vsNXcZULrX/48ABUAFUAzsBEr2/HXRnn+2A9gCbNvr1+Y9/0wI4RAeqwMQQpALNNnzq+meX7/9/0ZAbasCq6YKYD2wDlgNrN3z12v2/PVyYLdl0Qkh/kASACESIwi0BzoBHYA2/P6gz7YurITbACwFlu3167f/X2lhXEIkHUkAhDDLDzQm9pBvv+d/uxN74PssjMvuKoklAQuBRcBPe/56hZVBCeFmkgAIoac10AfoC/Qm9sAPWBqRu2wGZgI/AjP2/O8uSyMSwiUkARCi6jKAnkA/fn/o17I0ouQTJbZk8FtC8B2xSkHUyqCEcCJJAITYv1xgMHAEsYd+J37fSS/sYxvwPTBpz6+FxE4zCCEOQBIAIX7nI/YN/8g9v3oh6/ZOtJ1YZWA88CWxUwhCiD+RBEAku7rAocBxwDHEztILd1kBTAA+Bb4m1vtAiKQnCYBINh5i3/JPBY4F2lkbjkiwEmLJwIfAx8SqBUIkJUkARLLoAIwAzgJaWhyLsIcwMB34BHgP+NXacIRILEkAhFt5ie3SHwGcTKyjnhD7EwVmAW/v+bXO2nCEiD9JAITb9ANOB04B6lsci3CmCLFTBa8TqwzstDYcIYQQ+1MHuJZYB7mo/JJfBn+VAR8QSyilwZMQQtiAFxgCjCN2CY3VDwr55f5fO4Bngc4I4QKyBCCcpiVwPnAOUuLfL3+Kn0atW9G8Q3uad+xAs/Ztyc7LIzMnm/SsLNKzMikuLGT3rgKKCwvZsXkLKxYsYsWCRSxfsJBNq9cQjUat/s+wsynAC8QS0GKLYxFCiSQAwgn8xEqwlwGHIe/bfQpmZtBj0BH0HT6MHoOPICM7S3mubRs3Mn3810z74isWTJtOqDJkMFJXKQTGAk8ASyyORYhqkQ9SYWe5wEXAlcRu2BP70OaQrpx48QX0PfpIUgLml6l3FxQw4a13+eTFV9i0Wprq7UeUWH+Bx4HPkVbEwgEkARB21AIYDZwHZFociy15vF4GHHs0J15yAW27d0vIa0bCYWZ8OYEPnn2ehTNmJuQ1HWo58F/gRaDA4liE2C9JAISdHAb8Azie2CY/R/D5/TRr3442h3SlbfdurF+xkrcffTJua+hdD+3PBXfcQvOO7eMyf1XM+GoCL/7rXtYtXxGX+VPSUjnlhmsIVVayYs58Vs6Zx85Nm+PyWnFUBDwHPAKstzgWIf5CEgBhNT8wktiDv7vFsVRJMCOD9r170KlvH9r36kHLzh1JDQYBmD7+a+698DLCIfNr5g1btuCCO26m19DBxudWEaoM8cVrr/P6g49StNP8UfnMvBpc+9bL1GnWFICdmzazcs48VsyZz4o581j980Ii4bDx142DCmL7BB4AfrE4FiH+nyQAwio+Ym15b8PmrXnT0tNp36s7nfr1pXO/PrTq2hmf/6+3As+bPJU7zzqPivJyo6/v9fk4+dKLOPuGa+Kyxq9r17btPHHtjUwf/7XxuWvUq8u1b71MXv16f/lnZcXFLJ0xi1+mzmDx1OlsXLbc+OsbFiF2B8H9wI8WxyKEJAAi4XzAGcQe/K0tjmW/GrVqSY/Bh9P9iIF07Nv7oA/eX2bP5ZYRZ1FabPZEWN0mjbnm8Yfp0Lun0Xnj4eu33uG52/5FSdFuo/PWbtaEa998mayaB76osXDrNpZMncGSqTNYPGUauzZvMRqHYV8BdxC7i0AIS0gCIBLFR6xF721AG4tj+YtAaipdDxtAzyGD6DH4cGo3bFDlsWuWLuP640dQtGuX0ZgGn3YKl/37LoIZGUbnjafNa9fxwKV/Z8lPc4zO27BdG/75xkukZVbtZxGNRlm7cDHzJ05i3sRJrFts28r7Z8CdxO4hECKhJAEQ8eYldob/LqCtxbH8QWowSJcB/Rhw3NH0HX4k6VnVP3BQtGsX1ww/kQ0rVxmLy+vzcc5N13LqlZcZmzORKisqeOqGW/nqzXFG5+1wWH8uf+5JvL7q7w/dsWEji76fwvxvvmPx5GmEKiuNxmbABOBG4CerAxHJQxIAEU+/Pfit267+J+lZmfQdfiQDjjuarocNIJCaqjxXqDLErSPP5uep5qq4Wbm53Pjck3Q9bICxOa3y4XMv8uJd9xrdEHnUxedzwnWjteYoLSxi/jffMfPTL1g8eZqdNhJGgXeBm5GriUUCSAIg4qE78B9ix/oslxII0GPw4Rx+8gn0GjqYQFqakXn/e8MtfP7K60bmAqjfvCl3vfEK9Zo2MTan1eZ89wP3XHAppbvN7Y34+2MP0vW44VQYeHDv3rGTnz7/kh8/+YKVc+bZpf1xBfAMcDewzeJYhItJAiBMagDcA4zCBuf4O/TuxeDTTqb/scPJzMkxOvenL73K0zfdbmy+pu3aMubt16hRO9/YnHaxdM48bj/jHGN7JAKpqfz7/bdo1rUThRUVlIbMlPO3r9/AzE++YOYnn7NhqS2+gO8C7gMeI3YroRBGSQIgTEgndh3v9YClO9Zy82sx5LRTGXrmaTRs0TwurzF/yjRuHTnKWGm7ddcu3PXWK2Tl5hqZz45WLV7CrSNHsXPLViPz1aidz2NffkLNenUpD4UorCinNGxuqWHV/AVMfvs9Zn06nvKSEmPzKloD3AC8ZXUgwl0kARA6PMTO8v8baGhZEF4vPQYdzpFnnU7PIYPwp/z1jL4pu7Zu48rBw409yDr26cUdr72otAHRaTasWMnNI85i6/oNRubr1Lc39777Bl6fD4CKSISiinKKKyuJLafrKysuZtYnXzB53Pus/nmhkTk1vEnsJkypBggjJAEQqvoBjwKWHVDPys1l2JkjOea8UdRpFP/8IxqJcPuZ5zB70g9G5mvbvRtjxo111DE/XRtWruL6E0YYS6DOvPZqzrr26j/8vcpIhILyMkoMLQ38Zu2iJUx++z1+/Pgzygzuaaim94ARmMpwRFKTBEBUVw6xnf1XYtE6f8OWLTj6nLM48qzTSUtPT9jrvvPE07x8z/1G5mrStg33f/i2q8v++7Nq8RJuPOl0I3sCPF4vY95+ja6H9v/LP6sIh9lZXka5waUB+L0q8PWLr7Jl5Wqjc1fRGchygDBAEgBRHacQu/f8r31Z48zj8dBr6GBOvvxiOvbpleiXZ8ms2dxw0mmEKvUfJnWbNObBj94hr24dA5E506IfZ3HryFGUl5Zqz1WzXl2enPg52Xn77hRYGqpkV3k5lRGzx/0i4Qhzv5rAxJfGsmLOPKNzH8SPQO9EvqBwJ0kARFU0JHa96fGJfmF/SgqHn3wCp1xxCY1bt0r0ywOwu6CAvw8+mi3r9C90q1E7nwc/ftdVR/1UzZz4LWPOvchIUtVzyCDueO0FPJ79f6SVhCrZVV5GKBLRfr0/WzFnHhNfGsvcryYQCZuf/0+iQA3kqmGhyWd1AMLWvMAVxNYdOyfyhYOZGRx/4Xlc/8zjDB5xCjk1ayby5f/gsWtuYOGMmdrzpAQC3PXmqzRrb6uGiJZp0LwZWTVymTXxW+25NqxYSU6tmrTu1mW//06K10dWIBWvx0NFOGx0Eb1Gvbp0Hz6M3iceR6i8nA2/LCMSh0RjDw/wErA9Xi8gkoNUAMT+dCR2l3nfRL5oMCODoWecxsjRV5CbXyuRL71PP349kX+NusDIXKP/cz/DzhxpZC43MdVQKS09nSe/+aJK1ZVINEpBRTlFFRXEYz/dzo2b+Pr5V5g87j0qy8zeDrlHA8DMcQqRtCQBEH+WQuzCnhv3/HVCpGdlcvyF53HiJRfYZmPc7oICLhs4jB2bNmvPddKlF3LhnbcaiMp9QpUhbj71TBbO0L8ht+uh/RkzbuwBlwL2VhkJs72s1EhXwX3ZtXkLXz33EpPffo9Kc9dE7wBqA7bpYSycSZYAxN7aELud7AwS9N4IZmQw4u+XceNzT9Jz8BGkGmrTa8J/b7jVSOn/kMMP5ZrHHsbjtbw5oi15fV56DRvMDx9/SnFhkdZcm9aspWbdOrTs0qlK/77P4yUzJYDP6zW+LACQlplBh4ED6DfiJKKRKOuW/EIkpP3cfgd430B4IslJBUBA7H1wCfAwsa5+cedPSWH4qDM5/ZqryK1l3fr+/sz6ZhJ3nHmu9jz59evxxDdf2KaqYWfL5s3n2mNP0b6pLz0rk6e++5r8+tU7rBLvZQGILQ18/Oh/mfHhp0QV9gh4PJ5oVp283oWbtutnpiLpSQIgagMvAMcm4sU8Xi+HnXAsf7vxWuo2aZyIl6y2kqLdXD5wKFs3bNSax+f38+9336CDBccWneqDZ57n+TvHaM/TfdBA7nrjFaWxFeEwO8vKKI+Y7R+wt/VLlvLBg4+y8Psp1Ro35PxRnH7r9SXpvpTzzmzS1ux9yyLpSAKQ3I4l9vCvnYgX6zKgHxfccQstOnVIxMspe/bWf/Hx8y9pz3P29ddwxjVXGYgoeUSjUf519vnMNHAy4PqnH2fgSeonV3dXVrCzvCyuNwQumTqDDx58lDULFh303+0ydBAXP/EQXp8PjweC/pTp2dHg8JOaNTNzy5JIOpIAJKd0YuX+S0jAe6Buk8ZceMct9D36yHi/lLaVi5Ywetix2hf9dOrXh3vfef3/+9SLqivYvoMrBx3Fjs1btOapWa8uz06eqNVqORSJsL2s1Hg3wb1Fo1FmffoFnz3xLJtXrvrLP09JS+XISy5g+GUX4fX9cR+Jz+OpTPen3HR203YPxy1A4VqSACSfQ4A3iG34i6tgZgYjR1/JiZdcQEogEO+X0xaNRrnhxJHau9Gz8/J4cuLn1KxX11BkyWfuD1O4deQopXXyvZ16xaWcd9uN2vHsrqxgV3kZkThWA6KRCIunTOeX6TPZtnYdgbRUmnbuyCHDh5FVc99dDn+T5vevCIYCw05v1Wp53AIUriMJQHI5n1hHv7hutfd4PAwacTLn3nIDeXUSsrpgxLfvfchDV1x98H/xIHRLzyLmmZvv4JMX1dbxf+NPSeG/346nYcsW2vEkohqgw+f1hIO+wL9GNW17t9WxCGeQBCA5pAIPAHFfkK7fvClX3DeGrocNiPdLGVW6u5iLBwzSPvPfa+hg7njtBUNRJbfy0lKuOOIoNq7Su3Cn62EDuGfcWENRQVFFBQUV8a0G6Ej3pSwg4Dn8nIbtpFOgOCA5mOx+DYFJxPnhH0hL48xrr+apSV857uEP8PpDj2g//DOys7jygXsMRSRSg0Guevi+Kjf12Z+5309m6mfjDUUFWYEAddIzSfHac39HSbiyY0V5aP3YNYuk7aQ4IEkA3G0IMAfoE88X6T5oIE9/9xVnXXu1I9b6/2z98pV88sLL2vNcfPcdsu5vWOf+fTny7DO053n+zjFUVlQYiCgmxeulbnomOan2aVy1t1Akkrq7vPKtV1Yt+fzOaNRvdTzCniQBcCcPcBMwHohbQ/3MnByuefxh7nrjFdue6a+KV//9oPaNdN0HDWTIyFMNRST2dsHtN1e7qc+fbV67js9ees1QRDEeD+QEUqkdzMBnwy6PUaCksnx4o5ULN7++enF3q+MR9mO/d63QlUWsVei9xLGdb88hg3hq0pcMPu2UeL1EQiydO48pn32hNUdKIMClY+40Eo/4q/SsTC6663bted78z+PsLjB/g26a30/d9EyCPnt+0a4Ih/N2h0I/jl29+F6rYxH2IgmAu7QCZgFxeypn5+Vx/dOPc+fYF11R7n7p7vu0G72MuOpy6jdvZigisS/9jx1Ot4GHas2xu6CA95/+n6GI/sjn8ZCfnkENmy4JRCIRb1FFxU0vr1r487iFCzOtjkfYg5wCcI8BwIdA3Brr9x42hKv+c78te/er+Omb77j9zHO05qjTuBHPfP81ARtdYuRW635dzhVHHKV1V0Baejr/mzYprsdTKyJhtpYUE7bpKYEUn7c4w+MdfEazDjOsjkVYSyoA7nAq8BVxevgH0tK4+O7bue2V/7nm4R+NRHjl3w9oz3PxXbfLwz9BGrZswQkXna81R1lJCW88/KihiPYt4PVRLyOLNL89lwQqw5GMwkhk6utrFl9rdSzCWpIAON9o4G0gGI/JW3XpzBMTP+eEi87XPo5lJ9++9yHLf16oNUe3gYfS56ihhiISVXHGNVdpLz19+frbrF32q6GI9s3r8VA7mE52IDWur6Nqz5LAg6+sWvJ5NBqV50CSkt9450ohdpHPo8Th99Hj9TJy9BU89On7NGzR3PT0loqEw7z5n8e15vCn+Ln03n8ZikhUVTAzg3Nvvl5rjkg4zFuPPGEoogPxkJuaRq1gui2T52g0dkrgpZUL17+ydm4Dq+MRiScJgDPlAJ8Ta+1rXG5+Lca89Sp/u+k6/Cn2LGPq+O7DT9iwj0tXqmPYmSNdlxg5xRGnnEjzju215vj+o0/ZsGKloYgOLN2fQp30TPw2PCoIUB4O162o8K14Y/Xi4/bzrxxB7FTROOBV4BqgfqLiE/Fjz3ekOJAmwBRiTX6M69y/L09M+NyR3fyqIhqJMO6x/2rNkZaezhnXjDYUkaguj9fLuTffoDVHJBxm3ONPGYro4AJ7GgcFbbovIBSJBIoqKz96ZeXiO/f6292Bn4BviPUVGQGMInaT6ErgQcB5nb/E/5MEwFm6ANOBDqYn9ni9nPHP0dwzbqyjLvCprimffcGapcu05jjxkgtc/TNygu6DBtJlQD+tOb597wM2r11nKKKD83o85AfTybLrvoBo1FMSqrzj1VVLxhHbWDyV2O2h+xIAriXWZtwdO4OTkCQAztGLWCZu/PB9dl4eY956lbOv+4er76+PRqO89eiTWnPk1MzjlMsvMRSR0HHurTdora2HKkO8++TTBiOqCg81UtNs2y8Aovw8Y8YIn983jqp9u+8LfAfIHgIHkgTAGQ4DJgAHvhRcQYtOHXj0y49dW/Lf249fTWDlwsVac4y8+krSs6SPih207tqFAccdozXH12++w/aNmwxFVHVZgVRqBTPw2KwVSzgU4uXrbyMcClcnsA7AZKBlnMIScSIJgP0dCXxBrMWvUYeffAIPfvwudRo1ND21Lb31iN63//z69Tj6nLMNRSNMGHXDP7WqVpUVFbz31HMGI6q6dL+fOukZeG10QuCnz75k6+o1KkObEksCuhgNSMSVJAD2diLwEZBuclKf38+Fd97KdU89RmowLu0DbGfe5KksnTtPa45T/36ZI287dLMGLZpx2AnHas0xfuybFO3aZSii6gn4fNSz0QmBOV9N0Bleh9iegN5GghFxZ493ndiXM4ld6mN0x1BGTjZ3vfEyJ116oclpbe/DZ1/QGp9Xtw7DzpTr1e1o5NVX4tF4gJaXljL+tTcNRlQ9Pq+XuhmZpNpg/82mX7WPRuYS60raXz8aEW+SANjTRcBrgNEzQ3WbNObhT99PivX+vW1YsZKZE7/VmuOUyy8hkGrP3dvJrnHrVvQ/ZrjWHB+/8LLWHQO6vHionZ5JekqKZTEApn4G2cCXwCATk4n4kQTAfkYDz2L496ZD71488sWHNGqVfPt0PnzuRaKRiPL43PxaDB91hsGIhGmn/+PvWicCdmzazORPPjcYUfV5gFppQTItTALyGtQzNVUG8DGSBNiaJAD2cgWx1r5GdwUNPu0U7nlnLNl5xg8R2N7uggImjntPa46TL7soafZKOFWz9m2172XQXSYyw0NemnW9AjodMdDkdBnAp0gSYFuSANjHuYDxBuVnXns11zz+cNJuXhs/9k3KSkqUx2fl5srOf4cYefWVWuOXzZvPwuk/GopGT43UNEuSgAEjTyYnv5bJKYPEKgHJte7oEJIA2MNpwPMY/Obv9fm48oF7Oevaq01N6TjhUIhPX3hFa46jRp1BMCPDUEQinlp16Uynvnob0D/834uGotFXIzWN3AQ3DErLyOCcB8fgN7sMkQF8RqyZmbARSQCsdxwwFjC2BTiQlsbNzz/N8L+daWpKR5ry2Xi2btioPN6f4ue4888xGJGIN93TLdPHf53Q9sAHkx1ITXgS0K5/X8596F58Zu8tyAbGA91MTir0SAJgrSHEbtgylm5n5uQw5u3X6Dt8mKkpHeuLV1/XGn/oCcdp3z0vEqvX0MHUb95UeXwkHObLsdYdCdyX7EAqeamJ3YPS/ehhXPr0o6SkGV2GqEHsiGA7k5MKdZIAWKc/8CFgLL2vUTufBz4aR4fePU1N6Vjrl6/k56nTteY46ZILDEUjEsXj9XLixXq/b1+/9Q6hypChiMzIDAQSngR0PPxQrnrpGYJmW1/XInZEsJHJSYUaSQCs0RX4hNjamBH5DerzwIfjaNK2jakpHW382DeIRqPK4zv160OLTh0NRiQSZcjIU8mqUUN5/I7NW5j59USDEZmRGQgk/BKhlj0O4dq3XiGndr7JaRsBE4l1DhQWkgQg8ToQu9hH/RPqT+o3a8oDH71D/ebNTE3paJUVFUx4W+/on+63SGGd1GBQu2/DF2PfMBSNWVmBVHISfDqgfuuW/GPs8+SavQK7FbEvQXKzloUkAUisesDnGLw/u3HrVtz/4ThqN5TbOH8z9bPxFO7YoTy+TuNG9B422GBEItGOOW+U1ia22ZN+sNVmwL3lpKaRneAkoE6zplzz+gvUMLsnpifwPgb3QInqkQQgcTKIZbyNTU3YrEM77v/wbfLMZuaO98Vret/ejjr7DK3e8sJ6terVo+eQI5THRyMRvnz9LYMRmZVrQZ+A/CaNueb1F0x2CwQYCjxtckJRdfIplxheYkf9upuasGHLFtz95qtJ2d3vQNYtX8GCaTOUx/tT/AwZearBiIRVjhqldwz2qzfett1mwL3VSE0jM8ENvmo1asg/33iJ/MZG9/BdAFxnckJRNZIAJMYjxK72NeK3sn8NsxtzXOGr19/W2vzXd/hRUlFxiR5HDKROo4bK43du2cpP3+hdIhVvealBMhJ8d0Be/Xpc/dr/TFcC7sPgZ6SoGkkA4m80cJWpyRq0aMY948aSW8vYNgLXiEYifPfBx1pzHH3OWYaiEVbzeL0cedbpWnN8884HhqKJn7zUdIJmm/Yc/DXr1+PqV/9n8nSAF3gD6RaYUJIAxNfxwMOmJqvfvCn3vfcWeXXl9My+zJs8lW0b1Tv/NWzRnE79+hiMSFht2Jkj8aeoPxx//HoixQWFBiMyz+OBWmkZBHzGmolWSX7jRlz96nNk1TS2DBkEPgDUyzaiWiQBiJ9DiGW0Rv5U1qxXlzFvj5WH/wF8867et7XhfztL60pZYT81aufT50j1rpgV5eVM/tTaa4KrwuOB/LR0fAl+/9Zt0ZzRrzxHRm6uqSnrE7s8SI4HJoAkAPHRhNg1mEYa/WTn5XHPuLFa65luV15aytTPxyuPTwkEGDzyFIMRCbvQvRPjm3feNxRJfPm8XvLTM/AmOAlo0KYVV77wX1LT001N2Q14HXk+xZ38gM1LA94jduZfWzAzg7vefJlGrVqamM61pn3xFaW7i5XH9x42hCxz32KEjXQZ0I/8+up/HBfOmMnmNWsNRhQ/Aa+P/GC6uWtFq6hp545c9sxj+M2dSjgeeMDUZGLfJAEw7ykMHfcLpKZy+yvP06pLZxPTudq3muX/QSNOMhSJsBuP18vhp6hvMI9Go0x6/yODEcVXqs9PzTRj38arrE3fXvzt/rtM9tD4J3CuqcnEX0kCYNbFwHkmJvJ4vVz/9ON07t/XxHSutmvrNuZ8P1l5fE7NPLoPUm8aI+xv0IiTtcbr7i9JtPSUlIS3DAboeexwRtxi9Ej/f4FOJicUv5MEwJxewOOmJrvoX7fS9+gjTU3nat9/9AnhkHrDlsNOPF5rp7iwv8atW2lV0tb9upxf5/9sMKL4y0lNIz3BPQIAjvjbmQy98FxT06UD7wJZpiYUv5MEwIw84G3ASMp94iUXcMJF55uYKilM/kRvl/bg0/S+HQpnOOJUvT4zuu8zK9RMC5LiS/zH/EnXjaaLRivmP2kNvGBqMvE7SQD0/dbAoqmJyXoPG8IFt99sYqqksHPLVhbN/El5fKNWLWWPRZI4/OQTtSo9P3z8mcFoEsODh/xgBl5PYj/qPV4v5z18Lw3NXU8+Avi7qclEjCQA+u4BjNTq2/Y4hBufexJvght6ONnUz8cTjUSUx+uuDQvnyKmZR/cjDlcev2n1GlYuXGwuoATxe7zUCgYT3uMiNT2dy559jOz8WqamfAjobWoyIQmArpOAG0xMlN+gPre99ByBtDQT0yUNnbKsx+Ph8JNPMBiNsDud0wCAI5oC7Uuaz2/JpsC8+vW49OlHSUk18toBYkut0gfdEEkA1DUHXgb9I7dp6enc/srz5JrLlJNCwfYdLJj+o/L41t26ULthA4MRCbvrOeQIrSR7yqdfGIwmsbIDqaT7E78psFmXToy671+mKhBNgFeRZ5cR8kNU4wVeArJ1J/J4PIx+5AGad2yvH1WSmfrZeCLhsPL4AccdYzAa4QTBjAx6DD5cefzaZb+y+pel5gJKsJrBICnexC8x9jx2OEdfcbGp6Y4GbjQ1WTKTBEDNrcBhJiY685+jOeyEY01MlXSmfq7+bczj8dD/2OEGoxFOcahm4jfVwVWA2KbA9IS3CwY45qrL6H60+r0Mf3IX0N/UZMlKEoDq6w3cZmKi/scO54x/jjYxVdIp2rWL+VOmKY9v1bWz3K2QpHoOHaS1DDDZwQkAgN/rJS81mPDX9Xg8nHP/GJp06mBiOh/wCobuW0lWkgBUTwax9SftrjH1mzfl6kcelNvnFM38+htClerNfw49XqouySqYkUH3QQOVx69avISNq1YbjCjx0lNSyEwx1re/ylLSUrnkv/8hs4aRcJDKvQAAIABJREFUezdaAA+amChZSQJQPY8Sa0qhJS09nVtfeo70LLnxUtXMCd9oje8nXRaTmu4ywKxvJpkJxEI10qzZD1CjXl0uePQBvGYaFF0KyFqeIkkAqu4E4EITE11+3900aaOdRyStSDjMnO/Ue/+37taFuk0aG4xIOE2vYYO1lgF0E1A78ECsP0DC7w6Etv16M/xyI5sCPcDzxLqximqSBKBq6hF7k2k75txRDD5N7p3XsWjmTxTt2qU8vt/RRxmMRjhRMCODbocNUB7/85TplJWUGIzIGileHzXSEt8fAOCYKy+h3QAjl53VJ1adFdUkCcDBeYAXAe1D+q26dObiu2/XjyjJzZzwrdb4XkMHGYpEOFmvYYOVx1aUlzP3+ykGo7FOZkoqQX/iL8PyeL2c//C/yamdb2K6UYC09awmSQAO7iJA+ytjMDOD6595HL8Ft3O5jU75tU7jRjQx159cOFivIYO0NuHOnKiXiNpJzWA6Pgs2JGfm1eC8h+7F4zXyKHoGqG1iomQhCcCB1QXuMzHRFfeNoX6zpiamSmpb129g9ZJflMf3HjbEYDTCyfLq1qFFp47K43/8agLRaNRgRNbx4qFmWrolr92mby+OvMTI7af5wP9MTJQsJAE4sCeAGrqTDD7tFI449SQD4YgZX03QGt9ziJT/xe96aywD7Ni8hRULFhmMxlppfr8lRwMBjht9Oc27dTEx1fHElgNEFUgCsH/HA6fqTtKgRTMu+/ddBsIRALM01v+DmRl06ieXiYnf6ewDAJjlomUAgNzUNPwWLAV4fT7Of+Q+0jKN9PV5GDkVUCWSAOxbFvBf3Un8KX6uf/pxghnSrMqEUGUlP0+boTy+28BDSQlY8w1H2FOLTh3Jq1tHefzsSd8bjMZ6Xo+HvKA1SwE1G9Tn1JuuNTFVPvBvExO5nSQA+3YvoN0n9vSr/07Lzp0MhCMAFs+arXX0Stb/xZ95PB56DVWvAiz5aY4rjgPuLc3nJ9Oizcr9TzuZDgPVj2fu5ULAyBlDN5ME4K/6AJfrTtKqS2dGXHWFgXDEb+b9oH7syuPx0GPQ4cZiEe7Ra8gRymNDlZUsnD7TYDT2kJsaxOex5vFw1t23EdTvkuolVsVNfKtDB5EE4I/8wNNo/lxSAgH+8diD+FMSf7bWzeZ8r979r1mHduTma7dyEC7UuX8/rT+rcye7ox/A3rweD3kanRJ11KhXl1PMLAV0A+Rb2AFIAvBHNwJddSc55+br5ay5YaW7i/l13nzl8d0OO9RgNMJNgpkZtO6m/sdepzJlZ0F/ChkWnQroP+IkU0sBdxPrFCj2QRKA3zUBbtadpH2vHpx4sZEzrWIv86dO07r9r6tG21fhfjptgVcsXEzhjh0Go7GPGqlpeC26sfSsMbebWArIBh4yEI4rSQLwu/sBrUuyUwIB/v7Qv011tRJ70Wm7GkhNpWOfngajEW7TbaB6hSgaiTB/yjSD0diH1+MhN2DRUkDdOpx683UmpjoD0Dvv6VLypIrpA5ymO8nIq6+kcetWBsIRf6ZTZm3fu6fWzW/C/Vp360JGdpby+LkuXQYAyAwECFhwbTBAv1NPNLUU8DRgza1HNiYJQOyyn0f3/K+yJm3bMOLvl5mJSPzBjs1bWLN0mfL4bof1NxiNcCOf30+nfn2Ux7vlYqD9yQtqFUe1GFoKaAVcbSAcV5EEAM4CtNrDebxernzgHrnoJ04WTP9Rq+d6t4GHGYxGuJXOPpGNq1azbeNGg9HYS8Drs2xDYI26dTju6itNTHUTUNPERG6R7AlAkFjTHy3HnjuK9r16GAhH7MuiH2cpj83Oy6N5h3YGoxFupbMPAGDRDPX3qRNYuSFw4Fkjaaz/5zgHAxu93STZE4DrgEY6E+TWqsmoG/5pKByxL4t+VG+00rlfH9mUKaqkYYvmWm2BF838yWA09uP1eMhNtWYvjdfn5cy7b8Pr0/6zfCXQ3EBIrpDMn4z1get1Jzn/9pvJyMk2EI7Yl5Ki3axctER5fAfZ/S+qoWNv9feLTqLqFJkpAVK91jQ4a9KpAwNOO0V3mgBwh4FwXCGZE4B7AK1betr17M6gEScbCkfsy5JZs4mEw8rjO/TuZTAa4XYd+6pvB1q5aAnFhUUGo7Gn3DTrNtOf8M+ryKyRqzvN2YCRu4edLlkTgC7A33Qm8Pp8XHbvXXgsWhNLFotmqq+rZmRn0ax9W4PRCLfroFEBiITDLJk122A09pTq8xP0W1MFSM/J5rh/aG8I9CK3BQLJmwDcgeZ/+/BRZ9CiUwdD4Yj9WThDvazarkd3vD65C0RUXZM2rcnKVf+GqZOwOkluatCyLz8DTjuFBm1b604zHFC/BcolkjEB6AacqDNBRk42Z19/jaFwxP6EKkP8Mnuu8nidcq5ITh6vV+tEj07C6iQpXi8ZfmuOPXt9Xk67RXv7FsADaPZ/cbpkTADuRPM3/fTRV5Kdl2cmGrFfy39eQHlpqfJ4nXKuSF46G0d/mT2XUGWlwWjsKyeQisei52frPj3pMnSQ7jQ9gBEGwnGsZEsAugPH6UxQp3EjjrvwXDPRiANarLGeGkhLo1XXzgajEcmiYx/1ylFFWRnLf15oMBr78nm9ZAWsaQ4EcPL1/zCxxHc3kLTrhMmWANyJ5rf/c2+5gRQL3/TJZOkc9fJ/m25d5PdJKGnRqSNp6enK45fOnWcwGnvLDqRa1hyodtPG9D3lBN1pWgOnGgjHkZIpAegOHKMzQZtDunLo8VpTiGpYOkf9g7Rtj0MMRiKSiT/FT8vOHZXHL5s732A09ub1eMgOWHcs8NirLiNF/1jiTSTpXoBkSgDuQvM3+YLbb5Zjfwmyu6CATavXKI9v062rwWhEsmlzSDflsTqJqxNlBQL4LOq2mVunNoeerr2M34XYqYCkkywJQA80f4O7DxpIhz7SVCZRls6Zr3UBUJtDJAEQ6lofot4nZt3yFZQU7TYYjb158JBt0UVBAMMvv4i0DK2ebgC3mYjFaZIlAbgbjW//Ho9H+v0n2LJ56mXUWvXqafV0F0KnAhCNRFj+8wKD0dhfZiCAz6LqaGaNXI4450zdafoASXdtaDIkAJ2AI3Um6DN8GK26yI7yRNLaANhdvv0LPfn19ZLIZNoICLEqQKaFewGGXnguGTk5utPcZCIWJ0mGBOCf6Hz793o5659XGwxHVMVSjY1UrbtJm2+hr7XGMdKlc5JnI+BvslIClp0ICGZlMuTCc3SnOYrYZvGk4fYEoC5wus4Eh51wLM3kPvmE2rFpMzs2bVYeLxsAhQk6ywDLkqwCALETAZkW7gU44pwzyc6vpTvNjSZicQq3JwCXA8p1KY/Xy8irtS+eENWk8+3f6/PRsksng9GIZKVTSdq8dh0F23cYjMYZrOwLkBoMctSlF+pOczKQNDeIuTkBCAKX6kzQ56ihNGmjfemEqKblC9Q7qTVu3Yqg/o5gIWjVpTMejeNtydIRcG9ej4eMFGvuCAAYcNrJZNXUatPuBa4zFI7tuTkBGAXk60wwcvQVhkIR1bFy4SLlsXJDozAlIzuLek0aK49fuUj9fexk2SmplnXVSUlL5fBRZ+hOcwZQ00A4tufWBMADjNaZoPuggbLz3yIrFy1RHtu8Q3uDkYhk17yjekKp8z52Mp/XS4aFewEGnj2S1GBQZ4ogcK6ZaOzNrQnAUYDWk2DkVfLt3wqlu4vZvGat8vjmHSUBEOY019gAvGrRYoOROEumhfdwZOTk0Ef/joDLcO/z8f+59T9Q69xeu57dpeufRVYv+UWrA6Cc2BAmNddYUlq7bHnSXA38ZwGvj1Sf37LXH3L+KLw+rcdbC2CooXBsy40JQHs0f+NOvOQCQ6GI6tIpm+Y3qE9Wbq7BaESya6GxpBSqrGTtsuUGo3EWK68KrtWoIV2HDdGd5jITsdiZGxOAC9Bo/FO7YQP6HjXMYDiiOlZqlE1lA6AwLa9uHXI1zpbrbGh1uqDPj9/Cy9OGXXSu7hTHAk21A7ExtyUAAeBsnQlOuOh8fH7rSlfJTicB0NmwJcT+6OwDWLk4OTcCQuwOFSvbAzfp1IFWPbUa+/kA7cYCdua2BOA4oLbq4GBmBkPPOM1gOKI6otEoq39Zqjy+eXtZ/xfmNe/YUXlsMm8EBMhICVh2JBBgqH4V4GI0msnZndu+6mot3vceNoSinTsp2rnTVDyiGnZs3kJxQaHy+PTsLDatXmMwIiEgt5b6kfAVCxcn/Xtyd3kZpSFrNkPWbdGMGvXqsnPjJtUp8oGTgLfMRWUfViZnpjUAVhMr2wghhBAmfA8MtDqIeHDTEsB5yMNfCCGEWYcBruwJ75YEwEOSdG4SQgiRcFq3ytqVWxKAI4g1bhBCCCFMG2V1APHglgRAOvcIIYSIl5aA1plCO3JDApBNbJemEEIIES9nWR2AaW5IAI4jdnuTEEIIES+n47KN5m5IAE61OgAhhBCuV4/YfjPXcHoCkAkcaXUQQgghksKZVgdgktMTACn/CyGESJRTcNEzx+kJgJT/hRBCJEo2cIzVQZji5AQgAzjK6iCEEEIkFdcsAzg5ATgGSLc6CCGEEEnlSFyyDODkBEDK/0IIIRItHTjc6iBMcOp1wOnA0aqDU4NBatTONxiO0FFcWKR8BbP8XopE2rx2HdFIRGlsXt06BFJde7V8tUSJEo5ELY1h+7r1RKPKMRwLfGEwHEs49TrgE4EPVAefeuVlnHfrDQbDETrGPvAf3vzP40pjDz/5BK576jHDEQmxbxf2GcjGVauVxt7x2gv0GjrYcETOtaG4iJBiMmXCvSeMZO2iJarDVwNNzUVjDacuAQzXGdx3+DBTcQgDtqxbrzy2dsMGBiMR4sDyG9RXHrt1/UaDkThf0G9tAbrLEK2ePk2AToZCsYxTE4ChqgNz82vRplsXk7EITVvXb1Aem99AEgCRODoJwLYN6u9zN0r3p1j6+l2Gajf1O9ZEHFZyYgLQBmimOrjf0Ufi8TrxP9u9dBKA2o0kARCJU7tRQ+WxOu9zN0r1+fF5rFuFbti2DbX0KoiO7wfgxCehVv2+z5FS/reTaDTK9o2blMfrfCMTorpqay0BSALwZ0GLqwCd9ZYB+gC1DIViCScmAMq9/4OZGXQe0NdkLELTrq3bqCgvVx5fW5YARAJp7QHYIHsA/izoc/Q+AB+a+9Gs5rQEIAAMVB3cc8ggUgIBg+EIXVs11kWzcnMJZmYYjEaIA6vdUH0JYPvGjcpHCN0q1e/HysNoLXscQmaNXJ0pHL0M4LQEYACxGwCV9B42xGAowoRtGjuj8xtK+V8kVn6DengU161DlSF2btlqOCJn83o8BHzWPYa8Pi8dBg7QmeJIYpUAR3JaAqBc/vd4PHQ9TOs3WsTBFp0NgHIEUCRYIC2NnJp5yuNlGeCv0ixeBmg/oJ/O8FzAscfKnJYAKO/ga96xPbm1apqMRRigczRKpxwrhCqd953OkpdbpVncD6Bt/z7KVZ09DjMVS6I5KQGog0am1fVQ+fZvRzrNUfLr1zMYiRBVo1N52rpOEoA/S/P5dR/AWrJr1aR+m1Y6U0gCkAAD0Ngt0k1vnUfEydb1Gl0AG0sFQCSezt4TqQDsW6rP2mX0dv166ww/FIe21XdSAqB8fi+QmkqH3j1NxiIM0WoCJEcAhQX0ugHKHoB9sfo4YNt+fXSG1wLaGQoloZIiAWjfuyeBtDSTsQgDQpWV7Ny6TXm8bAIUVtBJPKUZ0L6l+axtCNSqVw/8ekfEDzUVSyI5JQFIAbqpDu52WH+DoQhTtm/cpHwuOiUQIEc2dQoL6LSflgRg31J8XrwW7gMIBNNo3q2zzhSSAMTRIUBQdXDn/lrHPEScbN+0WXlsrfrq57GF0FGznvrm013bthMOhQxG4x6pXmv3AWguAyg3qLOSUxIA5Sd4IC2N5h3bm4xFGFKwbbvy2Nx8R7fgFg6Wk1cDr+KmtWgkQtHOXYYjcgerNwK2OKSrzvCGaFxSZxWnJADK6/9tunXBn2Lt+pLYt4LtGgmAlP+FRTxeL9ka7WN13vdulmLxRsAmXToqJ3Z7OO44oFMSAOUzGm17HGIyDmFQocY3oew89W5sQujKqamegBZs32EwEvewugKQGgzSsG1rnSkcd9bcCQlAfaCx6uB2PbsbDEWYtGub+gkAWQIQVtLZgFq4QxKAffF6PKR4rX0kNddbBnDct00nJADKW/g9Hg9tuzvu9yRpFGp8E9Lpxy6ELqkAxIfVVQDNkwAdiJ1YcwwnJADKX+HrN28qDwobK9y5U3msLAEIK+nsQdHZ/Op2Aa+1+wA0KwCpQFtDoSSEExKATqoD2/fsYTIOYdiureofhDVkCUBYSOeLReEO9cTX7QIWVwBqNqhPbp3aOlM46mZAJyQAHVQHtuqqVc4RcVYkFQDhUDm11BNQOQWwfyler+X9PZp26agzXKuEkGh2TwBy0NgA2LyDnP+3s13SB0A4lE4FQPYA7J/HBhsBG7bTquJLBcCgjijesuTxeGjSto3hcIQpZSUlVJSVKY31eDxSARCW0jkFIAnAgQUs7gioeRRQuWW9FZyQACip17QJ6VmZJmMRBul8CGbm5OBPsXazkEhuWpsAZQnggKyvAGh9cawJOOaWMtcmAM06OPJ2xqSh8yEoJzuE1XQqAEU7dxKNRg1G4y4pFlcA8urXIz0nW2cKx+wDcG8C0F4SADvT2QmtswFLCBN0qlChyhAlhUWGI3KPFJ+1jyWPx0ODNlrLAJIAGCIJgEvpNAHKrlnDYCRCVJ/H4yGrhvr7UJYB9s/nsfZqYNDeB+CY42d2TgDqAcpf9eQGQHvTOQEgPQCEHejtA5CNgAfid/Y+AMc0A7JzAqB8/j8tPZ38BvVNxiIMKy4sVB6bmZNjMBIh1OhUAHYXFBiMxH2sPgnQoHUrneEtUTy9lmh2TgCaqw6s16yJ5c0kxIGVFhcrj03PyjIYiRBqghkZymNLi0sMRuI+fosTgNpNldvPAKTjkJMAdk4AmqgObNCsmck4RByU7lZPAIKZ6h+8Qpii8z4s00iAk0HA4iWAYHYWmTVydabQKiEkiisTgPrNmxoMQ8SDzgegzjcvIUzRSQBKNBLgZOCzOAEAyG+iVQWQBECTcgJQr1lTc1GIuNApgUoCIOwgmKneaEwqAAdmdTMggDrNlB9BENsHYHvW/5T3r6nqwAbNZQnA7kp371YeK0sAwg6C6enKY2UPwMFZXQXQrABoZQ+JYtcEIIXYMUAlkgDYn1YFQOOblxCmSAUgvvwWb+TOb9JIZ7gkABoaAUrbQIOZGXJTnAOUFmtUADLUv3kJYYrO+1DnFEyy8HmsfTzVlgqAZZR/8nUaaWVtIkHKSkqVx6bJHgBhAzrHUUs0lsCShdXNgPIbaz1L6gBphkKJG7smAE1VB9aqV9dgGCJedPYAyC2Pwg7SNCoA5SWyB+BgrN4DkJ6TTWowqDrcQ6ySbWuuSwDy6tYxGIaIh2g0qlUBkFMAwg509gDIMcCDs3oPAEB27Xyd4Q1NxREvdk0AlLso1dD7DRMJUF5aSjQSURqbEgjgT0kxHJEQ1ZeucRpFpxFWsrB6CQAgV+95YvtytPU/4X1T3sVXs67tf+ZJT68LoJT/hT2kpUsnwHiyehMgQE4drQTA9uVo63/C+6Z8zVZNWQKwPa0eAHICQNiETj8K6QNwcFZfCQyQW6e2znDbP4xclwDk1dX6DRMJID0AhBvIXQDx57M4CcjJlyUAKyjfs5mnl7GJBNC6B0C6AAqbSEtPx6O4Tl1RXk6oMmQ4IvfxWrwMoLkEIAmAojzVgbm1ZBOg3ZWXlimPTdNovyqESR6PhzT1Y2KUl6qfhEkWVi8DaG4CVH6OJYodE4AsIFVlYDAjA3+K33A4wrRQqFJ5rJwAEHbi86t/3kTCUgE4GK/F2wCC2erNnpAEQIny+n9GdrbJOESchENh5bE+v1KHaCHiQuf9KEsAB2f1HoD0LK1nivJSdqK4KwHIkQTACcIa33x0vnEJYZrO+1Hnz0Gy8Fi8B0CzApBLrCOgbdkxAVAum2To/WaJBAlrfPPx+aQCIOxDKwHQqIQlC6v3AKRlqG/0JHahna0fSu5KADQu5xCJEwnrLAFIBUDYh86elHBIKgAH47P4C7TH6yVN7+SRrZcB7JgAKD/F06UC4AhhjQTAKxUAYSM6FSlJAA7Oa/UuQCCod/mYrc8t2zEBUDoBAJCZk2MyDhEnoUo5BSDcQe8UgCwBHIz1j3/tjYDq50QTwI4JQEB1oFwT6wyRsNpFQABenx3fsiJZ+TSOHcspgKqwPgWQCkBiKVcAUlKVh4oECuv0AfBLBUDYh9ersQQgpwAOygYrAPgDyt9JQSoA1ab80/bLBjFH0Nn97JU+AMJGdBqPReQUQBVYnwHoVHmQCkC1KX/FkyYxziCnAIRb6B0DlArAwdjgQkD8Aa2qY5qpOOLBjgmAegUgRatUIxIkpPHBJ1UeYSc6p1J0TsMkD+szAK9P6zPH1t9KXZUAaJZqRILofPORCoCwE+kDEF92eEBpnjyy9QeWHX6+f6a8k082iDmDVh8A9a5cQhin1QdAKgAHZf33f+0vHVIBqCb1JQC9tRqRIBGdCoD0ARA2InsA3E+zsiwVgGpSXwKQLnGOILcBCrfQeTjo3ImRNGywC1DzS4ckANVk/e+4iC+dP9TRqLk4hNAU1Xg/emzwcBNVoPeZo971LAHsmAAop8U6u8tF4uh8i5cb1ISd6Jzll54WVWF9wq+5VGPrh5IdEwDlP1FSUnMGWTcVbhGSrpZxZYeCn+ZzRf0NkgB2TAA0KgC2/lmLPXR28kcitq6oiSQj+1ncT/NLh60fSnZMAKQC4HI6FQCdmwSFME16WsSXHSoAmp85tv7AsmMCIBUAl9Pp5idnp4Wd6CQAOl0Ek0XEY33FTyoAiaX8AwtV2PpnLfaQo1PCLeReizizQQUgrFcBsPUHlh0TgGLVgfLt0Bl0vvnofOAKYVpIIyHVuUkwWdjg+S8VgARTTgAqSstMxiHiRGf3syzzCDsJhzX2AOhdMpMcbJABhMordIbb+qHkqgSguKjQZBwiTrw+9bed9AEQdqKzJCV9AA4uaoMMoKRQ67lSYCqOeHBXAlAgCYATSB8A4RY6FQDpA3Bw1j/+obRot85wWz+U3JUAFBWZjEPEic6dDbIHQNiJ9AGIr7ANzgGW6j1XJAGoJuV0q7hQEgAn0LlcQ2fTlRCmSR+A+LK68Vc0EqGsuERnCls/lOyYAOxUHShLAM6gVQGISAVA2IdWAiB9AA4qYvEiQNnuYqLqSUgFUGowHOPsmADsUB0oSwDOIHsAhFtoJQB618wmhYjFKwBuXv8HtyUAUgFwBK3bAGUJQNiIzg2ksgfg4CIW7wFw8/o/2DMB2Ini5s/y0lIqK7TObIoE8Gt886mUuwCEjegkpLIH4ODCUWv3AGgeAVRezk4UOyYAYTTOTu7cstVgKCIeghkZymPLipUPiQhhVDQSobxUbYnX4/WSFgwajsh9ohZXAHbpPU82moojXuyYAIDGMsCOTZtNxiHiIJipngCU7pYEQNhDWUmp8gMqLRjEo3EtdrIIW7wHoHDrNp3hW0zFES92fQcqP8W3SwJge2kaFYBSqQAImyjdrb5BTCcJTiZWdwLctVnrGS4VAEUbVAfu2CwJgN0FM9KVx0oFQNhFiUYyKgnAwUWiUcuXAAq2aFUAbP8wcmECYPuqS9ILZmYqjy0t1jqWI4QxOhWAtHRJAA4mZHETIICCLVrPE0kAFCmXTmQJwP5SAgHlq1BDlSE56SFsQadDXLpUAA4qZIM2wJqbADeZiiNe7JoAKFcAduplbCJBdL4B6XzzEsKUEp0KgMY+mGQRtkHXz0K9JQBJABQpJwDbN0oFwAnSszSWAWQfgLABnfehzj6YZBGyuAdAWXGx7rFj2QSoaJ3qwE1r1lq+cUQcnE4vgBJJAIQN6DwcdPbBJAurlwC2rVF+DAFsw+YXAYF9E4BVaHQDlF4A9pem8Q1ImgEJOyjR6BMvpwAOLhy2tgKwZfUaneErTcURT3ZNAErR2EG5YdVqg6GIeNA6CSAVAGEDpSXqmwB1KmDJwuo2wFtXr9UZLgmAJuUf4IYVjvjZJzWdNdASOQoobEAaAcVPlChhi5cAtq6RBMBKyj/AjVIBsD2pAAin03kfSh+AAwtbfQ8wsFWWACylngCslATA7nQqALIHQNiBTltq6QNwYJU2OAIoSwDWWq46cP1KR/zsk1owQ70CoLP5SghTdBoBSR+AA6u0uAtgZVm5bhOgVYZCiSs7JwBLVAduXLlajgLanM4aqBwDFHZQUqR+ykv2AByY1QnA1jVriarHEEISAG2LVQeWlZSwWW8Dh4iz7Lw85bFFO3cajEQINYU71N+HOTVrGozEfSrD1i4BrP9lqc7wZYAj+pXbOQHYhcZRwJULlfMHkQA5NdUTgF3bthuMRAg1u7apt4nVef8ng0qLjwCuW7JMZ/hCU3HEm50TANCoAqxcJAmAneXUUv8GVLBdEgBhrUg4TNGuAqWxHo+H7LwahiNyj1AkYvkS7volv+gMlwTAEOV9ACskAbA1nW9ABVIBEBYr2lVARLFMnZ6dhT8lxXBE7mGHEwDrFmslAItMxRFvdk8AlH+QqxYp5w4iAXT2AEgFQFhN5z2Yo/HeTwZWbwDcvXMXBVu1bgGUBMCQeaoDN61eI8fFbCy7Ri5en09pbEnRbirKyw1HJETV7dJ4QOgsfyUDqxMAzW//lYDWDsJEsnsCMBfFS4Gi0Sir9dZxRBx5vF6ycnOUxxds32EwGiGqR6sCIBsAD6jC4hMA65YkxwkAsH8CUIhGR6UVCx1TiUlKOkehCmUZQFhI5wigzvKX20WBkMV7ADQ3AM43FUci2D0BgFgVQMkvs5WHigTQOgq4VRIAYZ2dGksAubIEsF8V4bBFJoW5AAAgAElEQVRaydegFXO1nuEzTcWRCE5IAJT3ASye9ZPJOIRhOhUA2QgorKRTgZImQPtXEQ5Z+vrFu3axdZXWJUCSABg2R3XgxpWrZa3YxnJq6ZwEkN9XYZ2CbervP+kBsH/lFq//r5z7s04PgggazysrOCEBmKE6MBqNsuSn2SZjEQZlSwVAOJROF8DcWrUMRuIuFRav/y/XWzZeDDjq6JkTEoAtaGwEXDJLEgC7kmZAwql02lHrVL7cLByNErL4COCKOcorzuCw8j84IwEAmK46cLEkALaltwdAlgCEdXTefzqVLzez+vhfJBxh9XytLr6O23TmlARAeRlg2dz5hEPWbiwR+6Z3IZBWpy4hlIVDIXYXqN0DALEmWOKvyi3eALhh6TLKS0p0pphlKpZEcUoCoFwBKCspkX4ANqVzHEpuBBRWKdyxU/mu+GBGBqnBoOGI3MHqCsDyn7T275XisA2A4JwEYC5Qpjp43uSpBkMRptSqV0957PaNm5Q/hIXQsXXDBuWxteqrv+fdLBqNUh6xtgKwZJpyoRliVWrH9Sd3SgJQDvyoOnjeD1MMhiJMycjJJj0rU2lsqLKSnVu2Go5IiIPbsm698tjajRoYjMQ9KiMRrLwBOBKOsHSGVgX/O1OxJJJTEgDQ+AEvmPYjFWXKBQQRR/kN1D8QdT6IhVC1dZ16BSC/fn2DkbhHaajS0tdfvWAhJQWFOlNIAhBnyj/givJyOQ1gU/kaJdEt69U/iIVQtVXjfSdLAPtm9QbAJVOm6QyvQGOjupWclABMQ+OWpbnfTzYYijAlv6H6N6It69YZjESIqtF539VuKEsAfxaNRi3vALh4itbzeyagdXzAKk5KAErQaLQw93vZB2BHOiVRnVKsEKq2aLzvpALwV2URay8AqigtY6XeBUCOLP+DsxIAgEmqA3/9eQFFu3YZDEWYkN9ApwIgewBE4uksAegseblVmcXr/8t+nEWoQrm4DPC9qVgSzWkJwNeqAyPhsCwD2JBOArB1vSQAIrHKS0sp3KHWBdDj8UgFYB/KQtaW/xdN1lr/LwN+MBRKwjktAZgKKG/VnPHlBIOhCBO0KgCyCVAkmE7VKadWTQJpaQajcb5INEqlxRcAzZ/wrc7w73Do+j84LwGoRGMZ4MevJxKqtLbcJP6oVv16eLxqb8PigkKKC4sMRyTE/skRQLOsPv63fslStuktJY43FYsVnJYAAHypOrC4sIgF05X7CYk48KekUCNf/XpUWQYQiaRzAkDnxItblVl8/G/exEm6U0gCkGBf6AyePl55G4GIE9kIKJxCZ9lJ533uRtEolFp8Uds8vfL/KmCJmUis4cQEYCWwTHXw9PFfEbWy56T4C+kGKJxi24aNymN17r5wo7JIiIiFn8U7N21m7cLFOlM4+ts/ODMBAPhYdeDW9RtYsUDrzmdhWG2N0ujW9eofyEJU15a1Ok2ApAKwt1KL92PNn/Ct7pdBSQAs8pHO4GmyDGArOkejpBugSCSdJYBasgnwD6zeAKi5/l8GfGMmEut4rA5AkQ/YCORbHYgQQoik8zFwgtVB6HJqBSAMfGZ1EEIIIZLSe1YHYIJTEwDQXAYQQgghFFQCn1odhAlOTgC+xsEdmIQQQjjSN4BaP2ibcXICUIwsAwghhEisd60OwBQnJwAAb1sdgBBCiKQRRuMYut04PQH4HJBm8EIIIRLhB2CL1UGY4vQEoBT4xOoghBBCJIU3rQ7AJKcnACDLAEIIIeKvDBhndRAmuSEB+BKX7MgUQghhW58Cu6wOwiQ3JADlSBVACCFEfL1qdQCmObUV8J/1BqZbHYQQQghX2go0INYEyDXcUAEAmIHD72UWQghhW2/isoc/uCcBABeWZ4QQQtjCa1YHEA9uWQIAaAisxl1JjRBCCGstAjpYHUQ8+K0OwKB1xE4EDFedYOToK/jbTdeZi0hUS3lpKae27EgkHFYa/+yUb2jYornhqESym/D2uzwy+lqlsc06tOPJiV8YjshZtpaWUBqyrnr+8Bnn8uusOTpTPGMqFrtx27flZ3UGf/byWMpK5H4hq6QGg9Rv2kR5/PL5CwxGI0TM8p8XKo9t3qG9wUicJxSNUBoKWfb6q+cv1H34lwJjDYVjO25LAD4F1qgO3l1QwMRx7xsMR1RX847qH5g6H9RC7I8kAOp2V1QAUcte/6vnX9ad4g1gp34k9uS2BCAMvKQzwYfPPU80EjEUjqiuZhofmMsXSAIgzIpGo6xctEh5vE5C63RRouyurLDs9bev38DcrybqTuPa8j+4LwGA2DKA8oLThhWr+HHCNwbDEdXRrEM75bG/zvuZaNS6bxvCfTasWEVJ0W7l8U3btTEYjbOUVFYSsfDP48QXX1PeT7THHGCWoXBsyY0JwEbgM50JPnz2BUOhiOpqoVEB2F1QwNb1GwxGI5KdTlUpv349svPyDEbjLEUV1n37LykoZOq7H+pO818TsdiZGxMAgMd1Bs+fMo0VC9TLfkJdXt065NRU/9CUfQDCJK31/46uPDlWJeWhEBURrW/fWia//S7lehu6dwFvGQrHttyaAHwLzNWZ4J0nnzYUiqgunQ9O2QcgTPp1/s/KY5t3St4EoMjCtf9wKMSk17Sf3c8BxQbCsTW3JgCgWQX44ePPWP3LUlOxiGrQ2QcgRwGFSTqVwObt1d/HTlYZiVBi4bn/ae99xM5Nm3WmqASeNBSOrbk5AXgD2KQ6OBqJ8O6Trt4Aals6H5xSARCmbFm3nsId6jeNJ+sJgMLyMsteOxwK8eUz2nu43gLWGgjH9tycAJSj2Rho0vsfsX75SkPhiKrS+eDcvnETu7ZuMxiNSFY61aT0rEzqNG5kMBpnCEejFFv47X/qux+ybd163WkeMRGLE7g5AQB4mlgnJyWRcJh3nnjKYDiiKhq2bEEgNVV5vGwEFCYsX6he/m/Wvh0ej5uuWqmaAgu//YcqKxn/9PO600wkdvwvKbg9AdgMvKwzwbfvfcDmNUlRDbINn99P4zatlcfLMoAwQacCkIwnAMLRKMUWbv6b+s4H7NiwUXeah0zE4hRuTwAAHgSUm1GHKkOMe1yqAImm1RJYNgIKA3QSyeYaG1mdqrCi3LKmv6GKCsbrr/0vIHahXNJIhgRgJZrnOSe8/Q4bVshegERq272b8thfZidNBU/EydYNG9m+UXkPMW0O6WowGvuLRKPsriy37PWnvPMBOzV+v/Z4ACsvLrBAMiQAAPej8Rsbqgzxyr+TqjJkubY9DlEeu3XDRrbobwQSSWzRjJnKYzOys2jcupXBaOwrGo2yec1a5v00m8VTpvPrrNlsWbWGyvLEJQOhigoTO/+XETs5llT8VgeQIAuAT4DjVSeY8unnLJ07j9Zdu5iLSuxX41YtycjOoriwSGn8whkzqd2wgeGoRLJY9KN6C/jW3bri8br3u9W2jRuZ8ukXTB//Nb/O/3mfdyX4/H6adulI27696XfqSeQ1qBe3eL599Q3dc/8AY4hdJpdU3Psu/au70agCRKNRXh5zv8FwxIF4vF6tMurima6+w0PE2SKN949O9crOVi1ewoOXj+a8HgN47ra7mD9l2n4vSgqHQiz/aS6fPfkstw0+mueuuIYtq5Rvat+v3Tt38YX+zv9lwOsGwnGcZEoAZhGrAiibN3kqs7/93lA44mDa9uiuPFbnG5xIbsWFRaxa/Ivy+Hbd3ZUAVJSV8cK/7uHvQ45h0vsfVfuGvUg4wpyvJjLm2FMZ/7TZ69Y/e+IZShWrhHtJym//kFwJAMCdaG7yePne+42+gcX+tT1EfSPgqiVLKS4oNBiNSBa//DRH+RpZj9dLm+7u2QC4ec1arhp6LO8//T/dq3WpLC/no/88wf+uus7IHoHNK1fxw5vv6E7zK0m49v+bZEsA5gAf6Eyw/OeFfPue9jWTogradu+mvJYajURYNOsnwxGJZKBT/m/UsgWZOTkGo7HO8p8XcM0xJ7F22a9G553z5QQeP/dS3dv6eP/+RwiHlE94/2YMGsfEnS7ZEgCIVQG0vsK/dM/9lBa7/qIoy2XkZNOoZQvl8YtnSgIgqm+hxgkAt6z/b1m3njvOOi9ubbV/nTWbpy7+OxWlap0Dl06fyfyJk3TD+IUkXfv/TTImAD8D43Qm2LFpM289khSXRVlOpx+AzlEukZxClSGWzpmnPL6dCxKAUGUld51zITu3bI3r6yydMYtnLr+aUEX1ugdGIxHeNXMs+2aS+Ns/JGcCAHAroNWz8sNnn5fmQAmg843qlznzCFVadzGJcJ4VCxZSplGadkMF4J0nnmblwsUJea3Fk6fxv6uuq1Ypf/oHH7N20RLdl56G5nKwGyRrArAczZsCQ5WVPHf73YbCEfuj84FaUVbGr9IWWFSDzukR3SUrO9i2cSPjHvtvQl9z/sRJvHjNTUTCB1+ZLS4o4P0HHjXxsteTZF3/9iVZEwCAuwCtbeIzJ3zDzAnfGApH7Evj1q20NlXJMoCojoU/aqz/a2xatYvPXx5LRQK7+P1m9hdf8eqNtx30hNUHDzzK7h07dV/uQ2Cy7iRu4Ox3q55txC4K0vLc7XdRWc01LFF1Ho9H61iVzo5ukXx0KgA6x1btIBIO8+Ubb1v2+jM+/JQ3bh9DNLrvL+bLf5rL1He0q/YhYmv/guROAAAeATboTLBhxSrekdsC46pz/77KYxdMn6l9flkkh7XLftXa9d6pXx+D0STeioWL4rbrv6omv/0e74x54C9/PxwK8eYd+08OquElIDEbHBwg2ROAYuAm3UnGPf4Ua5YuMxCO2JcuA/opjy3auVP2AYgqmT1JvctnajDo+A2AP0+dYXUIQKy3/wcPPvaHv/fNy2NZ/4v2Z2wRcIfuJG6S7AkAwGtorgdVVlTw2D+ulw6BcdKiYweycnOVx+t8sIvkodPmu0PvHqQEAgajSbx1vy63OoT/99VzL/LZk7F92js2bOSzJ7T2bP/mbmCjiYncQhKA2E7Qf6LZHGjJT3P4/NWk7ikRN16fj479eiuPlwRAHExlRQU/T1P/Btzl0P4Go7FG0a5dymPbtGrGiBOPxGtwE+Snjz3FV/97ibfvuk+7ayCwBHjsoP9WkpEEIOZH4FXdSV6+5362bZQEMx66anzALvlpjvK1wiI5LJwxk/LSUuXxOu9Pu9i9q0B57ENjrmPcK4/w5EO34vF4jMX0wQOPmuj4B3AVmr1f3EgSgN/dCKj/CQBKinbz5HW3GApH7E1nH0A4FGL+lGkGoxFuo1P+z8rNpUXHDgajsYbOZtmszAwALrvgdB75942mQjLlPeBrq4OwI0kAfrcZ+JfuJDMnfMP3H2rdOiz2oVGrluTVraM8fvak7wxGI9xm9nfqCUDnAX0df/4fAI1v7tG9euqMvmwUY24bbSIiE0qILfGKfXDBu9aox4ndGKjlyRtuYesGWQowrYvGccCfvpEEQOzbzi1bWaXRWrbLAOeX/0275dpLuOXaS6wOA+A+YLXVQdiVJAB/FAYuQ3NDYHFBIY9fc72JM6tiLzobrTavXSd3N4h9mj3pe60/q25Y/we01u739fMbc9torrnyXI2ItC3FQLM3N5ME4K9moHlPAMDsST/w6Uva+wrFXnQ/aGd/94OhSISb6JwSqVmvLg1aNDMYjbs8NOY6Lr/wDCteOgpcDqjdN5wkJAHYtxvR7BAI8OK/7mX1L0sNhCMA8hvUp36zpsrjZ0+SBED8UTQSYe736m1Auh02wGA01tKrAOx/zicfupWLzhmhPLei/wETE/2iTiMJwL4VAlfrTlJRXs6jo6t31aU4sC6Hqp8GmD9lqlwPLP5g+YKF7Nq2XXm8W8r/YH4JYO95n37kds449Rjl+atpA7Hb/sRBSAKwf+8QOz6iZencebz5n8cNhCMAuh9xuPLY0t3FLJ75k7lghOPpVIU8Ho/W8VTbiVMCAODz+Xj12fs46bghyq9RDVeieaQ7WUgCcGCXAVt1J3nr0SeZI+vPRhxy+P+1d97hUVbZH//MZNIbJfQaWuhVighKUQEFaYqIgl0Qde2uuurP3bWsrmVVFATELggivUrvvXcIvSek92Rmfn+8RENImXnvfd+ZSe7nefLsmsw99+ZlMvfcc8/5nu4EBgfrHr9piSoHVvzFxkVLdI9t2KqlUGmqt2F3GitlbrP5MW3Kx/Tv28PIaX4DhFsGlheUA1AyccDzokacDgcfPfUcCRcvSVhS+SYwOFioO+D6eQtVdYYCgPgLFzi6a4/u8V36mHKaNYU8h4M8E3qZBAT489sP/6PvrYbkTiQj4eq2PKEcgNL5GRBW9kmKv8JHTz+vWtNKoPPt+j94485f4Ohu/R/6irLDhgWLhZzBTgLvQ2/C6XQSn5Vh6BVAQQIDA/jtx8/odqP07onpgG93ZDIZ5QC4xhhAf6bQVXav28DUT7+QsJzyTafbegklLG1YsFjiahS+isj7oErNGjRo2VziajxHck42OYIHE3cdqdCQYBbMmEDH9i2F5i1ETbTM/zoyjZZllAPgGueBx2UYmvrJ5yofQJDKNarTsJX+D471CxZJXI3CF0mKi2f/lm26x3fpe7vUpjeeIstuJyXHMz1yIsLDWDr7Gzq0ldpHIRpYAdSQabSsohwA15mFhI6BToeDj55+XuUDCCJy/3r++ElOHtQv/arwfTYtXip0HVcWwv92p5MrWRlwVcffqDLAkqgQGc6imV/TvGlD3XMXQSO05j9RMo2WRZQD4B5PAcdEjSTFxfPPUY+Rk6VEqvQi+gG8Xl0DlGtEokAh4WG0vqmLxNV4hoSsTOwmJP6VRpWoSqyY9x1NmzSQabYFsAyoJNNoWUM5AO6RBjyE1jNAiGN79vLFy68LL6i80rBVC6rWrqV7/Pr56hqgvJKenMKe9Zt0j7+hVw9s/v7yFuQBUnJyyMy7VhTLCCVAV6lWtTJ/zJlMdL3aYoaupQ2wEAiXabQsoRwA91mP1mFKmBUzfmfu5G9lmCqXdLy1p+6xpw4d5lysag5UHtm05A8hRchOt/WWuBrzyXbkkZydef0PPHAFUJDaNavzx5xvqFVTqrZCZ2ABECLTaFlBOQD6eBuQksk3+e132b1ugwxT5Q7xawAVBSiPiER/rH5+3NC7h7zFmIzD6eRKRgbeqoTRMLoOK+d/R43qVWSa7Q7MBYJkGi0LKAdAH3nACCBe1JA9L4//PPE0l06fEV9VOaNNt64Eh4bqHq/KAcsfmenpQlU4LTp3JLxiRYkrMg+n00l8Zjp5xZzWPZEEWBSNG9Zjye+TqFypgjSbQG80lUClE1AA5QDo5yxaPoDwOz8lIYF/P/Q4mWnpwosqT/gHBNDpdv3h2GN79nL57DmJK1J4O9uWryQnO1v3+C59bpO4GnNJys4iyyAhMtnqmq1aNGHJrElUiJR6fX8n8Atgk2nUl1EOgBgLgI9lGDpx4BDvPzFWdQ50k1sGDdA91ul0smb2XImrUXg7q36fo3usxWLhxjv6SFyNeaTn5pCa65l6f710aNuCRTMnEh6mP8pXBEOBqYCfTKO+inIAxHkdLTFQmO0rVvPl39+QYarc0KFXD8IiI3WPXzFD9Q0pL6QmJrJt+Srd41t07ki1OlKz1E0hx24nwYWSY2+5AihIl45tmPvrl4QES72+vxv4GvB9JSdBlAMgTi6aVykllrzk52n8+r9xMkyVC2z+/tzUv5/u8acOHyF2736JK1J4K6tnzxPK/u85dJDE1ZiD/eq9v9Nr0/5Kp0e3TsyZ9iVBQYEyzT4KfEE5dwKUAyCHS8A9gJQY248ffMzy6TNlmCoX3DL4LqHxK377XdJKFN7Mihn6/51t/jYhR9MTOJ0Qn5lRbNJfYbxZ2vjWHjcy6+cvCAyUmsP3FPCJTIO+hnIA5LEReFGGIafTyecv/p1da9bJMFfmad21C5VrVNc9ftXM2Sr3ooxz/sRJjuzcrXt8h149fS77PzEnk2y7Oe9rM1ps9721G79M/i82m9Tr++eAf8o06EsoB0Au44AfZRjKy83jvcfHcnzfARnmyjQWq5Vu/e/QPT4p/go7lbNVplkx43ehTarHkIESV2M8ydlZpLnZ5Mdi1b8dmLD/AzDkrtuY8uW7WAXWWgRvAa/KNOgrKAdAPqOBrTIMpSen8ObwkZw9FivDXJlG9Brgj1+mS1qJwttw2O0smzZD9/jgsFA6C5Sbmk1Gbi7JOfpLHfVgRgQgn5HD72L8p2/JvrJ4H3hWpkFfQDkA8skEBgJSlH2S4q/w+j33K6GgUohp35aaDerrHr9pyR8kxV+RtyCF17B91Rrizl/QPb7rHX0JDA6WuCLjyLbnXe3wZzIm5w888dAwPvtAei+VT4EnZRv1ZpQDYAwX0JwAKco+Vy5c5B/DHlAthEuh+139dY/Ny80VShJTeC9Lf/lVaHyPwb4R/s912InLFJD5FdnE/YIxezt5ZvT9fPLe32WatABfAo/JNOrNKAfAOHYCowAp/TYvnDzFG8NHkZqYKMNcmUS0TGvJT1NNDWUqjCcpLp4tS5fpHl8hqjJtuneVuCJjsDscXM5Ix+Gh968TC/hHYPaW8vxTD/LW38fKNGkBJgD3yTTqrSgHwFh+R0swkcKpQ4d5c/iDZKSmyTJZpqjTuBENWjbXPf5s7HEObNkmcUUKT7N8xkzycvVnwncfOAA/m3crxzqdEJeVgV1w87eKCgFZrGALw+zS+n++/jQvP/uITJN+wPeAWGKRD6AcAON5F/hGlrGju/fwxr0PkJ6cIstkmaLvA2KO++KfpkpaicLTOJ1O4X/PXncPlrQaY3DiJC4znRyDNP5dXke+82G1gX+46TkBH/7rJZ5+4n6ZJv2B6YBvaj+7iHIAzGE0oF+EvBCHd+zitbvvU9cBRdBjyCCCQvS3/l47Zz5JccJNHhVewPaVqzl//KTu8dHNm9KkXRt5CzKA+MxMskyq9XcZiw1s5jsBn3/4OqMfHibTZCAwC+gp06g3oRwAc7CjtQ/eJMtg7N79vH7P/aQkJMgyWSYIjQjn5oH6kwFzc3JYIpg0pvAO5k/5QWj8HQ+OlLQSI3ASn5lJZp5+aePrkLlhW2zgFybPnitTWix89clbPHCv/gZhRRAMzAdulmnUW1AOgHlkoN0pHZVl8Pi+A7wycBiJl+NkmSwT9B05Qmj8ou9/UsqAPs6Fk6fYtmKV7vHBoaFeLf5zJSuTjDzv6e5XZPKs1V+LBJiI1Wrlu/HvMXyofmGwIggB5gEdZRr1BpQDYC5xQP+r/yuFM0eP8Y977ldh6wLEtG9LdItmusfHnb/AlqXLJa5IYTYLv/8Jp0N/AU6PoQMJCTf3BOsqCVmZpAs0NSoOQ5QArf7gb25ioJ+fH99PeJ/+fXvINBsBLAJayzTqaZQDYD5HgL5AsiyDpw4f4e+DhhF37rwskz5PP8EowLwp30taicJssjMz+WOqfuU/gDtGPSBpNXJJys4iLdd7Tv75lFg+awkAW6h5iwECAvyZ8f2n3NZTaglnZWAp0FSmUU+iHADPsAPohyShINBK2F64YxAn9h+UZdKnEU0G3L1uA7F790lckcIslk6dTmpSku7xTTu0EyonNYqk7CxSTJb4lYY14GqJoHkEBQUye+o4enTrJNNsNWAZ0FCmUU+hHADPsREYBEj7i064dJlXhwxn/2YprQh8GtFkQIDfx0+StBqFWTjsduZO+lbIRr9RUsvJpJBowuZveNK+NQD8zI0EhAQHMX/GeLrd2F6m2VrASqC+TKOeQDkAnmUZmuKUtIyztORk/nHP/WxYsFiWSZ9FNBlw7dwFXD57TtJqFGawYeFizp84qXt8aGQE3e+6U96CJJCQlUWql5/8XVbQ9AsEm/7InB5CQ4KZP308N7RrKdNsHeAPoKZMo2ajHADPMwsYiVYqKIXcnBzef+Iplvw8TZZJnySmfVsatmqhe7w9L485k6ZIXJHCaGZNmCw0/tZ77/aixj9OrmRmkJZrzuYvubte8ViDrvYOMI/IiHAWzfyals0byzTbCC0SUF2mUTNRDoB3MA2tAYWUvgGghUK/eOk1ZnwxXpZJn+TOh8RquZf8PE2pLvoI+zdv5dD2nbrHWywW4eRRmcRnZZIus86/NAQcAIe7FRd+waY7AVGVK/LH7G9o0qi+TLNNgMVAJZlGzUI5AN7Dd8DjSHQCnE4n3737AZ8++xJ5BpQN+QI97x5MxapVdI/PTEtn7jffyVuQwjCmf/al0PiWN3amTuNGklajHycQl5lBhol/s8lx8Zw9eMS0+QDNAbAGmTpl9WpRLJ83heh6tWWabYPmBETINGoGygHwLqYg2QkAWPbrb7w6ZHi57HcfEBjIgEcfErIxZ+IUMtOkFWwoDCB27z62r1wtZGPIk49LWo1+nE5N21+qwl8pnD10mA/veYCLscdNm/NPbCHgZ64TULtmdVYt/J76dWvJNNsRzQnwTvGIYlAOgPcxBXgCyU7Awa3beXnAUM4ei5Vp1ie486EHCA7Vn32cmpTE/G/FZGUVxvLzR58JtXKu3aghHXt7VvLd4XRwKTOdLBNVKHcsWsp/h40i4dwFITtCbbT9QsAaKDS/u9StXYMlsyZRvVqUTLM3ovV88ZYkklJRDoB38g1wPyD1GHD+xEme63sXW5evlGnW6wmLjKTPA8OFbMz8aiKZ6SoK4I0c33eALUuXCdkYPOYxISU8UfIcDi5lmNfVz+l0snTiFCY/93dyMrNMmbNEbKFamaCJNGlUn1ULvqda1coyzfYCZqM1EvJ6lAPgvUwD7kGiTgBod9r/fvDxcqd0N+iJR7H56+/rnpqYyKLvf5a4IoUspn76udAJtEJUZXrdM0Tiitwj227nUkYauQLSxe6Qk5nF5GdfYdZ/PxOSSy6I20mAReEBJyCmcTSLZk6kYgWp1/e3o31+6//AMQnlAHg3c4ABaI2EpGHPy2PC6//HR08/T5HbiJwAACAASURBVHZmpkzTXkuVWjXpPlCsS9jMr75WuQBeRuzefWxcuETIRv+HRxEQ6JkDW2ZuLpcz0rGLhNDdIPHiJT6+7yF2LFpqynzuYdHUAq3+ps7arnUzFs2cSHiYVJGiQcCPgJ9Mo7JRDoD38wfQB4m9A/JZ+dssXrxzsJBwii8x9MknhGqdk+KvMGuCUgf0Jr5770Oh039wWCj9H31Q4opcJzUnm7isDJyYs/kfXLeR9wbey2kD5MKFcgAKYwsHq7mH5843tGbBjAmEBEtNSBwOTMaL91mvXZjiGtYBNwFnZRs+ceAQz97en/XzF8k27XVEt2hGux7dhWz8Pn5Suaym8Eb2bdrCjpVrhGzc+dAowitUkLQiV3GSmJVJYrY5d+/59/3jHhtLWkKiKXMK4xcOFnOdgO5dOzD3168ICpIaDXoImISZ7RDdwKvDE4priAN+R+skKDV1NTcnh3XzFpKdlU2bm270aDKU0VSqVpUVM37XPT4vNxeH3U6HnrdIXJVCDx+MeYb48/qz1wMCA3llwucEyw39lojTaa7AT1piEpOefpE1U2fIPaUXYsjAO2jdSmIDJYtFywdw5iG5IKpEGtSvTcf2LZkxewl2eQmZ7YCKaGWCXkXZ/aQvm5wCugGbZBt2Op38Nm48bw4fRcLFS7LNew1tu99Ek7ZthGws+PZH1XrZw2xctJRD23YI2eg7cgSVqlWVtKLSyXU4uJiRZlqNf+z2Xbx31zD2r1lv+FxSkgALY7maE2Ax95zap3c3fp78ITab1Hn/Brwj06AMlAPge1wBegPzjTC+a+16nurVj82CZVXezP2vPC80Pjcnh2/f+Y+k1SjcJS83l2/feV/Ihn9AAEOfekLSikon0553NdPf+DI/p9PJsik/8ukDj5Lo6868xQr+EaY7AUPvup3vxr+PVW409B9Xv7wG5QD4JhloWaafG2E8JSGBf416jI+feaFMVgnc0KsHLTqL9QhfM3se+zdtkbMghVvMnfwd52JPCNnoO3IEUTVqSFpRyaTkZBOXkY7DhEz/1CsJTBjzLDPf/wi7iYJCxmIB/3DTnYD7h/Xnm3H/lu0EvAO8ItOgCCoHwHdxot0pXQD6YYAzd+LAQTYsXEKLzh2F9PS9kaia1Vnx2ywhG8f3H6TvA8PN66KmIPlKAu8/PpbcbP3yGAFBQbw2cRwh4caqtmr3/Rmk5eYYOk8++1evY9yjYw3J8i+NQQP60ba1/s6bpZOfE5ADJlVNALRt3YyoyhVY9MdamWZvRcvp2irTqB6UA+D7bAe2AXdhgPpUSkICy6bPJLxCJI3btC4zm12N+vXYvXYDcefO6baRePky1evVpUELiclPihL55p/vcGDzNiEbg8c8Ttc7+0paUdHkOhxczkwn2278KTwrPZ2p//cuM//zCdkZUiVDXGbggL60bdPS2EksFk0jwJGLmU5Apw6tCA0J4Y+VG2SZtKAd2s4Au2QZ1YNyAMoGx9ByAu4EImUbt+flsXXZSg5s3U7LLp0Ii/S5pldFUjO6Hn9MmyFk4/DO3fS9/z78A81VMCuPHN93gHGv/EMomz00IpzXJo4jMNg4ufaM3FzisswR94ndvosvHn6Swx6+jho0oJ/xDgBoOQEecAK6dm6Hn5+VlWulPWcL0B84CuyTZdRdlANQdrgM/AJ0AuobMcHFU6dZOvVXwiIr0KhNK5+PBlStXYvYvfs5J9AFLTMtnayMDG7o3UPewhTX4XQ4eOfhJ4TK/gDu/dtTdOjVQ8qaCuPESWJWFkk5xtf35+XmMu+zr/jpH2+TniRdI8xtBvbvSzszHADQnACLPzjMuVrJ55abOpKdncO6TWLVJwWwAgPRHIBDsoy6g3IAyhbpwE9oVwHdjJggLyeXrctWsHvdBlp06UR4RbNFVOTSsHVLFv3ws5Am+tHde2jf42aiapqTVFYeWfj9zyz+8RchG5WqV+OVCZ9j85cvNZvrsHM5I4MsE0L+p/cfZMKYZ9m+cKmhtf3uMHCAiQ4AFIgEmOsE3NrjRjIyM9mweacsk1ZgMNpVwBFZRl1FOQBlDwewDO1aoC9giLB23LnzLP3lV/xsfjS7oYPPRgMiKlUk/sJFju3Zq9+I08nRXbvpc/9w2RnDCiApLp53HxlNjkDiH8AT/3qLmPbtJK3qL9Jzc4jLzMTuNFawJiczi7n/+5IfX32TpEtxhs7lLnf170O7tq3MnTTfCXCa7wRcjktg205pkXs/YChaLtcxWUZdwWitxQpoCkih+Eh7xDLEIeBF4FNAqsB1PtmZmXz7zgfs27SVES8+i9XPNze/zrf3Zukvv+IQUP46ceAQv/5vHJ1u7y1xZQqAGZ+PJy1ZLMxdv1lTbr33bkkr0nA4HVzJyjJF2GfvyjVM/b93Sbxw0fC59OCxSITFpokF5aVpZRdmTGmxMO6jN0jPyOSHqXNkmQ0EfkM7tK2TZbQ0ZB7baqL1Qr4FaAM0wYCENIVCoXCXf0/9gfY9b5ZmL8uex5WsTOwGt/BNib/CjHc+YNsCsY6HLuBEK03TJY04efwnPPrQCLkrcgdHLuSlmjql3W5nxKMvM32WVIXfFLQyQVNKBEUjABHAvcAotGY1vhkHVigUZZaAoCAunz1LVkYGQSEhQracOEnKziI1x9iws9PhYP3035n90eekC0Y/XOAK8DBaKfFjegx4PBfB6g/+YZCbjlnVAX5+fvw06UOyc3KYs2CFLLMRaPouvYDdsowWh96YbWXgn8BJYCJawpna/BUKhdeRk5XFFy+/zqh2Xfj2nQ9IT07RZSfLbudCeprhm//Rrdt5f/B9/Pzmv83Y/NehNauZh8DO6XEHAMASALZQzNyK/P1t/PrtJ/TpLTXnuhJaG3jDBUbcdQCswGi0bMW30O73FQqFwutJT07ht3HjebTLLcz75juXcz7yT/2XM9LIMzDkn3D+ApOffZlPRjzCmQOGV4U5gPeAnmiCNGUDa74TYB6BgQHM+vlzenQTkxcvRBW0ZO5GMo0Wxh0HoB6wFpiA5qEoFAqFz5GamMiEf7zNq0OGc+nM2RJfm223czE9jZQcsQqEksjJzGL+Z1/xdp+BbF+41LB5CnAJ6IPWmKZg3aJvRwDy8YATEBwcxLzpX9G1s9QqkxrAcgzSdQHXHYD+wA6gq1ELUSgUCjPZv3krz/Tux+Ylf1z3M4fTSUJW5tUOfsac+p0OB1vnL+LtPgNZMO5rcrOMczIKsARoi3a6vG5JZizAFKyB4CeW7+EuYaEhLPxtAje0k6qHUBft36qWTKP5uOIAPAjMQp36FQpFGSM9JZV3HhnD/G9/+PN7Gbm5XMhIM7SJz6ENm/jPkBFMef5Vs0r7MoHn0DTovbOWUDZ+QWAz1wmIjAjnjznf0L6N1Ov7hsBKtIiAVEqrAngB+AiV4KdQKMooDrud8a+9RXpaGj0fe5AsA9voHt26nTkff07sdlN7wKxHO8jFlvI63REAh8HlkLqxBoGfE+zmtTWvEBnOopkTueWOURw6ol9mvBCN0aI3PdGqNqRQUgTgAdTmr1Aoygk/vvdflv8y3RDb548cY9LftAQ/Ezf/XLRqrVsoffMvu/gFa46AiVStUolVC74npnG0TLOt0K4DpCXfF+cA3AJ8i9r8FQpFOcHpdPLLW//m0IZN0myeP3KMSc+8xDv972bHIlMS/PLZDXQA3gZclbgsG0mARWELAT9zxWirVa3MklmTqFtbauS+LbAACJNhrCgHoCpaVzmjZYIVCoXCq3DYHXz70j9IiReLsh7fuZvxY57VNv7Ff5i5QWahlWh3AtxtcOHlu7ggfqGmOwH16tRk+bxvqVlDl8BicdyIptsgnOBQlAMwEU3WV6FQKModKXHx/PDqW7rGHli7gU/uf5T/DhvFnuWrzD4Zr0KTYf83YGqHHG8PAPyJX6hWJmgijRrUZdmcKVStIjWPvgfwO4I9dgo7AH3R+hMrFApFuWX/6nXs/sM1eVenw8GeFav5YOj9fPHIkxzdss3g1V1HElqGf2880FLW57CFme4ENItpwB9zvqFyJant0/sAsxFwAgo6ADZgnOiKFAqFoiww8z+fkFeC7G9WWjorf5jK230GMn703zi5R1p7WHf4BYgBPkNT9xOh7OYAFMYWpvUPMJHWLWJYNHMikRHhMs32BX5AaynsNgXv+Ueg1RtKJTzIn1oVQwgNVCkFCkW5wuHA6dDfYtlVMnLtXEjOJjlLbvle3OkzbPp9Lt2GX9tG+MKx46z+aRqbZ88nKz1d6pxucAT4G1ppmCzKjwMAYAvX2gg7zLst6di+JQtmjKfP4MdJz5BWmjgMLffjYdx0AvN3ZQvwd1mrualxVUZ1bcCAtnWoERksy6xCofAx7BnJOLLNqcG+nJbD/P1x/LztPGuPJ0qxueL7n7np3qE4HU72LF/F6p+ncXjjFk9ueClod/yfY/I9f5nELxScDnAap/1QmJu6tGfur1/Rf9iTZGZmyTI7Cs0JGIMbjly+A3AjEjoPRUeF8dmITgxoW1vUlEKhKAP4BYfjyMnWPmQNpmpYAI90rsUjnWux+FA8z886RGx8hpDNC8eO8/M//snB9ZtIOH9B0kp14UAL9b6GcUp+5SsCAGCxXI0EpJrqBPS6uTMzf/yMQSOeJicnV5bZJ/hL8dEl8nMARorOfHOTamx56061+SsUir+wWPELMrcxC0DfplFseK4zvZtUFra1fsYsT2/+m9EOaQ9jrIyvj+7iglgsWk6ARdc1um763dadX7/9BH9/qdfjzwLvu/rifAfgLpEZO0ZHsfiFW4kKM7fGUqFQeD/WwBDtQ9ZkKgb7M+exdtwULTXz2kxOo0n43ghs8fBaSsRnIwD5WKzgH2G6EzCof29++Po/+PlJnfdVNC2IUrECTRGo+68SHsTsZ3oQHGDug1MoFD6CxYLV31wp1nwC/Kz8+lBbakT41OEkHq0PSxO0sL9Zu2v5uwK4Bgv4h2vOgIkMH3oHk7/4F1ar1Hn/Cbxc2ousQHeRWd4c0JqaFcztuKRQKHwLa4BnHADQcgPe6iO9wMkI0tAS/BoCnwKm9AdWFMQKtgjTnYCH7h/Mlx+/iUVupOxD4OmSXmBFIPmvRmQwo3s00TtcoVCUEyz+AXiytchDnWpRr5LXViTlAF+gbfxvoWX6ewL9EYCylD5g8YwTMOaRe/n43Vdkm/0ceLS4H1rRRCR0MbBdHQJs5j4khULhi1iwyL3ndAs/q4VBLaXqscsgB5iE9hn8N+CyZ5dTlnZxQSxWrTqgxIa58nn+qQd59y2Xk/hdwYIm739/UT+0ArpbFfVpWUvvUIVCUc7wpAMAcFvTKI/OX4BMtBN/I7TSrZMeXY0EykYOQCEsflpOgMmRq9dffII3Xh4j06QV+A4YUtQPIvRarR9lfnmPQqHwUUzOsC5MvYqey0O4SjpaSLYR2on/jGeXoygVDzkB/37jb7zyXLGRez3YgJ/RukT+iRWBloJVIzz+B6VQKBQuUd1zlQBJwLtAfbQ67fOeWkgplPMqgGKw2K5WB5jrBPzn7RcY+9h9Mk0GATOB6vnfsKKziQCAv5+6/1coFC7iAS2AgvhbTZ//OFpNdjTwBlp5n8IXsdi0nAAT38MWi4VxH73BEw8Nk2m2NvBx/n+oHVyhUCjksh6tQUsT4AO0CIAvoCIAJWGxgV+YuVNaLIz/9C1G3NNfptn7gJvg2m6ACoVCodBHNjAV+B+w28Nr0UuZdADOX7jIytXr2b1nPydOniYpWauyjKpciWrVqhDTuCExTRrRNKYRNWtUL9mY1V+TDc5LM2HlV6e0Wvl+wvtkZmUxa94yGSbzm//d5dUOQGaOnYV7z7LhWBznEjMIsFlpXC2CAW1q07ZuJU8vzzQS03OYs+sMm2PjuJKeTXiQP23qVOSO1rVpVFW8t/SVtGzm7z7L1hPxXE7NIjzIn9a1KzKofV3qVS4/iZ5nEtKZteM0u88kkpqVS1RYEDfUr0z/NrWl5LucjE9j/u6z7D6TSHJmDlFhQXSMrszAdnWoFOpTSnVC7LuQxrz9lzlyOYMcu4OaEYF0rhfJHc2rEOJ7iqJHgcloWdaeLuMTxXt3cTex2+1MmzGbCZN+YMOmrTgcrjWjioyMIKZxQ5rGNKZpTCNimjSkWUwTGjaoT0CAv/Yia4DpToDN5se0KR8z+P5nWLh0jQyTfYEoC9qbtooeC5c/G0aVcPmJgHkOJ/9beoD3F+wjIb1oMawBbWsz8cEbqV7G2w1/vuwg/zd7N0kZ13f+tFhgQJs6/G9ER6Kj3A9NpWTm8uasXUxcfYSs3Ov7ttusFsb0jOGjezsQaPO5D2aXyclz8PcZ2/lyxWFy7dd/UATa/HikeyPeG9qOCiEBbts/fSWd56dtZfaOMziKOClFBPvz9sA2PH+7cENOr+ZiXDxjftrGnL1F75MVgm281Cua52+pj7+f/LvWjBw7FV5bLsNUNvA7Wg3/KsrOxvkhLsjHFjnwvbd4+fmxkpejj8VLV/DMC//gWOwJaTZtNhvR9evSrGljmjZpREyTRjRrXJuYhrWpVDFS2jylkZmZxYB7x7J89SYZ5h7zOgcgLTuPIeNW8sf+0rtvRUeFsfa1vtSqWDaliF/6dRsfLzlQ6usigv2Z9XRPejUrJXxVgBPxafT9ZBlHLpYuOtajaXWWvHBrmRR9ynM4ufPT5SzdX3pidoMq4Sx58Va3oi5rj1xm4BcrSEwvvXX7M7c25fMRnUp9nS9yOSWLbu8t5Ojl0k9NtzSsxG+PtCUySG6AUoIDcBBt0/8BuCJlUd7FB4AuKboP3n2TV154SvJy3CM7O4dnXnidSVN+MnXeKlGVaBbTgKaNGxDTuD7NYhoS07g+9evWkq3vD0B6RiZ9hzzOuo07RE1N8KorAKcTRk5a69LmD9om9uA361n20m0Gr8x85uw849LmD9pJfuDnK9j61p00rVG6N5qWnccdny53afMHWHXoIm/8vpMPh3Vw6fW+xL/n7nZp8wc4HpdKv0+Wse3/7iQyuPRIwLHLqfT/bDkpma71+/5i2SFualSVezvVd+n1vsSj325wafMHWB2bwKif9jDr0XZYPVw5UIBMBGTTFcaSmJTM4GEPsXrtRtPnjotPIC4+gTXrt13z/aCgQJo0rE9M4/o0bdKAZjENiGkcTUzjaEJD9EeuQ0OCWTBjArcNfJQt2/eKLL21VzkAc3aeYfYO97Qxlh+4wIqDF906/foCb87a5dbr07LzePrnLS45Qx8s3MehC8lu2f982SFe7NuCamVI+yExPcdlJyufY5dTeXfeXpecoWd/2eLy5p/Pm7N2cU/Het608QmzKTaO+bvPujVm0cF4ftt1iWHtvObvuqyE+cscWVnZDBgykvUbvatjclZWNnv2H2bP/sPX/axihQiaN21Ei6aNaBBdm+YxDWnRrBHR9Wq71BAoIjyMpbMn03vAI2zftV/vEqO8ygH4auUhfeNWHC5TDsD6o5fZezbR7XHLD1zg8MUUYqoXL+7ocDoZv/L6N2RpZOfZmbL2KK/d2crtsd7KjxtjSc/Oc3vcxNVHee/u9thKqCs/EZ/Gor3n3LZ99FIKyw5c4PYWujt0ex0TVh3RNe7rDWe8yQEoD7iWKVcEnqwCeGT0c163+ZdGYlIK6zftYP2ma8P4EeFhf0YMmja5eqXQpCGNGtT9KwnxKpER4cyfPp76rW4lO7v0K8Yi8PcaB8DphI3H4nSNXbT3HOnZeYQGyv91jlxM4ZfNJ9h3NokzCelEhvjToEo4fVvWYkDb2vgZIC4yY9sp3WM3HLtcogNw5GIKV9L0dRmdsfWUYQ7AhmNxzNpxmkMXkjmflEGNyBBiakQwuH1dujU2ponLjK36nnNyZg77zyXRpk7FYl+zKTYOvZ+JM7aeMsQBcDidzN99lsV7zxN7OZXEjBzqVAqhRc0KjOgS7dL1kbvk5DmYs1Of4u3W08nkOZwlOloK78BTDsC48VOYOn2WR+Y2gpTUNLbu2MfWHfuu+b7N5kd0vdpXHYNoYhpF0yymAecvxpGT416UsQA5XuMA2J1O0nScxgAycvJYtPccd99QT9p6MnPsvDx9GxNWHcHuKPzmvsDXq47QolYFfnisG+3ryStJdDrh9+2ndY9PLiXknJKl+83CztMJHI9LpUEV8dLDfC4mZ/LotxtYuKfwaTmBBXvgkyUHuL1FTaY80lVqsueF5Ew26HQ4QXMCSv65/uc8Z+cZJozqItW53HMmkVGT17H7zLWRpa0ntPfbu/P38tjNjflk+A1SHekVBy8UWcHiCll5DrLzHNh8rzRQYQJbt+/ipdfe9vQyTCEvz87R2FMcjT3FvEUrZZk94TVp3X4WC2ECHzwzt+s/NRcmK9fOHf9bzpcrDhex+f/F/nNJdH9/MWuOXJI299aT8ZxJSNc9PiLIX+jnpSHinBTmbGIGXd9dVMTmfy1L95+n63uLOHVF/3MpzOwdp4ssyXOV0p5jZLD+5xyXmiX1PbUxNo5u7y++bvMviMPpZOLqI/T5ZBkZOfoc8aKYKfB+CbRZCSyDlSdejM8IASUmJXPvA0/oDX0rNGK95q/LYoGO0frbdS7Yfa7IWnY9vPrbDlYduujSazNy8hj21WridYbVCzNTIPwP0DG6cok/b1I9Qlctez4iH+gFcTphxNdrOBHvWmb46SvpDJ+wRmjTLojI7xEc4EeLWhVKfE0ngfcyiL8P8knKyOGer1aT6mLkZ/3Ry7wwbVvpL3QBu8OpO/wP0KZmuAr/K67D6XTy6OjnOXFS3mGknLLKaxwAgD4t9d97pmblulw+WBIn49P4aoV7SXKXUrL4cOG+0l/oAiIbU80KIaVuTFaLhdta1NA9x+bjcZxNzNA9Pp95u8+w9oh7wmmbYuN039sXJD4tm9UuOnhF0bNp9VIbYTWsGk5DAZXGWcWIBrnLZ38c5Jyb/16T1xx1u0qkKNYcuURcapbu8bfFlOzMKqTjExGAT7/4mllzF5o2XxklD1jmVQ7AUME7fBnXAF8VowZXGpPWHNWVUV6QXacTiL2cqnv8kA51XSofG9pB/3N2OmGWhCjAZ38cNHVcQebsPENeCVc7peFqrsnQDnV1z3E+KYNNsWLN43LyHLoqPuwOJ+OW66vIKchvglGMIW2qCa9B4RZeX+q4eesOXnvzXU8voywwG0jyKgegUdVwWtcuPrO6NObsPENOnu5KFrLz7Hy/IVbX2KSMHKZtOal7bhAPr7u64dzZpjbBAolVoo7W0UsprNR5At8YG8eOUwlC84uE121WCwPa1nHptZ52aGduP8WlFH0n8B82HHdbw6AgDqfTbU2PgkRXDqZVDXnJpgpjMSMCkJiUzPCRo0Wy3hV/8Rl4YTtgkQ/NpIwcVh3WH9qdvuUUl3V+YALCpyaRjSkqLJBuTVw7MYUF2rituf7rlrVHLnMxOVP3+C9XHNZdIgfwtc66ctCy95cf1H9V1KNpdaLCXGvc07F+FHUFmin9vv200HPSc/rPJzUrl6mb9WupbzwWx/kk/VdFd7dR9f8ewGuvABwOBw88PJaTp/Q7lYo/WQqsA290AATCpgAzt+k/RYt8YIIWwt96Ql/Y9vDFFA4K3LsO7lDXrYSpoTfof84Op5O5u/T9IWbm2Plxw3HdcwP8sul4qWV4xTF351mhKJE7DqrFAoPb63/OJ+PT2H5Kn+T8wQvJrDsq1pzO3VyYgohGswa3Nkb7QVEiXusAfPjJlyxcLKWRE8DrwEC0vgffAOspm70diiIT+LNrk9c5AC1qVRASJPl9+yld97t7ziSyMVZ/XXg+41fqO51O33pSaF537/XvaltHqLmPXkdr6uYTxXZ4dJW07Dx+2qjvdCoSVrdaLAxs51r4Px+RfAvQHxX6cvkhoegBwJ6z+v4mNC0L/c+5VmQQHWqb12FN4d2sWbeJN//5gSxzXwDvA3OB/wKPAd2AKLSmeDcDTwAfAwuBWEBOeZl38Dza7wR4oQMAWjKbXuLTslmv4+TzleDpP59pW/RtcCLh/wohAfRs6l7IVM+Ygqw8dFHX7ykaZclHzwaXkZMnVClyU+Mq1HCz/bSeMQXRc5IWcZAKo+ffa9vJeCHNhqFtqlGGWiEoBLgcF8+IB58kL0+KNsVWSm53HA+sRev4+BJwJ9AICAYaAncBrwIT0aIG+jO2PcM44OuC3/BKB0D41OTm6UP0vrMgmTl2fnAzxH0iPq1EkZbS0HuaF3nOuXYH83a51+Bl5+kEtp2UE2nTE+Kev/uskMiNnuelJ2pQkKOXUtzuCyFyRVKY6VtOuV3KJx7+V9n/HsKrrgAcDgcjH3mac+fFy7uBJOBeQE/4MRc4DsxDa5k8Gi1qEAFUArpf/d4HwPyrr9V/z2gM36Gd/q/BKx2A9vUqCcnNups8JZrxXBh3T6czRMP/Ou/z3c0bKIy7jpaM0rKCuHs6FckPEbnPF68GcG/dIkmShcnOs/PdevcqY2bv0P+cq4UH0KWeCv97CK9yAN75z6csXbZKhikn8CAg55R3LYloCXUT0aIDA9CiBRWAjsBI4F1gJrAPMFu6MA94A3j46v+/Bq90AAAGt9d/ajqXmMHm467fXcr8wAStZewKNzLNRTYmkYx+dyoHimLpvgsuO05JGTlM23xS91xF4U6ZW1auXVd3vnxEMvrdqRwoCneuh2SUSRZmwsojLosS7TmTyOGLKbrnGtSqmiENthTGInv/X75yLf967xNZ5j5Bu/M3k1RgG/AT2gZ8N9AKCAEaozkKLwOTMS4JcT/QFc0BKRKvdQDMOjWtPaKv9W5puJoMeDYxg60n9Qu+iNb0i1RdZOfZS9Xxz+e79bFSNeZBE7qZsvaoS69dsu+8y3K4RSFSNeGOdkBR7DuX5LIyn6wci4Icj0t1OXdCVLtAhf89ilcIAV24eIn7HxqL3S4l924D8JoMQ5KwUBuxigAAGBJJREFUA8fQrgo+Ah7n2iTE7le/9xGw4Opr3X0Q24DhQBu0vIdi8VoHoEuDKtSppL+G+rdtp1zySo34wASYs/O0SxKsM11cZ3GI5kvcfUM9l9QDi8PVD/xJq+VGWfIpulvj9YhuTEMEn7OIAwEwy4Ww+pW0bClSyUXh6t+JyP1/5VB/bm6oXwhM4fvY7XZGPPgkly6LV2ShJfUNR7vD9wXi0a4TJqNFB/qjRQtC0aIH96BFE34EFgObgV3AIuBbtDyEBmhXD7/iguPgtQ6AxYJQ8tTJ+DR2nSk5FBqfli21u11B8hxOvll7rNTXiWxMwQF+9GtdS/d4gOqRwXRuoL9xzcI950qVQF5x8CIHzotryxfF6SvpLN5XchQi1+5g/m73EhYL0qZORRoJ6PoD3Nq8BpHBxjZh+nbdMWkNsQozf/fZUjP7j1xMYf+5JN1zDGhRVTX/8SwezwF4618fsmrNBhmmnMCjQFlQDspGyx/4DS2cPwroB3QB2gF3AI+g5SG4lefgtQ4AyBAFKnlznbzmKNl5xpV4fr3qSIl9BS6lZAn1pO/TsqZQC+V8RK5bMnLyWLLvfImvMSrK8qf9FSVHF5YfuEBiuv7cG9HrKIBAmx93ttHvrG0/eYXjccVXHTmdWj8Ko7A7nHxTin1R7X8V/i/fLF+5lg8+HifLXH6tv6IEvNoB6N6kGlUjgnSPn1HCB5LD6WSi5OS/wpxPyijx5Dlrx2mXwtfFIRr+/8tOXaG665KiGBeSM4VawrrCor3nSmwrLN5jQdZzFrNTkrb+0v3nOSKQfOcKk9YcLdGhFYlmRQbZ6NW4ku7xCil4LAJw9twFho8cLevefw3wfzIMlXW82gHws4rVUJcUkixt05BFSadfEfEffz8rd7aurXt8QepHhdGurv4P33m7zhYbep60uuRNQwYlOXN2h37ZYoAm1SNoXlNOWVrfVjUJFYjYlLTBGh1lAbiYnFmsE3IyPo2dp/VXH9zRvAqBAsqUCt8lLy+P+0aNIf6KlOqVy8AIiih5U1yP1//FiYsCFX36Ky1sLItlBy4UeTK7kpbNKoGe9Lc2r0HFUP13yoURec6pWblFNtixO5wuZ+mLUtx1zpojl4QaPN0jIfyfT0iAjb4t9V8DbIyN42wRiaVnEzNYIJDj4A7FORozBRsXDVHhf2/AIxGA1958j3UbNuseXwAHWt29/nrfcobXOwC9mlWnUqjcGmpXEsdk4XTCxCIy4OfuEutJL+NeuiCu9rgvjqK0DObtKj1xTBbFJXSKRFlA/nMWqQZwOinyOmXiqiNC7yV3WHnoYpFRNZHnHBLgx60xlUWWpZCD6WWACxYt4+PPxssy92+0TncKF/F6B8Dfz8qAtvpD3XvOXi9M4mrpmCymrDt2XQ28iPiPn9XCXQLPpCiaVI+gZa0KuscX5dCYEZYuaT6H08kskZ70glcjRTGgbR2C/PXrNhTeaPMcTqasK73aRCaFkw014S39Whb9mkURKqBlofA8eiIAZ86e58HHnpFVQbASzQFQuIHXOwAgI3nqr83WHfEYWSSm51yTIV1cyNxVejStTpVw/cmRxSFy2i18pRF7OZVlB6RoeLtMYVEn4Z70kk//cFW5sUUN3eMLX2nM3uGa3oRMvl8fe03p5+/bT7usFFgUKvzvNZh2BZCbm8vwkaO5kiBFhO0ScD9lq2ufKfiEA3B7yxpEBPvrHl8wD8Ad+ViZFFQGnLvrjFC9tmh5pFF2C55OJ6xyXT5WJgVlnYWz/w1wAEDMobU7nNdcA5gdZYGrss5bTv753yLZ/4E2K32a6tehUPgmL732TzZsKlGkzlUcaJu/uaeNMoJPOACBNj/uEBC8Kdie1BMfmACbYuPYfrUTnkj4X7S7XEm0ql2RmOoRusfnlzVm59n53s0GMrIo2NhJpClNrYohdIo2ZmMa2E5f98Z88jfcQxeSWSmQSCpCfmMnve2387ktpjIRQeJaFgopmBIBmLdgKV989Y3eqQrzJrBclrHyhk84ACB2anI6tc1JTwtZmXy9+ggZOXks3V+ycE5JdG1UhZoVQiSu6lr0dryDv4SNft1y0u0WsrLIb+287eQVoTLPoR3qGdaTvkJIAD1iqusev+LgRRLSs5mw6oj0Jiyusut0AltPxPP79lNCCYgq/F++iD1+kpGPPi3r3n8R8B8ZhsorPuMA9GtVS6jpzcxtp/hqxWGhD8z29cQSwqZuOsG0zSdLlc4tiSEGhf/zEW/CdIoJLjZCKg7R5zx+5WFhiWfjn7N++7l2B9O3nuKHDWJRFvHnfEToOfv7WbijeRWhNSikYmgEIDs7h3sfeILkZCmCVWfRJHGNFRkp4/iMAxAaKFZDveFYnHBY+vMRnegoEBZOy87jhWnbdI+3WMSb0pRGh3qVqaez7S3Ad+ti2RirX944OMCPWU/3FNLN330mka9W6L/qqRoRRLfGVXWPd4VB7eoKtb19dcYOIXnj5jUj+ebhrrrHA0zbcoIVB/VfQfRoVIlKIfpzexTSMdQBeP6Vt9i+c4/eKQqSB9yH1jxHIYDPOAAgdmpyOJ1C7WBb167ITY2rMqZHE902AJIz9X9o31A/SmhzdgVRJ0Pk9wMY3imaupVDGdm1gZAdkXUMbi+2ObuCqJMh+pyf7BlD27qVuLGh/hN4Zo5dSOVRhf/LD9NnzmX8xO9kmXsNrWueQhCfcgDuEqyhFmFsrxgA7uscLSRMJIJR2f+emqconuypOVhje8UYdgdfGrK0/71lnsKEBdr+dLCe7BnjkTX4WS0MaGlslEXhNoZEAI4eO87jY1/Ua7owC4CPZRkr7/iUAxAe5E+vZvqTp0Tmva9zNKCFqEcJnk71MkggQc8dbjQ40bA42tat9OcVS7MakXRvbP4JsUJIALfEmDPvEMEmTHoZ0aXBn1cswzrVM0RTojS6RVekapg8KWuFd5KVlc29D4wmJaX4TpZucBp4EA8oFpZVfMoBAM+cmkZ2bXCNDsFTvZua/sHdWrBEzx2sFguD2htTalgST/dues1/e+J0OkiwRM8dalUMoXMD85PgRhe4xgq0+fHgTQ1NX8Pg1ur074VIjwA8/fxr7Ny9V/eCCpALDAeuyDCm0PA5B2BguzrYDL6fLUzhe/9GVcPp2dTcSIRRojTFzmeyoxUZHMDwTvWv+d6QDnWpJtAOWg/mP2dzr1u6NKxyXfb/mB5NsJro0VoscJcK/3sjAg7A9d+bOn0W33z3i8h6CvISsFGWMYWGzzkAlcMCucXEzbd7k6q0ql3xuu+bfTo1e6O4JaaaqaHhh7o1vK5VboDNyiPdG5u2hvAgf25trl+mVw9332Cc3kBR5OdYFKRh1XAheWJ36VyvArUrmH/toDCPw0diGf30y7LMzQW+kGVM8Rc+5wCAuZthcRv9oPZ1qVXRnHvyJtUjaCHQqEcPRjQcKonHby56ox/To4nhGfn59G9T2/Qk0/pRYbStI7fhUHFUDgtkWMf6Rf7MTId2cCt1+vdSpFwBpKdnMGT4w6Sm6hfiKkAsWr2/uvc3AJ90AIZ0qGfKphAVFlisIIzNauHR7o0MXwMY05TGFcwKh/dsWr1YB6du5VAh/Qd3ECkzFZvXnOf8cLdGxTo4/dvUNrzENJ9BrVT5X1nmqede5cBBMTGwq2QDw4BkGcYU1+OTDkC1iCCh+mVXeezmxgTaij8Rju7RBH8/4x+hp8rFbm1eg4qhxmdql3b6fLKXmPaCK4QEiAlNiXCPCQ6AxVJ8lAW0iM+jJfxcFu1qRxBdOdjweRS60C0ucfKU1qBq4jc/8v1P02Wt5zlghyxjiuvxSQcAjD81WS0WnihF9KdmhRDubGPsplHfgJ70ruLvZ+XO1sZeA1SPDC614qBfq1pER4UZuo6+rWpel4NgFk2qR9C8ZqShc9zWvCZNSqkiefzmxoY7tIOV+I83o1tZb+bs+TRv113mvf9UYIIsY4qi8VkHwOjkqb6tarq06Rh9dzrUQ7Xif81vrKP1mAubjivOmCieirKYNb8r79PqkcGGdZrMR93/ezX6NbyBg4eOylrHUWCMLGOK4vFZB6B2xRA61jeuj7irG7srJysRzC5LK0zfVjUJDzJGr93PauExF8POpV3HiBBo8zM8klMaRv47uxOpMtKhbVEzgpiq5uQZKHSx39MLALLQ7v2ldAxSlIzPOgBgXNJW3cqh9Gvl2gemxQJP3GLM6bRWxRC6eEAopiBB/n4uPwt3cSfxrKSETFFua1FDqPmQDNrUMU7oaUxP13NVejUrPiFTlKFtaxpiVyGNC8AhD6/hKWCXh9dQbvBpB+CeYkqaRHG39OyRbo0ICZB/f+wpqdjCGOVouXvaNOp06ukoSz5GSD3brBYe6eZetUpJyYIiDGnn2SiLwiUWe3DuH4ApHpy/3OHTDkB0VBht6lwv0iOCHvGZiqEBhpTqefpeOp87WtcmOEBu+L1BFffFZ4oTZRLBZrXQv415egclYYS+hR69igdvul6USZTG1SJoWdMcKWuFEF8B+ls86mc/MNYD85ZrfNoBAPmnN73ys0UprIkQFRbITQb3pHeVsEAbt7eQG74d01Of/OxoycmAPZtVJyrMM90dC2NEu2c9UZMKIQHcW0iWWRRPdphUuMVRNOU9M0kH7rn6vwoT8X0HQPIpWW+YuSiNdRGGdKhnes+DkpD5nANtfjzYVV8DmlGFGjOJ4i1RFtDySQZLvAYQ6VlRuDGTKN5yzaJwiecBKTJ+LjIWOGjifIqr+LwD0LxmJM1qyKmhFm1BK/N06ilVuuIY0La2tC55wzrVo6rOJj8FWzOLYrVYuMvgsjd3kblRinStbFegNbModSqF0qFeZSm2FKZwEnjNpLkmod39KzyAzzsAgLTscNE2vw/c2ECKcl6FkAB6xJjbbbA0KoQE0KuZnIYxosl8YyUlA3ZrXJUakd6lSte1URUpawoO8GNU1wZCNmRda5nd8EghhXHAZwbPsQp4xuA5FCVQJhwAGaemsEAbD9wodrIMCbBxfxexD13QWh6b1ZPeHWTc47auXVFYxrl1HXEb4H1RFtCiEjKqAe7rHE2lULHchuGdxG2Auv/3YV4EfjLI9i5gIJrev8JDeN8uo4N2dSvRsGq4kI0RXRpIqQUf2ytG+LTjTffSBRnUvq5wXsLYXnJO76JRBIsFBrXzzo1JxoYpo2RSRhShemQwNzbyrJaFQjd2YCSaJr9dot2FQC+U2I/HKRMOAIgnT8m6vxfNIwgLtJnam90dosIC6d5E/+8m8/5+WKd6VAnX31O+U3QUdU3qfucuPZpWF/rd2tWtxA315dy5i16LDelQV1e1h8Kr+Ay4GfHGPBnAG8AAIFF0UQpxyowDIHJqkp3BL3L66t/W/J707iBy3TJSYgZ/oM2PB2/SV0kA3p2V7me1MKCtfm0CmRn8IpUE4L3RLIXbbAA6AqOALW6OzUIT+IkB3sUzOgOKIigzDkDnBlV011CPkVxbrldLAGCYQeqGshjSQf81gOznPKaHPi0Bq8ViiHCTTPS+DyqEBDC8s76xxaHXoa0WEcTNMar7XxnCAfwIdAbaAa+iKQee49orAjtaWd+vwCNAdeBR4KyZi1WUTplxACwWLVzpLvUqh0r/wAywWXn2tmZuj6sfFcaAtt5VllaYGpHBuk7P/VrVkq7i17BquK6rn/5tahveXliU21rU0NUb4OneTaXLUg9qX5fG1dxfy9heTb1Ky0IhlV3AB0A/oDYQCFQCwgAb0BwYDnwLJHtojYpSKDMOAMDfbm1Kazc2GYsFvri/syFd5p69rZlbPd6tFgtfPtDZJz4wP7ing1vljqGBNj69r6Mha/nvvR3cSt6MCPbn4+E3GLIWmeS/H9zpSdGoajiv9GshfS02q4VxD3RyK9oSUz2Cl/o2l74WhddiR7vXV2p+PkSZcgACbX7Mf64XTV0QBrJaLPzvvo5Cd60lERJgY96zvajvwknT7+oH7B2tfaNZSr3Kocx6uqdL9/nBAX78NvYWwzrdRUeFMfdZ19YSGRzA7Gd60kiwYsQsejevwVcjXXMCalUMYcFzvQ1r3Xx7i5pMGNXFpbU0rBrOwud7G9IgS6FQyMMPeBnQdXn+cr8W0puGiBIZHMCorg3JsTvYezaRHPv1+SYd6lfml9HdpeudF6ZiaCAPdm3IlfRs9p5NwuF0XveajtFR/Dy6u9ffSRemflQYg9vXZf/5ZE7GF60aelPjqsx+pqfhPQ3qVQ5jeOdoTl9J58jFFAo/5fza+t+euoX2PqZI16F+Zbo3qcbm4/HEp11fMm2xaPkCs5/pKb2PQFFrua1FTQ6cT+ZsYsZ1Pw8O8GNMjximjr6ZmhWub0DkzMvBmZdr6BpLItfu5D/LT+geDrwncTkKhcexAJcBXYW6lz8bJlSuZDSpWbmsOnSJQxeTyc61UzUiiK6NqtLSoH7nJRGfls2y/Rc4cD6JPIeTWhVD6N64Kq0ldzP0BDtPJ7B47zmOXEzB5melflQYfVrWlFaK5g7nkzJYdegSZxLSyc5z0LhaOLfEVCtyQ/IlHE4nqw5dYuWhi5y+kk5IgB8xNSK5q21tGlQxP6Jx+GIK645e5mJyJjarhaY1IrklphoVQoq/jrFnpuLI8lyEOCPHToXXlusejs6DkkLhrZRpB0ChUHgPygFQKLyLMpUDoFAoFAqFwjWUA6BQKBQKRTnECuTpHZyZI1MeWqFQKIwjM1dIgM5z2YsKhUFYgaJTuF3gYkqmxKUoFIoyjcOzCrDnU7JEhqfKWodC4S1YEejIdPSSauakUChcw+n0rAMQG3996aIbKAdAUeawAqf1Dp6/W0k7KxQKF7Hrvm2Uwvz9cSLDT0pahkLhNViBw3oHL9h9jsT0HInLUSgUZRKHA6fDczlDqdl5og7AEVlrUSi8BSuwV+/g1Kxc3l+ge7hCoSgnOPKuVzE0k09WniQhQyiPT33QKcocVmC1iIEvlh9i28krkpajUCjKIs4czzkAey+k8unqU6JmVspYi0LhTVjRejnrvgbIyrUz6IuVnCtCG1yhUCicDgeOXM84AJdScxgyZRcZYiXLJ4HjclakUHgP+UJAv4kYOZeYQed3FqpIgEKhuA5N/vf6RlhGs+9CGt0/38ypBOFyZaHPR4XCW/G7+r/ngKdFDKVm5fLzxhNk59q5IboygTa/0gcpFIoyjdOehz3D3HLh9Bw7/11xksen7SMuTUqS8ljgkgxDCoU3UbC590qghwyjUWGBDO5Ql7va1qFJtQhqVwpRvcEVinJIXmoCzjxjK4Uycx2cT87iSFwG8/dfZs7ey1yWs/EDbAJulGVMofAmCjoAtwFLPbUQowgJsFGrYgi9mlXnsZsbe6RFbUEOnE9m4uoj/LH/PKevpJOW7dnaaIVCUSIDgPmeXoRCYQSWQv+9DrjJEwsxA6vFwlO9Y/h0eEf8rIV/deP555zdvDt/L7l2zyqiKRQKl9gKdMYTCQwKhQkUvqjfATxOGe0S6AS2HI/nXGIGd7WrY+rcb83axb/m7sHhVJ8lCoUP4ACGouVHKRRlksIOwEWgAmX8zmvn6QRuqF+ZJtUjTJlvy4l4Hpy8Xh0jFArfYTwwydOLUCiMpKiT/mtokYAyjZkKhh8u3K9O/gqF77AXeMnTi1AojKYoByAbuBdIMHktprIxNo7LYu1BXSInz8HifSqKqFD4CMnAMED1OleUeYq76z+Glv1aZuX9nE7YezbR8Hli41JJV5n+CoUvkAUMBA55eiEKhRmUVJy/AbgbmAkEm7Mcc9ly4srs3s1r6JZBdoXdZxJqAiONnEOhUAiTH/kU6o2iUPgSrtTC3QTMAyoavBZPcCuw3OA5mgEHDJ5DoVDoJxkYBKzy8DoUClNxtRi+CTAdaGPgWszGCVQDhJqEu4A/kAiEGjyPQqFwn/3APcBBTy9EoTAbV+v9jwBdgHFo9bFlgY0Yv/kD5AKLTZhHoVC4jhP4GuiE2vwVCpfpCGxB+wPy5a/+sh9MCXQC7Ab9HupLfakv9752UMa1ThQKI7GgVQlsxvN/zHq+Jst/JKXyL4H1qi/1pb7Ev7YDg3H96lOhUJRCe+BT4Cye/wMv7csOfMb1Cohm8RaQU8oa1Zf6Ul/yvs6j/c13RKFQXINsT7gpWkvhNmiJg/WASkAYWjKcJ8hAc05Wop38t3loHfk0B55Aq0CoC4R7djkKhc+TB6SiJdueBg6jqfmtRFXgKBTF8v/UXPc0hXimoAAAAABJRU5ErkJggg==;" vertex="1" parent="1">
          <mxGeometry x="480" y="180" width="166" height="166" as="geometry" />
        </mxCell>
        <mxCell id="fVwzWta8XXvmtXb5B4zN-3" value="" style="shape=image;verticalLabelPosition=bottom;labelBackgroundColor=default;verticalAlign=top;aspect=fixed;imageAspect=0;image=data:image/png,iVBORw0KGgoAAAANSUhEUgAAAgAAAAIACAYAAAD0eNT6AAAACXBIWXMAATr1AAE69QGXCHZXAAAAGXRFWHRTb2Z0d2FyZQB3d3cuaW5rc2NhcGUub3Jnm+48GgAAIABJREFUeJzt3XmYJFWVN/7vjYjMql7ZRPgxKMjoqMPIIgiioDDzIoKydDe0jjqOOi4zOq84boPiUi6DgkBvNAiM/nx9Z9yYUVFBwVEElaVBRbBBVlm76b2ruqpyiYh73j+iqjqzKrPqZmZExo2I7+d5fKSzbp24VXkrzjmRsQBERERERERERERERERERERERERERERERERERERERERERERERERERERERERERERERERERERERERERERERERERERERERERERERERERERERERERERERERERERERERERERERERERERERERERERERERERERERERERERERERERERERERERERERERERERERERERERERERERERERERERERERERERERERERERERERERERERERERERERERERERERERERERERERERERERERERERERERERERERERERERERERERERERERERERERERERERERERERERERERERERERERERERERERERERPFQaU+AiOZ28r/f/Z6FJfXl2caIiFEss1GAYTjjeK0G/vAdR3AfRJQSJ+0JEBERUf+xACDKgSx2/0SULhYAREREBcQCgCjj2P0TUTe8tCdARHPbPFKvb3d6y6TWFwpE1FcsAIgyYKTqB16b43VxJmzzWPEWE0TUf/wIgCjD4u7Wiag4WAAQUUfY/RPlAwsAooziZ/VE1AsWAEQUOxYTRPZjAUCUQWl1/6aH/4nIfiwAiCgVrCWI0sUCgChjbO/+mdeJsoEFABERUQGxACDKkLx0/zz8T5Q+FgBEREQFxAKAKCPY/RNRnFgAEBERFRALAKIcYfdPRKZYABARERUQCwCigmH3T0QACwCi3GCCJaJOsAAgohnY/RPlHwsAohzgI3+JqFMsAIioK+z+ibKNBQBRxvGRv0TUDRYARJQY1hJE9mIBQJRhtt/4h4jsxQKAiIiogFgAEGWU7d0/D/8T2Y0FABERUQGxACDKIHb/RNQrFgBEREQFxAKAKGPy0v3zIAFRulgAEBERFRALAKIcYvdPRHNhAUCUITy5jojiwgKAqKDY/RMVGwsAooxggiWiOLEAIKK22P0T5RcLAKIMCMUsd/KRv0RkigUAEfWE3T9RNrEAIMoJPvKXiDrBAoCIEsdigsg+LACIcsD2G/8QkX1YABARERUQCwCijLO9++dBAiI7eWlPgIjmJpWdpbbletwZNu7j+qwAiKzEIwBEGZaXRwMTUf+xACAiIiogFgBEGcXun4h6wQKAiIiogHgSIFEmqFvqWt6RVHStHIGKOWjc8YiIiIiIiIiIiIiIiIiIiIiIiIiIiIiIiIiIiIiIiIiIiIiIiIiIiIiIMos368yI13313n9aPIDL233d/MEwdj3w5Zq/O8xoDZ5y1d3/uGhQXTG1XcP4cT8wx5TJg3UEwLVvO8Lo5/+bK+9+z4IyvjxXPCMWrZXr/+FI7oOIUsKHAVHX0nraWx6SPxFR2lgA5EBa3T/ZI4vdPxGliwUAZUpeun/mQyJKGwuAjMvqZ/8UH3b/RNQNL+0JkJktI9X6SGnm62l1xP3udLdUwtqOami2zZjnFncC6+Ycgc2j9Zrn6DbxDLdruC3bf39EFA8WABkxEgTBgG4+YbpIO/7hSi0sGR6vir0osuD3Mlz1A6/Nz296xYGJtNYUEfUfPwKgXMlj8p89HhMsEXWHBUBGFan7p/5g909ULCwAqHCK1v0zDRNRKywAMigv3X/sl+DFHI9mYvdPlB8sAIhaKFr3z3xNVDwsAHKK3X+bcUx0ieNHE0TZwAIgY5jA7FG07p9LjyhfWAAUWF4SSVqX/lH3+BsmSh8LgAxhp5Y9Rev+WTwRZQcLAJoVu//etktEZCsWADnDTi2/8tL9c+UR2YEFAPWM3X9v2yUiSgMLgBxhp0bs/onIFAsA6gt2/0REdmEBkBO23/iHksfun4g6wQKAMicv3T8TIhGliQVADtje/TPR2YPdPxFNYgFAuVS07p8Jlog6xQIg44rW/TPRJY/dP1ExsACgwipaUcQTNomoEQuADGP332YcE13i2P0TZR8LAKJZFK0oYsImKg4WADmXl+7fFB/5aw/+honsxgIgo7hztUfRun8WT0T5wAKAcpNI+MhfIiJzLAAyiJ1a9hSt++fKI7IfCwCKVdG6f9ZYRJRVLAAyxvZL/yh5een+uaaI0sUCgPquaN0/8xwR2YgFQIbY3qkx0SWP3T8RxYUFAGUau38iou6wAMgZ2xMdr0xIHrt/IjLBAoAyq2jdP/MmEcWJBUCO2J7o2P3bg90/EbEAoFyzvSgypUPD7TLBEpEhFgA5YXuiS+vSP+oeu3+azfGX37PXy1asOyLteVD3WABQ4RWtKGIepl6duHb9QkjtxvmDzh3Hrb3rCycO3eSlPSfqHAuAHGD335/t0kzs/ovn+auvHwhQud5z1NEKKA84OC949sLfHbXitpemPTfqDAsAIgO5KYqM4zFj00yHDq0v7+886yeegxMmXxMArlJ/tWCgdNtxa9etPHRofTnFKVIHWABQE9sTCR/5S5SOE4du8vbet/I9z3VObPV1pVAuO865e+07fu9xa9e9or+zo26wAMg4Jjp7WF8UGcfjyX80zdCQo/dd+F3XwWmNL7d6a11H/UVJOTcdu+auCzA0xBxjMZ64kRF6fLgER838Qtx7V4NwaRQdUt3lCcyuhTM/SmA4zvQnSTDRiT/ioW54LWDbIKbj+r+myGaijt/3rm85jjq98dVNoz52VgIctOcABkrNeV4plAc9fOz4fU8/OVx7+t/e9r6jHu7rlMkIq7MMY6eWPWndHdD2uyaSvU5Y+9vVnqPOaXxty5iPDSM1jPshHthawabResv32nXk6JLSdx278s5l/ZovmWMBQImIe78fhnZ3/0x0lEfHrrrz3a6L9zW+tnXMx9PDtal/axFsHKnjoa0V1Hw9M4hSe5TLzneOXbPuS4C0OIxJaWEBkFGpXfrHTGcNdv+UpOMvv+eQQU9dCtmdtLeP+3hquNZyDbQ6GjA5TilxBjznw6+87Df/c+zq2xcnP3sywQKAUhP7R82Wd//Mh5QlrtT+XTlYMPnvnZUATzZ0/q3MdTTAdfHXJc+767A1v39e/DOmTvEkwIzQqnRTTfvvAgAtSoD+H0nTglS2O7Htm2sh/qHP27QmZwd+eAtK7tu7+maDtywMtdnAmLdLdjp21Z3vVo46afLfw9UAj++sGhe7436IP24Zx/6Lynj2oubbAjgKL9jD8e942ap1Z9157jG3xjpx6gj/RImIaMpRV961x/wQj7oKewPAaD3EI9sqMw7rz2XyI6U95nk4aM95cKYfb9YYGw+CN9917suvjWnq1CF+BEBERFM8X86fTP61UPCn7eadfyvDlQAPbBlDdfpHAg4WzPe8/3rZynXv7WW+1D0eASAiIgDAiy64Y59n7+U96kAWC4CHtlYw3nD/iV5uJuUohQP3GMDeC0oNAwEoJRW//qk733/c53uaPHWMRwCIiAgAsHghhhzIYgDYtMtvSv690iJ4YmcVz4zUm78gouaVyp89dtXtn41tY2SERwCIiAiv/MqvFjm1gaddpRbVQsEfN481HfqP81bSe80v4bl7DEJNy0C1QH/+jvcf80nzWVMveASAiIjgVwbf5Sq1CAA2jtQSvY/DjnEfD20dRxA2b2TAcz5x7Op1n0tuy9SIBQAREcGDvBMAxuohdlaCpq/F/iApibbz0NZx1IJpRUDJPf+Y1Xf8q+EmqQcsAIiICu4lK9e9quyqFwPA09M/o09QNdB4aOu0KwRE1KBXuuDY1b99R98mUlAsAIiICm6BK/8MRF359BP/kuj+G/mh4KGt46g0XSaonbKnrzjm8jteZ7h56gILACKiInv3XaWS654CAJvH/FSmEGjBw1vHMV5vLAKkXBbn2y9d/ZuXpzKpAsjMVQBnfuWe9y2a71wGmFWaqT36vMP7zH/7LYcZvQenXv37f1o0T13e63ZN9evBMN/9+8ONfv6T//3u9ywsqS8bbq5hu/1/wI3xWyHAD99xhNHPf9KVd797QUmujGO7sT+7oIdnK/zknS81+vlPWPu7d80vy1VdbLan+fUQzuj3/LP3HJX6PvjIlbedscdA6dqkz/yPxs3+dc9ReP6z5mOwtPvXokVtqgY45jfnHv2E4XTIUOaOAPBpdPaw/alwfLpdfuUh+dtiwPXOAYCto37q8548EtB4ToCjZL95nvzw4KGbBlOcWi5lrgCIU9rdf7+3ax4vQ3uvrIr7PTMdZ1H3TzYQ5Sp5jQawvdJ8+L/f3f8kXwse3lZBveHqAKVw2P57LfiG4ZTIUKYKgLg7Okpe0bp/rj2LWN7927BWXnzxrSeUXOfZO8d9hNqGGUX8UPDItkrTfQJKJbXk2MvWfSzFaeVOpgoAmxWt+7dnV0FF6/659uKzoBwd/t9R7e6Wv3F3/43DqoHGI9uraKxLyo7zmSNXrnuV+QxpNl7aEzC1eTyoDtf1nOPi3snZ8jnylkq9NlxrFc/u7iWujxM2j9Tr2524iye7f3eNNg9X6q7bWzzb/zZms2msXnPGwo7ixflRlq1/F70qOep4XwtGa93d+Cdp4/UQj+2o4pC9Jz/+l9I8T/3ncZfeevhtH3zF9lQnlwOZKQBG6rVwIJz7gIXxH2qMO69+HPIbqeqg7DQXQEXY8U8aqfqBZ3i8Ko+/l+GqDly39XeardHsFDutDFf9wIFO4D0zjZdcp5uW/b50wwJXOYcOV5M9+a/X38lwJcCG4ToO2KMMAHAUDgxL3n8AOC2WCRZYrj4CSCP5k13ymPz7GY9mymPyB4DF/qKTPAel4WqyN/6Jw6bROnaM756n66hTj73sN+/r2wRyKlcFgM3S2vHnJdFR8mzt/pPariVH4VMzf9B7pQYwWovvkb/dMnkrnthZxVjDx8Ae9IWHrfn985KbVf7lpgBIq/sv+k7EJkUrimzs1Ioqa90/AAx6OHqsFkI3TD72NR/jD6xF8Nj2KsKJGkApLJiP+lfj20Lx5KYAKJK8JDrmpeyxPdGl9dl/FrkKh9nQ/ZsSAWqBxhM7K1OveQ5OPHrFnXxoUJdyUQDY3v3ndxeSPbYXRaZsnx/NZNPveL+hXz+75DnP3tXw4J+0uv9Ofy87KyG2je++aVG5JBcdu/L2/ToMQ8hJAUAz2Z7oYr9/QbzhqAdpfTRh+5n/NtlrUB2pBaj42TkC0OipnXVUg+izAEepfZTrXpzylDIp8wVA0br/DO5rMsf27jovRRulpzSgDq/44dR7anv3Pz2eFsHj22tTr7tKvenIS+842jAcTch8AUDdy0siYQLLnqJ1/7YtvRLcF48Z3FjNZuN+iM1jdQCAUuIMltQlKU8pczJdALD7bzPOtr1NDrH77y0epctVeMHk4f+sdf+NNo40fBTgqFcdvebOMwzDEjJeAFDyitb9M4FlD7v/zrkOnlPxs30EAIjegyd27L5HeknhQkBUilPKlNwXAEXrhGyfX5Gw+28Xj6svXaKUcvarBTrT3f+ksXqIrWPRVQGOwouOXrHujYbhCy+zBQD3IfYoWvfPBGYPdv+d2+f8nx8Qih5Iex5x2rirNnWDIM91zkt3NtmR2QIgTnlJJLbPj5LH7p/m8uy9Bv+82sHlfzZ3/1E8gR8KNo9GJwS6Lg576ZrfnGK4mULLZAEQ98l/lLyidf9cefZg99+sJOUDakH+7nG4ebSOehD9VCUdfDzl6WRCJgsAmxWt+8/bTiTLitb9c+11p1QO96uF8Z4AaMNjmrUINu6KTgj0Su4Jh11020sNN1dYmSsAbL/0j5JnewLjmsqeonT/EWe/WmD689r9k0y3fdxH1deAiBoccP8p7fnYLnMFQB4UrfvP2D4k12wvnkxx7XXPgezrx3wEwES/TticPBfAc9WyQ4fWlw03W0iZKgBs7/65r0me7QkstSsimOkSZ3tRZExhD1/Pve00Hvkbh+0VH/VAoBT2mr/32Dlpz8dmmSoAaKaiJTpKnu2JLq1L//KiHsr8tOfQThzvmQiwZeIogAO8LYZp5VbuCgDbu392askrWlHEEzazJ839gB/oeXONSfuRv73aOu4j1IDrqBP5qOD2clcAFEnhEl284agHRev+bU103dCCBWnPoRcm75kWwbZxHwA8LTgz8UllVK4KAHb/ZCo3RZHl8yP7+OHsRwBsv/GPqe0TtwdWDk6LN3J+5KoAoJnykuhMMYHZg91/u3jpLtJQI/dnxotEjwuuBhqe470KQ0PMdS3k5pdStO6fiS55thdFtq95slMIabvft7377/SEzW1jPqBkr6P3OOVVHX1jQXhpT4DSl1oisfx+CGSPUIdw1dxPeWX3Pzct7QuAvNk+7uOAxQNwHfcfjlx15/6O6INcRx8IOAcqqAOUwkIAUFALBeJOfaNgTEMNAzIiGsMAhrXWT4onD0rgPBCGg/ff85HDx9L6ueKSiwLA9k6IiS6/2P23i8fVZyuR1pVUXrr/xniBFoz5IRaW3bfMA94SHfSerH8a4wmafikKcCa+vrtcmviPMgDU8PLVd24JIQ8jlLtDR90JL7z9t+877n6zn8YOuSgAKHlF6/6ZwLKH3b8ZrbU796j8GKkGWFju7kee7R1TjuzrAfvCUce5gn+CdvHy1etGQsHvglDfLOLccPeu62/H0FD/b7toiAXANLb/0ds+P0peXrp/Lr106BZvUB67/0kj1QAHLB6YETERCotdhVe7jvNqAJ86du/ThvXKU28PgRvGav63H/jX4zcks+HuZL4A4E1Q7FG07t/2KyKKhN2/Oa1VrUh7xIqv4YeCkjv3OSTdmO2tVQp7uK46xQVOKc0fvPhlq+74faDlR6ETfueec1/5h0Qm1IHMFwBpKFr3X5xdhf3Y/VOvQki1m+/LYvc/aaQWYJ/5JYQC1IOoIPBDjVbPRBABHAU4DuAqBc9V0f87CiVXweBc1Da04zjqyLKjjgScTx69at0j9SD8VuiHV60/7/gnuo3ai0wXAOzUsqdoRRHXlD3Y/Ue0NB8BsG1+SXh6uIandtagxfxCwla/FqWAsutgwFMouwplz0HZcTCv5GCw1NnFFa6DP59Xds+XkvexY1bdcWtdy//dOVz5+mNDJ3VVoHUj0wWAzdL6o2Kio6J1/1x7nRHoukJCh8NNx/X5I5twotPvdX4iQC3QqAUz5+cohXklB/M9F4MlB/PLLuaXHCg1x8mEShwodfyAo47fd68FF+95yR0/rIX6kvs/etxvDafbtcwWALYfCqXkFa37L0Knlra8d/8AoKCmOkx+ZBMfLYKxeoixejj1mqMUFpQdLCh7WFB2saDswp3lQIFSWFQuqTeVy97fHr1y3a1BKKvu/tAx/wWoRN6BzBYAeRD3O2p7orNxZ1hURev+i/bI31kJdiV0AMBs89afsGkab+6BWgQj1RAj1agoUAqYX3KxeNDDooGoIJg8p6BpuyLKcfDKsqNe+bJVdz5aD2+/3FvgXfGb9xw9bvhjGMnkHaFs7/6Z6JJXtO4/dMwicuXZw9r9gMJOIL1L/4pMBBirh9g4UsODW8Zxz8ZRPLqtgq2jPvyw9W9QKRwy4DkXO1X95Esuvf1zh669aWFc88lkAUAz2Z7orN0ZUltF6/6LkugUZCTtOcwlD92/SbxQC3ZWAjy+s4p7nxnF/ZvH8MxIHZX6zHsHKYW953nqEwuChU8cserOz8dRCGSuAMhL95/1nUgWWF8UGcYzxRM2yYQOnZ223/inqCq+xoZdNdy/ZQz3bRrDxpE6qv60YkDpvcpKnz8/WPDYESvuGHrhhb9a1O32MlcA0EzWJ7qULv2j5LH7bxfP4kXqRR8BZF3Wu//d8VqrBhobd9Vw3+ax6MjArlrTxwRKyT5lF59ePDjwyOGX3v6hE4du6vicvkwVALZ3auz+s8f2NWXK9vmRPSQ0KwBsT7BFUvE1nh6u456NY3hgcwVbx3yEEwcGlNL7Dnjq4vG9FvzhqBV3nNVJ3EwVANS9onX/3IXYg91/b/HippTelNKm+y6r3f9s8UbrIR7fUcM9G8fwp+1VDFcmbkqg5IWOg+8dtfL2n79kza0vMombuwKgaN0/E509itb9W32Ym9oKlWyca4zt3T+XXnSJ4fbxAA9vq+LejeN4ZlcdfihwlDppIHTvfsmlt3/h0KH15dliZOY+ALq6y3Cuae2Fk12RurKz1PJeEDFu1+Y/Ul0ZLjmG98KwPtF1EU7Gh0tAj08VNd5u3L9A0+3OEmJ8ZwnK/sI9C1fFqMDbADece2BBZKn7b6ceajw1XMPTIzXsOejhWfPLA4sH3fNkr9GlL7n01nff+8FX3Nzq+3J3BMCE7TsRU7YfaqSZ0qolUtvJcfFZZ/QLJ2wFnHq7r+el+y/i0hMBdlQCPLRtHOs3jWHLqP8XJeX9/PBL7viP56++ffH08bkqAHjySPLSOkTX6hnmvWzX9uKOZrL9vc1C9x9RoqC3pDyJXLKpeKoGGk8OV3Hvpl3OptHam+cHWP+SS28/s3FMrgqAONmeIGy/cx0lz/oOjGvKWgI80/J1ixJYb/EMxxXgyoRQCzaP1bF+0+iBG0dq33vhBTd/+9Ch6/YHMnQOwFx48og90koQeekQqXu2v7fpd/8RBTWW5aSWZWkVJ1oD28Z8tW3L8PIFHv564bn//YnMFAC+dm+CE76r3dfDNvdRTpIWJejXUzUc7xd1Hbwz2i76t90GYZjmiUPqlrqWd/Rzi1q58S6qHt4y0XKL7zhvT2q7oYj5mjL9OWJcooFWt8CRt8UVL0Q6763pR1mJUwi7zf/s/nuLlyq/CkiIMR/PgsJZKT4TioiI+k1E1N6fuuWXoehXNr9u+P3G2zGNV6wCwGRYInMTAcZ3TH5jTRzvMJ4DQERUII89hgHPw18luQ2bk2tn8XJ0ZUJ9bOo/lVKrsHbpgywAiIgK5Pxb7zvMgdqj8bVMJDBq0lFxEgZAMHXl5wY9v/JZgFcBEBEVysaR2jtcC/b87P57i9eRhu5fHPcjuPitYwALACKiwjjjK39cJCJvaHwtEwmMuiICoF4B9NQJ3L/CZcu+MfkPFgBERAWxtTKyWivZU6lsnP/N7r9dPMOBOgD8yuS/Ainjfzd+mQUAEVEBHLPijr/1PPfvAaDmR8+VsD6BUQ8EqDac+Ce4GiuX3904ggUAEVHOHbPqjr8fGHC/BhEVhoJ62OODpSzC7r/NuOo4IOFk8K16oPTx6WMycyMgIiLqzJGrf7vvoAov9lznLUqJAwDD1ej58dYnMB4k6F5QB4La1D9Feedh5ZKd04exACAiyomjrrxrvifBwai5h3kOznJcfapSanFjGt8y5qc4Q7vlovvXIaQ62vjKL3H50q+2Gur93Tf/MCOi7ffTjjOW8Rse83ZNpXbPcsN4pqz/OWJcL3n4GYAMzM90s7b/HHHeQU4DgAeUW39953iAih/ancA6imc4rjBHEwRoSv4yIm757YBq+RuYcQ5AHpI/9YbJv90wLtKkMfn3tNlZBaHgqeFqDJGKzeriqToK2X3JHwTqXKxZ8ki74YU+CZDdP6WlcImJay9VQSh4eNs4Ai12J7CO4hmOK0qBXxsDwt0f7yjId3D58q/N9i1N5wDkpftnorNH0bp/Lj17WL9W4k50bV4fq4V4fEc1V2f+267vxUl9HAhqjfE2aFV671xxeRLgHIrW/TOB2SMviYlFVv+JAKO1ENvG69hZCTr//g62YxYvH92/lc2lX4se8ztJUJOSOgerl26b61u9p4ajSwXifkx1/G+k3QmR8+sef3e9xsvH/EzF+9jVfPzuJkdpAfyJ6/xDPfN7rUxgBRVLceLXpu7zPxlPIB/A6uW3msT2dtVSviY0B3+ANs+ts3iWb9c4XnHml9rcctKpFW1Nxcn+98w0XkpHxnrVkPwnKZE1csUbvmwawgGY/NvHY7mcNO6oe4tHycvNmrItgdGc2hYn05L/xHv7Y71V/Usn8Qt9FUA/2Z5I0iraKHm2J5Lcd2oFxu6/t3gt+dUZnT8gt8kAluGa5WHL72nD+CRA2xOJ7QmWkle0NcUDVPawfk3ZlMCoe/Xx5hP+AIiWB8QpnY4VSyttvqstL1pA2Xg0ZN7ZnkhsT7DUPdsTie2f/VP3iremTONJ079QG4vu8d9IqYdE8DdYO/cZ/614UEog/a0AbE8k7NTyq2hrikvPHkXr/jN/Yx1biAC10aab/AAAFB7RyvlrfHnZ092G9iCiAeXOun3DYEx0yWP33y4eF1/SbE8kthdtlDz715RpvImBOoju7S/TbuKk8IjW4Um4fPlThptuyRGNjk4a6BfbEwk7tfwq2ppi8WSPonX/3D/OIqgBlZGZyV/kfh3g1bj8b5/sdROOAma9P2RanSR1j91/b/EoebYnEn4MmF+Z6P7r49Fn/tMo4E7tqlfjy8u7PuzfyBOFMKunAOblj56dWvYUbU2xU7MHu//e4llNNFDdFR36n0YpdV1YH1yOq04fj2tzjhLd9giA7Z0kdY/df7t4hgMpcUXr/rn07JFKceLXIOM72iR/5+rwWevPiDP5A4AnUDqrRwBM5OWPnsVT9uRmTbFTyxx2/+3iWbj42p3lDwACXyucj8vO/lISm/YAtNiq/d0/dyLJy00CM45nOM4wHiWvaGuKHwPaI5Y1ENQnPuuXmcWJUht1oN+IK99wS5dTnJMHaL/odwTOyx89i6fssX5NsVPLLXb/vcXriejoRL/pN/aZoAS3h6GcjSvfEMvJfu14oqWqpuX/vHT/3IUkz/oEZhzPcJxxPK4+WxRtTXHp2WPmeyFAvQr4lWmvTg0UpZy1oX/wB3HV0S2PzsfJA1Qt6Y3kgfV/9Mbx4t0uJc/2RJLrTq3g2P23i9eFMIgO90ubW+8INmtx34Urlv2gm/Dd8ABperJA0bp/JjpQiIGnAAAgAElEQVR7WF8UGcfjCZtZk5s1xaOj9tFhdLi/1Ul+iIoTpZzvh379Xbhq+dZ+Tm1GAUDdsz2R2F60UfdsTySZ6tSoI+z+24zTGqhXojv6tR81osX9INYu+4ph2Fh5AnT8CEHbEwk7tfwq2ppi8WQP69dUSgmWppk8wc9vfYJfw8D/DiX8F1y+vOdb+nbLQxhW4U1MJ61ZFIjticT2BEvdsz2R2H7jH0pepteU7O74Z4ungAfgeO8P1iy50WyryfEE2JVEYNsTCTu1/CramuLSs0fRun+esIno5D6/0vYz/imCijhYGY6OfhZfe7sVH717omUEYKKzCbv/dvG4+JKWl0TCjwHzy441JdEhfr+K6Wf1t4inAXw3DORDuGr5E2Zb6w8vlHCklNLGbU8k7NTyq2hrisWTPdj9t4uXATqMTurzDRt4hZtDqA/jsrPvSnZi3fGg9XBanSR1j91/b/EoebYnEn4MmF+xrikRSFCPEn+LB/W0jKfk5lDp87DmjbcbTSQlHqBGoiVu5yOB8vJHz04te4q2pnLVqWUcu//e4vVMBAjr0a165/psv5GSX4YhPokrlt+c3OTi44VhsAMigJq9AEirk6TusftvF89wICWuaN0/l549ZrxnooHAjxJ/Q9Kf8z0T+ACuD+BcirXLEntwTxI8wNkeFQBpT6V7efmjZ/GUPblZU1nt1AqM3X+7eMYRgTCc6PT9GSfzGXhGw7laS3g5Ll/+TKffbANPS33TXL9Z2ztJSp71Ccw4nuE4w3iUvKKtKX4MmJTJhO9Hl+4ZHNpv/U6o34vG2jA4+Gv9eGBPkrzQK2+E6LTnkbi8/NHzhM3ssX5NWd+pUbcK3f3rMEr0OoxO3tO7O/wu9nubFPR3UHb/f//Ss3/X6TfbyntOUN44El2n6LQaYHv3z12IPXJTFBnH4+qzRdHWFJfeNKKjE/YmE73u+HB+K8NKq59oR30j3BReh2veEEtQmygAOPKiX+xQ5Xl7thqQlwLAZH42z62zeJZv1zheceZneyLJTyeZkzUV43btf88MBlVGIHNcorc73qwBt0PkJ1o514Rqw4+x5v2zPckn8zwAEMF2BcwoAIqWSCh5hdtRG8aj5OVmTfHoaLOgBohZ8m9J4QEAP9Za/TTcd58bMXRSD8GyJXoMkA53pDyPzLA9kdhetFH3bE8ktneSlLz+rykB6pVO9nsCkQcB9UvtqJ+HvvMzfHnpZsPp5M7EEQC9bfoXbE8k7NTyq2hrisWTPaxfU5YXbX1XryA6ha0NhV1KcDeg1omSdX4ot2T1kr0keACgQ73RtfhugFljeyKxPcFS9/KSSPgxYH7FtqZ0CATV3eMET0LhPgX1B3GcuyFyd33ve+7D0FD+L3PrkgcAoVJPl7QGHLejb7Y9kbBTy6+irSkuPXuw++8tXmzq41P/qR314WDVskv6PIPMiy790/rJxnePiS557P7bxePis4XtiYQfA+bXnG9ZUAe0H40T/WCw196r+jGvvHEAINThY9DJHCWxPZGwU8uvoq0pXkNuD3b/7eLFQZq7f/H+uUhn7scpOgLgOn+aPJEi7k6Susfuv7d4lDzbEwk/BsyhiRP/ou5fvhesXfrTtKeUVQ4AeOFz/wSd3v2A8/JHz8Pc2VO0NcUjWfZg999FPB0AQXUyYEUp7yOGYakFBwDWDx1aFwm3p9VJUvJyk8CM4xkOpMQVrfvn0ktQbWzqPzXUxbU1Sx5JcTaZN3X/fx3qp9KcyFzy8kfPRJc9uVlTKXWS1D12/w38KiYf2SuCx4JS+AXDsNRGYwHwuMlTAZnA8sv6BGYcz3CcYTxKXtHWFD8G7JBowN994l8I9c9YsbyS4oxyYXcBAPwp648FzssffVon/1H3rF9TlneS1L1CdP8Nh/5FyzXhmmXXGYalWewuAEQenusRirYnWEpebooi43hcfbYo2pri0pvg1wDtT/5rZ13L+9OcTp5MFQAh5I9J3QvAJtb/0RvHS2e71D3bE4ntnSQlz7ruXzTgN574h4/xXv7x8Sb/Q4l7/2yPVMxLVU3Js74oMo7H4ilrcrOmeMJmpDo69Z9Ky23+ZWdfmeJscmfqCMADQ6/ZIFoPpzkZW9ieSGy/8Q8lz/ZEYucd5CgOfVtTfg1TTanA16XSewDFpRAjp/EfoqXliYC5qaoN41HyirammOjsYf2asrxo64tph/5FnIvqK866N8UZ5VJTAaBFHpzrRECKWJ9ImMAKz/ZEwo8B86vnNdVw6B/AH+r1536mtxlRK00FQAh1P3TzeQC2JxIe5s6voq0pJjp7sPvvLV5P6hU0nI9W1x7eiquO9mf7FupO8xEALfcW4UqAfmH33y4eE5gtbE8k/Bgwv1q+ZToAgkrjmC/6l579u/7NqlimfQTg/a6bjwBsTyQ8zJ1fRVtTvIbcHuz+28XrlgDVsYZ/yr312sGf7zoczampAHhw6H89KtC7Jk8EZKdmj6J1/1x59rA9kfBjwJyojQOYaEAFNXHKb+Gh/2Q5018IQ/ljEicC5uWPnokuewq3pngkyxrs/g3jBXUgrDV8Xf6tvurMewzDUZdmFAACuQc6YALLoNwkMON4hgMpcUXr/rn0YiQaqO8+9K+03FHfJBekOKPCmHkEQJzfpnUpYF7+6Jnosic3ayqlTpKSl9vuvzra+N0jUiq/Bdcs5/XofeDNeEXL7RKa/e65E8ke6xOYcTzDcYbxKHlFW1M8YdNAfRyNt6DXjjrXX3HmwynOqFBmHAG4H7ffDcg4xM4CLDd/9Mbx4t0udc/6NWX558iUvEx1/6EPBNWpfyqtvuWvXPY1w1AUgxkFAIaGtNbyIOY4CsBOLb9yUxQZx+Pqs0XR1lRh94+igVrD3f60PF5V896T3oSKaWYBACAU3GXrEQAT1v/RG8dLZ7vUvbwkkkzeQY6MWNH9N3/uH4TivBVrThsxDEUxaVkABAq3Imh/+aXtCZaSZ31RZByPxVPW5GZNFfWEzWmf+4uoLwZrl92S4owKq00BoP4HAFo9GTAvbE8ktt/4h5JneyKx5w5yFLfE1lRQb/rcH5Bf1Z8Jh8xnRnFqWQA88olTntQimxAGM75mfVVtGI+Sl5tOzTie4TjDeNQ969eU5UVbInQI1Bs+9xdsdtzBN/KSv/S0LAAAQER+N/3JgEVjfSJhAis82xMJPwbMr87WlEx/xG8QanlTZcXpT8c+MTLWtgAI4Nw6/QiA9VW1cTzDgZS4oq0pJjp7sPvvLV5HqqOYus9/NJfPBmvP+VkCW6IOtC0AwrB2AwBk+WqAfmD33y4eE5gtbE8k/Bgwv0QQnfSnG04qF9xYX302n/JngbYFwINDr79TRHZMHgWwPZHwMHd+FW1N8Q5y9mD33y6eoekn/WnZUIN+C6C4ei3QtgAAlISCO1udCEjJKFr3zz2APWxPJPwYMINmnvRXCz05G2uWb0lvUtRolgIACCS8uZMHA+Xlj56JLnsKt6Z4JMsa7P5bB5NK00l/0ND/EqxcfpvZVqgfZi8AgB8DgIT1/syG5pSbBGYcz3AgJa5o3T+XXg9qzSf9QXCFv2b5FanNh1qatQB4+FOn/U4Em+P8GCAvf/RMdNmTmzWVUidJyctF918bg4SNd5KVX9X22ef9Zlugfpq1AACAQMJbogJg9reeOxF7WJ/AjOMZjjOMR8kr2priCZvT1CtAUNv9by1P15R/NoZO4slkFpq7AIC6HhDM9XTAOOXmj944Xrzbpe5Zv6Ys/xyZkmdt9x/UAb+ye5xIVSvnbKx60yazLVC/zVkAeCGuhagA4SwPB2Knljm5KYqM43H12aJoa6oQ+0cdND/eFxCt3H/01yy7Pa0p0dzmLADWD712e6j172crANJg/R+9cbx0tkvJsz2RZOIOctSVvnb/ooHKruZxoi71Vy/9P2bRKS1zFgAAECi5sd3HAOzU8sv6osg4Hk/YzJrcrKm8n7ApMpH8myZ2bW3N0o+kNCPqgFEBIA6+BaD5do4ZkJdEwgSWX7YnEj7yN796f88EqO7C5O3io3Fyd608/mbe6S8bjAqAB84/9R6t5U8Imu8HYHuCpeTlplMzjmc4zjAedc/6NWV50daz6iianhir5Sl3sPw6XPzWsf5MgHplVAAAQCi4LvoYoJhXcxSt+2cCs4ftiYQfA+ZX23eiNobG88JEYZf25PTxi87c0JeJUSyMC4BAy7cBABN3BWSnRqas79SM4xmOM47H1Zc0dv+9xWupPt58rT/Eh3hv9Fcuv7uHqJQC4wLgwaFTf6W1bIyqPu64Wila988EZg/bEwk/BswJvxr9r0Go8YHa6rOuT2lG1APjAgAANNSPAEACs5MB2amRKdsTie2dJHWP3X+7eNMEtaj7b6C1+wX/snMuN4tItumoAAgkjK7rDPhwoG4Vrftn/rKHNYmkbTxe7WKt0I8+928i/6d+2ZKPpzIfikVHBcADnzrt12GoH4UOpy79aMf2P3omuuwp3JrieSyZk8vuPwyiy/0aKfWT6kb5B7NoZKuOCgAACLT6XvQf2bonQJbkJoEZxzMcSIkrWvfPjwHnEAZAdaT5NS23VZ1wKa5Z3r8HxFAiOi4A6vCugoLM9jFA0f7omejskZs1lVInScnLTPevW3T+gj9WxT0dK5ZXzKKRzTouAB4d+l8PhqHcDQhsez5AkVifwIzjGY4zjEfJK9qaKuQJmzqYeYtfwZMK6mSsXbottXlRrDouAAAg0Prr0X/U5hjZXm7+6I3jxbtdSp7tiSStTpKSl2r3r8NWyX+Ldp1TKmuWPWUWibKgqwIgBL4KhbFWJwNyF2KP3BRFxvF4wqYtCrem8nIkS4cTh/13z1QpNRw66nX1lUvvT29ilISuCoCHh04bCUK5DkCilwRa/0dvHC+d7VLybE8kVt1BjmIVe/c/mfxFN7484qvwVH/Vsjs7niBZr6sCAABCpa8EMFEARCuMZ9Rmj/VFkXE8nrCZNblZU3k4YbNV8hc1DrhLg5XLb0thRtQHXRcAD3zytJ9rwUMAAL/7cwH6xfZEwgSWX7YnEj7yN7+M3jMdQioj05I/KuKos6qrl/wssclR6rouAADA1/pqAEBQ72AnwkSXNbnp1IzjGY4zjEfds35NWV60zWnqUr+mE/587bpvqq1a+tN4NkK26qkA8GTwChEZASQXNwYqWvfPBGYP2xMJb6yTQzoAqqOQps/8xdeO8+b6yiXfT21e1Dc9FQDrh04aDUP5lgBAUJ1rOBNdjlnfqRnHMxxnHI+rzxZF6/5njTeR/Gd0/qr0d/VVS68xmwllXU8FAABUXfdiiIQQAcL8PySoaN0/E5g9rEwkTfEMx/FjwHSFbQ77O86b66vO+nZq86K+67kAePSTr3lIa/wcwKwnAzLRUV4SSVqdJCUv991/UAdquxrGCSCoaVU+h51/8fRcAABATeQCANFZpAU4CjCXonX/zF/2YPffW7xcC2pAfdojfQUVcUvL6qvPuDadSVGaYikAHh469RdadHSjiBZHAWz/o2eis0deEknh7iBXIJns/v0qUB9vHqelIq67rLbyzOvMZkB5E0sBAAB17V0IgEcBDOUmgRnHMxxIiWP33y5eThepX4n+10gwLs7gktrKJT9OZ1Jkg9gKgIc+ffJ/C+QBAFG1OXl3wJz80TPR2SM3ayqlTpKSZ033Xx+b2B83GRbg9bVVr7/BbOuUV7EVAABQ0/JFANEqTPAZAUVhfQIzjmc4zjAeJa9oayp/J2wKUBuduR/WsiWQ8G+qq5fdlM68yCYq3nCiDv38DX90oP4CAGRwkdEmrP+jN45n+XaN4xVnfrYnEms6ybbxDMflZU3FuN3E3jOZSP46aB6g5anQdV7Dp/rRpFiPAABKfI1/m/pnBp4RkHXcUfcWj7pXuDWVhSNZoqNr/Kcnf4UHRavjmfypUcwFAPDgp177da31fQCiy07m+Kux/o/eOF4626Xk2Z5I0ur+KXkdvWc6ACojgITTg/zO9dQJ1bXLHo9/hpRlsRcAAFAP9Oendob++OyDKXHWF0XG8XjCZtbkZk3ZfsJmUJ95d79oQzdVymMnjF68dHPMW6QcSKQAeOizr/tmqPEbANFtJ3U4x3fEw/ZEwgSWX7YnEj7yN7+kXp15gx8AEP29imw4FRe/tcUXiRIqAADAF/kwlIr2E/VKyzFMdPbITadmHM9wnGE8Sl7Run+joq3e4hp/AMpxrqrsvf5srHk/T8SitmK+CqDZiz9z/fWu45wKACjNA7xy09fT2FkXrfvPS4LNw/ysTiQdxTMcl4P3LJntmsabZaAIUBsDQn/6qFCLfLS2+uxLDadDBZbYEQAA8Ev4MATR6ah+pWnls1PLHut31MbxDMcZx+Pqs0Uhkr8OgcquFslfxkLlnM3kT6YSLQAe/vhp9wWQr069kJETAtn9U1rY/beLZzgw78I2Z/prbIZyTq6vXPL9dCZGWZRoAQAA9bL3UQG2AIgW78xDVm0x0WVPXhJJWp0kJS+z3b9fmzjTf9p2RR7UcF5RWbn0NsOpEAHoQwHw6HknD9e0/vTUC/VKLvaGRev+s/+O5Qe7/97iZc/E5/31FkdQRf3SC51X1NYseaT/86KsS/QkwEYv/sxP7nIdHCUA4JaA8vxZx+dmp2T5zjCN+dk8t87iZbST7Dqe4bgcvG/WvGeigerojEupBYACvj5eOeiduOpo33AaRE28fm0odPFeV/BrAB5CHwh8wCv1a/OpyMOOsLN4hgMpcUz+7eJlaJGGQZT8Z/x04usQH6lddvaqNKZF+ZH4RwCTHvzEa9cFWq6cesGvRNVtC3nZKVHybE8k1t9BjrqWaPdfr7a7s9/O0Bl4PZM/xaFvBQAAjO7c9REt+FP0L2l7g6AisT6BGcczHGccj5kuaVxTvW03ESJR19/i5j4A7g+BY2orTr+x39OifOprAfDUiuWVWl3+GWrib1YH0QODGuRmp8QEZg3bE0lan/1T8jp6z3QYXeIXtvhIX/DT8Up4XG312Q/FO0Mqsr6dBNjoRUM/+U/XxZumXhhYCDgugOIVACajcvM7MY6Xk/lZXgDwhM1+bNdwnF9tfZY/IFqcL1ZXn3U+oFjZUaz6egRgksyr/aMInph6oVYBIPlJJLy0LnNyk0hiPvmPkiaQ6q42yV+NiCdvrq5e8nEmf0pCKgXAA/965q5KNXynUpi4tiXk+QA9sr4oMo7HEzazJjdrqt9Fmw6AynDrQ/5K7g1dvKxyydnfNNwcUcdSKQAA4E8XvO6nftBwVUDozzgfoBXbEwkTWH5Zm0im4qUzP+qCXwGqI2h1JZQSXDM+PvDy2qVLH0xhZlQgfbsPQCs1PPMhR/Z/taPUoSIA/Gp0LoCT6rRyKzedmnE8w3GG8Sh5ue/+RQO10aj7nz5OMK6V+kB19dKrDTdD1JNUTgJs9PwLrv/LgcC5Q4CF0SsKGFwIqNYHJ8xOmitW95+XBJuH+RWt+8/De5bMdlu8GNajW/o2RJkap/AoSjhn/EvLfmu4CaKepfYRwKSHP37afVUtH9r9igD15j+Shq9QwqzfURvHMxxnHI+rzxbZS/4T+7Ra8139Gsb9YDycdySTP/Vb6kcAJr1w6Cffdh0sn3rB8YCBBU1jYu3UjGPFt81Etmscj/PrLV58yYTdf7t4huOM41lQAOgg6vqnP74XgGiMC3BeZfWyNYahiWKV+hGASbvgv12LrJ96QQdNd8Nip5Y9TCSUlvSTvwD++MSJfjOTvxZ5AAM4gcmf0mRNAbBh6PTxuuMugWDn1ItBPfrcLCXs/tvFMxxIXWP331u8VOkguqOfX231VVHKuaoyvOsIHvKntFnzEcCk5w/deEbJCb+roNzJ16Q0D/DKc34vT/5rF8/e+dk8tyhe2p3kXPFYALSOl9IJm36l3X38AZFt2lHvqqxY9j3DkESJsuYIwKSHh17zg0CrLza9WB+PHo1poTzsCDuLZzjOMB51j8m/XbwUVt/kTX3aJn/1M1HqJUz+ZBPrjgBMeuHQ9f/lOs6ypj/mwYVt7xHA7r9dvOzPz+a5JbNd03gsAFrH6+cJmwLUK9G9/Ft+WVU08OnKqiUX83a+ZBvrjgBM8nDQm0It65perI5FT8zKGOt3hMbxDMcZx+P+MGlcU71td1ZhAIzvAvw2dzAV/FaVysdUVi39EpM/2cjaAmD90KH1er1+hgae3P2qTFxS03z7TNu7f0qe7Ykkre6fEiAT+6HqLkDCme+FqJoo+fTYhvCY0Ytf/4d0Jkk0N2s/Aph0yOdufEEpDH/lKDx76kXlAIOLABVN3/YCwOxkOMNtmg3LT6dmHM9wnHG8fBQAPGEz5u0GdaA23vTVpvdC1H3iydvGL1l2p9lWiNJjfQEAAIcMXXd0WTn/o4A9pl5ULjC4AGL4I9ic/DvarnE8zq/7WEz+rePlZE11s10dtj0ZeeL98AF1+dj4cz+Cq45u8Xg/IvtkogAAgIOHfnziPCXXAWr+1IvKgZQXAM7cn2TkoQAo3I7aOJ7hOON4LABaxzM6Jc4wluE443gJ/k78atvHlQsE0PijVvK2yqqz7zCLTmQHa88BmO6xoVN/URP3DRBM3RlIpp6sNfORmo3ykPypP5j828Ur4CINfWB8pG3yh5KqVrhwTJ4+gsmfsigzRwAmPe+TP3rLgOd8TUG5u3dJKnpugOO2/J68FACF+pzWOJ7hOON4LABax8vB+S6m253lcH9DsFtRGngPT/KjLMtcAQAAz/vUde8bcJ3VmH4EY2DBjPsEFCn5R/E4v97iGRzmZvLvMZ7hOON4cf1eBPCrkHqba/qjIVu1qPPHVy+5ynB6RNZq3TJbbufN37hz8ave5Luu+ms0FjGhD7hedJUAtWX9jto4nuE443gFPMxtqb4n/7AGVEch7bt+UZD/UF75jLGVZ/7ScHpEVsvkEYBJhwz96L0l5axufG4AAGDi2QHs/nuNZzjOOF5O5hfrCZuG49j9t4nX4+9FguiyvokbjLUcp/CoOM57xy456wbDaRFlQqYLAAD486Hr3lZSzlUASk1f8AYgpUGjGCwA2sWLM1ZOfnc8/N9jPMNxRrF6+Z3o6OS+oD7LOBnVwCXj4wf9Gy/tozzKfAEAAIcM3fD6MsJvQzVcIghAHA8oz5+6YVArTP7t4hmOM46Xk/nFmsBMYzH5t47Xze8l+py/1aN6G8aJQH4UKnygumLZo4bTIcqcXBQAQHSfgAHgWqWwGGj4Y1YOMDC//RUCLADaxDMcZxTL3rlF8dj9t46X/fdt9xCJ7tnf5ml9u/cX+l6I84HRlUt/bjgNoszKzdlyjw2d+otKrX4aRHY0fUE0UB3t6XHCedgRdhbPcJxhPOoek3+7eB2svqAGjM/yqN4o4E5R+mOje/zhCCZ/KorcHAGY9LzP/uTwUqh/pJQ6cMYXS4NAaWDqn+z+28UzHGccz6BTM45lOM44Hrv/1vGyv6YQ1KNL+mSWJ4gKfFFypSfOJ3euXLLTcPNEuZC7AgAADh66bv+SVj9wHPWyGV90d58XEGcBYPWOsKN4huOM4+VkfhYXAHzPpgl8wK9EN/SZ3Y8F3kdGV5yx3nDTRLmSywIAAI668q7S8IbN/+4q9daZX1WQ8jzALc380jSZ3xl2HM9wnHG8+ObH5N9rPMNxWV1TE4l/suNvN0xEfiuizhtbtfSnhpskyqXcFgCTnveJ6z5S9tQFgGq6RaBAAG8gumfALHKRwIzjGY4zjpeT+RWoAMjkezYt8bfdruAhDfW5sZVL/q/h5ohyLfcFAAAc9LEfnjZQdv5TKWdPYNqOVbnRLYRb3D0wkzvDnuIZjjOO1//5Mfm3i2c4LktrqkXib7PdjRrqwrGn/MtwzfI5PxcgKopCFAAAcMhnr3uJp50fKODgmTtXBZTnAW656dVcJDDjeIbjjOPlZH4sAHqIZTjOOJ5EowM/uo6/zcl9DZf+DYeCS8ZVeDFWLJ/lEgCiYipMAQAAh3zxp3uosfpXXVctbTnAKUWFgHLyk8CM4xmOM45n7/yY/NvFs/c9AwRSq0b37Jc5Hv8tsgtKXYkavrhr7dJtZrMgKp5CFQCTDv7UdW8vO2oVgEUtB3iDEG+g5ZemszqBmW2yYImEBUD7eBae7yISndHv1+YeLXpMw/mKckqf23XJ6VvNZkBUXIUsAADgwE/c+IJ5bvAdpXDE9K+JILpzYHn+rE8WtD6BGcczHGccL/vzY/LvNZ7huHZf0EF0mD/wJ8bNElD0GOB8RZj4iTpS2AIAAA4d+k65oudd5Dnu/0bDXRGbdl5e882DGtmcwEzj2Ty3KJ7hOON47P5bx7PkfJfQjx7S03ANf9vfiWAUwFeB+Z8ZWfHa7YZTI6IJhS4AJj33E9efPejgy3CwT8sdl3Kiuwg23DfA+gRmHM9wnHG8nMyv2wTWZawoXnGSf1M8keh2vX7rz/dn/F4EOzTU2lJ54cU7Ljx52HBaRDQNC4AJB3zoh8+aN99d47h4A6TN78VxJ04SdO1PYMbx4oxVnOTf2XZN4xWsANBBlPQbHsk7c5sNwbR6Qly5YsB112696MxdhtMhojZYAExz0Md+eFppwL1cCQ5qN0bcUnQDoVkeMwzkaEdtHC8n84txu0z+LSIF9eikvrlv1QuJfjP3SuisHd1rj69g6KTun+pFRE1YALSw34dvWLBgXnCx66p3QTDjOcJTO7nSwMT5Aa1/jdnfWZvHs3luUTx2/63j9el902HU6QfV2cc1fAcUfu6LWjF+6VnXG26eiDrAAmAWB53//VeUvNLVCuovJ1+bueNSQKk8oxDI7I6663g5mV8KBUBuk79E3T7CenRWf7txzeoQ+UEA57NjK86613DTRNQFFgBzOHRofXlMP/rxkuN+EIJF7XdeCigPAF4ZQAdPGjScRx4SrM1zS2a7pvFyVgBMJv3Qn31c80aeCAVfhSdXjF68dLAKz90AAAiLSURBVLPhJomoBywADD3v49fup7zSpx3Bu6DgtR+pIN7MIwKtpL6jji1eTuaXgwIgtfcsnDzEP/sNe6ZtVgvwayj36pEnqt/gffqJ+osFQIcOHPrxYQOhrFIKJ7YbE+3Q1cTTBmc5R8Bwm7lJsEaxDLdpNqxQyT+KZzgujvdM9MR9+WuQNvfln7ldACLbBPhPUVi769KlDxp9IxHFjgVAl55z/nVnlh25WCnn+Y2vt9yhuxNHBJTbMM5MkZJ/FM9wnHE8FgAzY/Xwnk0m/WD35/odvBf3ilJfGdnlXY2rTh83/DYiSggLgB4cOrS+PBY89j5XyYeVcg4A5tihO6WoEHC84iVY43hxxmLybx2vw/dsKum3vnRvjmibReO/1Lzy1TsveN3dhlMkoj5gARCDQ4fWl0f9R9/tKeejcPCcucYL3KgQcEuz3kuAyb/XeCwAWsczOGFTNOBPnsHf/vB+m0h1KOcWLerrI7sO+BauOrr12YBElCoWADGKCoHH3+068lGl2hcCTftf14vOFWi4zfDucTlJsMbxDMcZxWLybx1vlpE6nDp7X0LDz/Sb/3mvKHwz8J2vjq06c5PhlIgoJSwAEnDo0PryiP/oP5dc51wFPHf611vug5UTXULolaeeQJiLS+uM4xmOM47HAqB1vIaRgomEXwfCsCmK8drT8hQc9e3ALX1l9KLX3284DSKyAAuAJA0NOc+pHX6G53ofcBznVQCU0Q7d9SBOKTp5cI53yPoEaxzPcJxxPJPD3HFv0zReism/ocuHnvngnalxs1IbBfo6cdW3hi866+eAMp0CEVmEBUCf/Nn5P3h5STnnOsASKNX6+cINpvaojhd9PNCmGDA7HG42xyIl/2S2axqvj/PTYZTswwASBnONnthuy0NUGwT6eiZ9ovxgAdBnfzZ0/YFeoD/oAG9VSu3TakzbPeu0YsD6BGscz3Cccbz4Emzmkn9Dwo8u05PO4jV/RPAkHOfawJVv7rrwrFvNIhBRVrAASMlRV95V2vTExuWewjsU1KuV2n2TAKN9tXIgrgc4ZcCd8byiJlbfQc7i5N/Zdk3jxTy/Ngm/y3giwL3Q+sbQ8/575KIzbjebBRFlEQsACxxw/g3PcXTt7SXPeTOg/sLke5oTnQK80sQRAm/qJMJonNkcWAD0ul2TWD3OTXSU5HUYHdLXZk/GnWNuFQC/1kr9CNr7/s5LXve4UVAiyjwWAJY54KPXnlwqu+9wBKfCUXu0GzdrolNudFTA8SBOc0HQNp7B3Jj8e43XwfxEAAmis/N1EHX4076/6/mJPCBQN4YIrhtZtM/PMHSSWSVBRLnCAsBSR115V2nTk8+c7in1BiXyWii1ePJrnSdiZ6IgKAGOEx0paDlujngsAHqM12agDqMz8nUQHdLXYdTtxzQ30bIFSm4TpW4ShR8Of2nJI4bfTkQ5xgIgAw4dWl/eWXv8DM8N3+AIThGlFpl836xJQrnRxwWOC1Eu4Mx+HgHQwbXhJnMrYvIXPdHRh4BM/G/apXjxPKRHtkA5t4WCm5Xr/XTHha+712yWRFQkLACy5pzvuP/fgeVXePOcJY7CKUo5L0aL97GrBOY4UWEw9RGC29FNibrebizxbCgAJpK86CixTyZ40VFnbxSv8yJLRLYp5d4dKvUrx8UN27/w+tt5mR4RzYUFQMbtd96PDvEcLHEVTnEUXglgPhBzInYcCJzmAsFxWj7HwOr7EvS6XZlM8AJICNGNyV63PWwf688hytei7wPwG1HuOrjurezwiagbLADyZOLogDNPnehodZxycYJSzsJ2w7u6Nnw65UT/cxwI1MS/1UShgN3/7ma7ZsN6KAAk+p80/0+0BqAbkn3r5N6Xn0M5WyByRyi4VTt63YL53m0bhvgoXSLqHQuAPBu6yfuz+tgJAP7GgRzvKBwOpfac/HIsBUDjuFm/OlkcICoUgBbFwe7/lsZ/q8avSdOGpCkxT5vBZFIHJrr1hoTf9mdI6aMEDR+QRwXyRxHcK1qt0wPer4a/+PodhiGIiDrCAqBg9j/vewc7cI9TrjpaaRzpKByNWU4qTO+z/5gTcVrbbf3iFoHco0TdHwjWK0/uGZzn3s3Onoj6iQVA0Z3zHfeAQ+cdjpo60lE4HJC/VMCLlFIHAFA2FwBWJ3+R7aLwhGh5HA7+FIrzILzgHm8g/P2WoeWjZjMiIkoOCwBqaa9//ekeAzL+Ukepv1Ku+nOl8AIlcrAo9VwlaDqvoKDdfx1KbRAtj0PwWKjkUUepR6SkH9LBwgd2XHjysNlWiYjSwQKAOvasj157gBvoF7sDpYOh5DkI5UC46kAlOADA/kphbwAzbiyQRgHQ6TZFMAyFLRBshcgzADZpx9kAYBM0nlaD3tMq9DdsvuDMTWaRiYjsxAKAEiDqWR//7v4Ki/bzfH9/Kct+0LKfiCx2ldpTRO+poBYrpRYDMl8mLl1UggERGYxiqEFRKAOAUmo+INHtC7WqipK6iEBBNETtPpzuqFGBhACgoOoAxrXWw1BqBKJGBLJLA8NKMALP3SkhdsDVw45X3lnfVRleqPxNT61YXunrr4qIiIiIiIiIiIiIiIiIiIiIiIiIiIiIiIiIiIiIiIiIiIiIiIiIiIiIiIiIiIiIiIiIiIiIiIiIiIiIiIiIiIiIiIiIiIiIiIiIiIiIiIiIiIiIiIiIiIiIiIiIiIiIiIiIiIiIiIiIiIiIiIiIiIiIiIiIiIiIiIiIiIiIiIiIiIiIiIiIiIiIiIiIiIiIiIiIiIiIiIiIiIiIiIiIiIiIiIiIiIiIiIiIiIiIiIiIiIiIiIiIiIiIiIiIiIiIiIiIiIiIiIiIiIiIiIiIiIiIiIiIiIiIiIiIiIiIiIiIiIiIiIiIiIiIiIiIiIiIiIiIiIiIiIiIiIiIiIiIiIgo4/4fEJ2Fux+M+rgAAAAASUVORK5CYII=;" vertex="1" parent="1">
          <mxGeometry x="840" y="319" width="190" height="190" as="geometry" />
        </mxCell>
        <mxCell id="fVwzWta8XXvmtXb5B4zN-4" value="" style="shape=image;verticalLabelPosition=bottom;labelBackgroundColor=default;verticalAlign=top;aspect=fixed;imageAspect=0;image=data:image/png,iVBORw0KGgoAAAANSUhEUgAAAgAAAAIACAYAAAD0eNT6AAAACXBIWXMAAA7DAAAOwwHHb6hkAAAAGXRFWHRTb2Z0d2FyZQB3d3cuaW5rc2NhcGUub3Jnm+48GgAAH+JJREFUeJzt3Xm03WV97/H3yTwQAmGSMYSAjOVWQCqIUhS0SBEnqBcvIGIVq8Vh2UvrVGqvVleXraLitcq1MjpXlFoBS0FEECgyDzEMGSRhSMKQhIwn94/fSXKys0+yzzn7+X732b/3a63vSpYufX7fZ2etz/Obnh9IkiRJkiRJkiRJkiRJkiRJkiRJkiRJkiRJkiRJkiRJkiRJkiRJkiRJkiRJkiRJkiRJkiRJkiRJkiRJkiRJkiRJkiRJkiRJkiRJkiRJkiRJkiRJkiRJkiRJkiRJkiRJkrR1PdkHIElqqgc4EngLcBSwB7A7sBR4ElgAPAjc1+/PRSlHqhHJBYAkdZYe4FTgM8C+g/zfPg080leP9vtzLvAEsLp9h6mRzgWAJHWOvYDvUJ3xt1sv1ZWDecDv+/7s//f5VIuEVQXGVgdyASBJneGVwI+AnROPYR2wkGpR8HuqKweNf58PrMw6QLWPCwBJyncYcBMwKftAWvQUGxcDj1PdZnis789HgWVpR6aWuQCQpFy7ALdRXf7vFk8Bs6geTny478+HqBYLvXmHpf5cAEhSriuBt2cfRJAXgXuAO4Db+/58CFibeVB15QJAkvK8jCoER2UfSKKlwG+p5mF9zUo9IkmSCvsB1YN31qa1ALgcOAeYMeTZ1RZ5BUCScoyn2rhncvaBjACzgZ8AV1M9LLkm93AkSRq615N/pj0SazFwKfAGYOygZ12SpGR/TX6YjvR6GvgqcPQg516SpDRfJD9Au6keAs4Hth/MjyBJUrRLyQ/Nbqznga8Ae7f8S9RUnV89kaRMz2UfQJeaAryf6lXCS4ADcg+nc7kAkKQc87IPoMuNBc4A7qe62rJn7uF0HhcAkpTjoewDqIlRwP+imu9P42uXkqRkk6k+mpN9z7xu9XvghBZ+n643OvsAJKmmVgNHAAdmH0jNTAHeQbUR041UiwJJkkIdSfV1vOyz4rrW94AxW/2VupRXACQpz++Bg/tK8Q4GJgHXZR+IJKl+9qD6+E322XBdqxf4k63+SpIkFXA4sJz8MKxrPUQNbwV4C0CS8i0AbgdOBiYkH0sd7Qg8CNyXfSCSpHp6KVUIZZ8R17H+vYXfR5KkYsYAfw7MJz8U61SrgYkt/D5doyf7ACRJTY0HjgX+lGrjmn2p4X3qYEdS3YqpBRcAkjQyjAP2p/q4zUFUGwgd2PefjU88rm5yNvCv2QcRxdWkJI0Mq4B7+6rRrsAMYDrVZ3D7/zmdml3aHoYp2QcQyQWAJI18C/rq1wP89xOpFgn7ALs1+fv6P+tuXPYBRHIBIEnd70Xg0b4ayGRgL2D3vtoT+DPgkOJH1zlWZB+AJElZJgBnAneT/2R+dB3XhvmTJGlE2R/4EvAs+UGcUb1UGwJJktT1RgHHAz/FrxLeNcy5HHF8BkCS6mc74CzgQ1RvCwj+M/sAJEkq5Ujg21QPu2WfcXdanTiMeZUkqeOMpzrbv438kO3Ueg43U5IkdYmpwAfxmwKt1BVDnGNJkjrGTKqn+ZeRH6wjpd42pJmWJKkDHAN8D1hDfqCOpHqRmm0BLEka+cYCpwK3kh+kI7X+bdCzLklSkm2p7u/PIT9AR3qdOci5lyQp3Azgc8AS8oOzG2oVMG1Qv4AkSYFehvf3S9TPB/MjSJIU5RjcprdkndH6TyFJUnnHAL8gPyC7uZYB27T6g0iSVMoo4GTgdvLDsQ51WWs/iyRJZYyjehL9IfJDsU7l3v+SpBSTqV7lm0d+GNatnsSv4ToBkhRse+AvgfOAHZKPpa6upHqjQpKk4qYA5+M7/OvrDuA9wJ0JYx+xld9KkqRh24Yq+BeTH7rZtQT4OnBo39z8YcIxzNrCbyVJ0rCtD/5F5AdvZq0FfkV1tj+xYY4uTjieTzT5rSRJGrb1D/ctJD98M+sJqm2LZw4wT9sT/8niXmCfAY5HkqQhMfirs/3rqL5QOHYr83V+wvHdtJVjkiSpZZOBvwKeIj+As2oO8Elg9xbnbDTweMJxnt3i8UmSNKAJwEeo3inPDuCM6qXarvjNVIE+GG9KON4lwKRBHqckSRuMBt4FzCU/hDPqeeArwIHDmMMbEo77wmEcrySp5o4H7iY/hDNqFtV9++2HOYdHJB3/IcM8bklSDR0N/JL8EI6u9Q/1nQz0DHsWK99L6OOXbTp2SVJNHExOYGXXEuBLwN7DnsFNzQBWJ/Tzjjb3IUnqUjOBK6jOgLPDOLJuB84Axg9/Cpu6MKGnZ6ge2JQkaUA7Um1es4L8MI6q/pf5S5oGvJDQ3z8W7kuSNIJtA/w9sJT8QI6qZcBFwH5tmL9WfCKgp2aLm4F2IpQk1dgo4ByqbWuzAzmqFgAfJ/ZTxJPI2S/hxxHNSZJGluOA35IfyFH1MNVWxY0f5InwoSEcbzvq2IjmJEkjw37U68n+X9He1/gGazwwfyvHWKLuiWhOktT5pgFfBFaRH8qlayXw/+iMzW/eR84cnBXRnCSpc42l+hZ9HT7Ws5Tq/f092zJzwzcWeIz4eXgSX/2TpFo7HriP/GAuXc9TBf+u7Zm2tjmHnPn4VERzkqTOcyhwPfnBXLoWAn8NbNueaWurMcDviJ+TFcAuAf1JkjrIdlRnwhnbzUbWHKon+jv587ZnkDM3X49oTpLUGXqAM6nOiLPDuWTNpgr+Ulv1tsso4F7i52cNcRsbSZKSvYzqVbfscC5Zd1MtcEa3ac5KO42cefpuRHOSpFw7AF+juz/YcztwUrsmLEgP1YIlY74OD+hPkpRkFNXZcDe/1ncPcCp5m/cMx5vImbNrIpqTJOU4HLiF/IAuVfcycoN/vdvImbvXRDQnSYq1E3Ax3Xu5/x7gLYzs4Ac4kZz5uy2iOUlSnB7gbOAZ8kO6RN1HdcY/ql0TluzX5MzjWyOakyTFmAlcR35Il6gHGFlP9bci6+z/AbpnASVJtTYO+CTwIvlB3e6aBZxOdwbWb8iZ09MjmpMklXUM3bl3/1PA+XT+Bj5DdRI58zqbasthSdIItX4L3257yO8F4HPAlPZNVUfKOvt/Z0BvkqRCTgbmkx/W7ayVVHvS79zGeepUbyRnjudQ3S6SJI0wM4D/ID+s21lrge/19VYHPeS99//egP4kSW00CvgQsIz8wG5nXQUc3MZ5Ggmydv2bR/c+TyFJXemldN+He24Cjm7nJI0QPcBd5Mz5Xwb0J0lqg9HAR4Hl5Ad2u+ohqvvfdfVWcuZ9PjAhoD9J0jDtC9xIfmC3qxbT3a/0tSLz7P8DAf1JkoZhDFVQdsuGPquonuzfqZ2TNEKdRs5v8AQwMaA/SdIQHUze0+El6jrgkLbO0Mg1iurjRRm/w/sD+pMkDcFY4BNU78Fnh3Y76m7g+LbO0Mj3dnJ+C5/8l6QOdShwJ/mh3Y5aCPw53fWxnnYYRd5WzX8R0J8kaRB6gA8CK8gP7uHWSqotiae2dYa6x6nk/C5z8exfkjrKdOAG8oO7HXUVsE9bZ6e7ZD75/76A/iRJLTqV6pW47OAebs0G/rTNc9ONTiHn9/HsX5I6xHbA5eQH93BrOXABbirTqqy3Os6NaE6StGUn0B1f7vsp9flgTzu8gZzfaQ6e/UtSqolU37VfS354D6dmAye1eW7qIOv7DX7xT5ISvZxq3/vs8B5Oebl/6E4g5zebA4wL6E+S1GAU8HFgNfkBPpz6EdXbChqaX5Lzu70nojlJ0qZ2A64nP7yHU4/j5f7hOpac3+4xPPuXpHAnAAvID/Ch1lqqj/ZMaffE1NB/kvMbevYvSYHGUt0nH8kP+t0FHNnmeamro8j5DX3vX5IC7Q3cQn6AD7WWUX162L372+fn5PyWfvFPkoKcATxPfogPta7Gh/za7eXk/JZP4JsaklTcRKoP32QH+FBrAXBm22dFAN8k5zf9cERzklRnhwEPkx/iQ6le4BJgh7bPiqA6A19C/O/6NLBNQH+SVFvnMnI/3fs74FXtnxL1k7Xt7/+OaE6S6mgCeZd2h1u9VK/2eYZY3keJ/32fwdc2JamI/YB7yA/yodQjwB+3fUY0kK8R/xt/PKQzSaqZtwHPkR/kg621wD8Bk9o/JdqCy4j9nZcAU0M6k6SaGEP1Bb9e8sN8sPUI1Ta0ihd9BeCCkK4kqSZ2J+8TrsOpNcAXqF5RVI7PEvd7PwdsH9OWJHW/YxmZe/nPxrP+TvBm4n7zzwT1JEldrQf4GNVZdHaYD6Z6qe71e9bfGaYR8z2IF4Adg3qSpK41heq799lhPtiaB7y2wHxoeK6j/G//j2HdSFKX2he4j/wwH2xdifd/O9UJlP3tnwN2CetGkrrQ64HF5If5YGoJcHqJyVBb3Uy5fwMfDOxDkrrOXzHy7vdfD+xVYjLUdjMps3/EnVSvqEqSBmkScAX5YT6YWkG1xeyoAvOhck6jvQ8EzgH2CO1AkrrEXlRnUNmBPpi6Bzi0xGQoxGnASob/7+AJYP/gY5ekrnAs8BT5gd5q9VJt6jO+xGQo1GuAxxn6v4WfATtHH7QkdYP3A6vID/VW6yngxCIzoSyTqDbuWU7r/w4eBM6i2qNCkjQIY4CLyA/0wdT1wG4lJkMdYVvgTODfgfk0D/2vAW/EZz4kaUimAteQH+it1hrgk8DoEpOhjjUR2IdqB0Gf7pekYZoB3E9+qLda84BXF5kJSZJq4hXAQvJDvdX6CbBDkZmQJKkmTmVwD1ll1irgfHzAS5KkIeuhCtOIr7C1ox6julIhSZKGaAJwOfmh3mp9n+rrg5IkaYh2ouxHV9p9yf/DeMlfkqRh2Qd4mPxgb6WepNoNTpIkDcPLqUI1O9hbqRuBXctMgyRJ9XEC8Dz5wb616gW+BIwtMw2SJNXHOxkZe/o/D7ytzBRIklQv55Mf7K3UA8CBheZAkqTaGAN8k/xgb6W+TfXVN0mSNAyTgZ+SH+xbqzVUVygkSdIw7cDIeMd/EXB8oTmQJKlWpgOzyA/3rdW9wMxCcyBJUq0cAMwlP9y3VlcDUwvNgSRJtXIY8BT54b6l6gU+B4wqNAeSJNXKq4FnyQ/4LdULwFtLTYAkSXVzErCc/IDfUj0CHFJqAiRJqpvT6fzd/W6geitBkiS1wbnAWvIDfkt1JTCh1ARIklQ3nb61by9wQanmJUmqo8+TH/BbquXAacW6lySpZnqAfyY/4LdUTwOvKjUBkiTVTQ9wIfkBv6W6D9i7UP+SJNVOD/BV8gN+S3UtsF2pCZAkqW5GA98iP+C3VN8AxpaaAEmS6mY0cAn5AT9Q+aS/JEltNhb4AfkhP1CtBs4p1r0kSTU0Dvg38kN+oFoKnFise0mSamg88DPyQ36gWggcXqx7SZJqaCxwFfkhP1A9AuxXrHtJkmpoNPAd8kN+oLoN2LlY95Ik1dBo4AryQ36gug6YUqx7SZJqaDRwOfkhP1B9C9/xlySprXqAfyE/5AeqLwOjinUvSVIN9QBfIz/kB6rPlWtdkqR66uS9/XuBD5drXZKk+urUr/qtBs4s2LckSbX1WfKDvlmtBN5asG9JkmrrPPKDvlktBV5XsG9JkmrrLKr769lh31iLgaML9i1JUm2dCqwhP+wbawFwSMG+JUmqreOBFeSHfbPwP6hg35Ik1dYrqO6vZ4d9Y83Fj/pIklTEoVT317PDvrHmADML9i1JUm3tS3WJPTvsG+txYJ9ybUuSVF+7UQVtdtg31mxgr3JtS5JUX9sCvyU/7BtrFrBHwb4lSaqtscC15Id9Yz0E7F6wb0mSamsUcAX5Yd9YDwAvKdi3JEm19gXyw77ZZf/dSjYtSVKd/QX5Yd9Yc4DpJZuWJKnO/gxYS37g96+5wIySTUuSVGfH0nlb/M7HTX4kSSrmEOBZ8gO/fy0A9i/ZtCRJdfYSOm+jn6fwq36SJBUzEbiF/MDvX0uAw0s2LUlSnY0CfkB+4Pev54AjSjYtSVLdfZ78wO9fy6keRJQkSYW8i/zA719rgLcU7ViSpJo7FlhJfuivr17g7KIdS5JUcwcAi8kP/f71kaIdS5JUczsBj5Af+P3rgpINS5JUd2OBG8gP/P711ZINS5Ik+L/kB37/uozqNURJklTI+8gP/P51NdUVCUmSVMgxdNYT/7cDk4t2LElSzU2n2lM/O/TX1yPALkU7liSp5iYCd5Af+uvraeClRTuWJKnmeoDvkB/662sZcFTRjiVJEp8iP/TX1xrglLLtSpKkk4G15Af/+np32XYlSdK+wBLyQ399/W3ZdiVJ0iTgbvJDf31dXLZdSZIE8C3yQ3993QiMK9uuJEn6APmhv75mAzuWbVeSJP0RnbPT3yJ811+SpOJ2BuaRH/zrgFXAa8q2K0mSRgPXkh/86+s9ZduVJEkAnyc/9NfXPxTuVZIkAScCveQH/zrgh8Cosu1KkqQ9gGfID/51VB8bmlS2XUmSNAa4ifzgXwcsBPYs264kSQL4LPnBv47qif9jC/cqSZKoXrFbQ374rwPeW7hXSZIE7AIsID/41wEXFe5VkiRRPWH/C/KDfx1wM+7xL0lSiL8jP/jXAXOodh6UJEmFHQusJT/8lwOHFe5VkiQB2wNzyQ//dcA7CvcqSZL6XEl+8K8DLizdqCRJqryL/OBfB9yKD/1JkhRiJvA8+eG/CNi7bKuSJAmqrX5vIT/81wKvL9yrJEnq0ylb/X68dKOSJKnyKjpjq9+r8fO+kiSF2I7OeOXvUarXDyVJUoBLyA//FbjZjyRJYU4hP/zXAe8v3agkSarsCCwkP/x/AvQU7lWSJPX5PvnhPxeYVrpRSZJUOYP88F8NHF26UUmSVNkNWEz+AuCjpRuVJEmVHuBn5If/z/C+vyRJYc4lP/znUz2AKEmSAuxF/od+1gCvLt2oJEna6D/IP/v/P8W7lCRJG7yT/PC/AxhXuE9JktTnJcAicsN/KbB/6UYlSdJGPyT/7P/dxbuUJEkbnEp++P+4eJeSJGmDHcjf6/9JYJfSjUqSpI0uJTf8e4E3FO9SkiRt8DryL/1/sXiXkiRpg4nAbHLD/6G+45AkSUE+Q274rwWOKd6lJEnaYH9gBbkLgM8W71KSJG3QA1xPbvjfD0wo3agkSdroHHLDfzVwRPEuJUnSBjsAT5O7APjb4l1KkqRNfJvc8L8TGFu8S0mStMEfU226kxX+K4E/KN2kJEnaaAxwN176lySpVj5Cbvg/CIwv3qUkSdpgF+BZ8sJ/LXB08S4lSdImLiP37P+fyrcoSZL6eyW5D/49BmxTvEtJkrTBaOAucs/+X1e8S0mStInzyA3/i8u3KEmS+tsZWEJe+C8EphXvUpIkbeLr5J79n16+RUmS1N/BVB/cyQr//6L64qAkSQp0LXnhvwLYv3yLkiSpv1PIvfT/qfItSpKk/sYBD5MX/rOACcW7lCRJm8je7/+15VuUJEn9TQMWkRf+l5RvUZIkNfoKeeG/hGrfAUmSFOilwCryFgDnlW9RkiQ1+iF54X8fMLZ8i5Ikqb8/Ivdrf8eVb1GSJDW6ibzw/05Af5IkqcGbyAv/ZcD08i1KkqT+RgP3k7cA+Fj5FiVJUqP3khf+s3HHP0mSwk0GniBvAXBK+RYlSVKjvyEv/K8P6E+SJDWYSt6Wv2uBw8u3KEmSGv09eWf/3wjoT5IkNdgReJ6c8H8B2LV8i5IkqdEXyDv797U/SZIS7Eq1+U5G+M8DJpVvUZIkNbqIvLP/0wP6kyRJDWaQ97nfO4Ce8i1KkqRGF5N39n98QH+SJKnBdGAlOeH/84D+JElSE98kJ/x7gcMC+pMkSQ0yz/4vC+hPkiQ18Q1ywn8lMDOgP0mS1CDz7P+LAf1JkqQm/oWc8H8e2CmgP0mS1GBv8t77/3T59iRJUjNfJSf8lwDbB/QnSZIa7AwsJ2cB4Ad/JElK8g/khP/TwJSA/iRJUoNtqS7DZywAPhzQnyRJauJj5IT/E8DEgP4kSVKDCcACchYA5wb0J0mSmvgAOeH/ODCufHuSJKnRGKog9uxfkqQaeTs54T8PGB/QnyRJauJWchYAH4hoTpIkbe5ocsJ/AT75L0lSmu+TswD4UERzkiRpc9OB1cSH/0JgUkB/kqQOMyr7AATAeVRvAET7AtX3BiRJUrApwLPEn/0/B0wN6E+S1IG8ApDv3eQE8UVUiwBJkhRsNPAI8Wf/K4DdAvqTJElNvI2cJ/+/EdGcJElq7mbiw78XOCiiOUmStLkjyDn7/3FEc5IkqbkryVkAvDKiOUmStLndgVXEh/9vIpqTJEnNfZ6cs/83RzQnSZI2Nw54kvjwfwj3fZAkKc3p5Jz9vzuiOUmS1NyNxIf/QmBCRHOSJGlzB1C9hx+9APibiOYkSVJz/0x8+C8FdohoTpIkbW4CsIj4BcCXIpqTJEnNnUF8+PcC+0c0J0mSmvsV8QuAa0M6kyRJTR1IzsN/p0Q0J0mSmruQ+PCfA4yOaE6SJG1uIrCY+AWAr/5JkpToncSH/0pgl4DeJEnSAG4hfgFwaUhnkiSpqUOJD/91wCsimpMkSc19mfjw/++QziRJUlNjgaeJXwCcHdGcJElq7hTiw38xMCmiOUnSyDYq+wC62BkJY14MLE8YV5IkAVOpgjjy7L8X2C+iOUmS1Nx7iL/8//OQziRJ0oAyPvxzWkhnkiSpqb2J//DPImBCQG+SpC7hQ4DtdxbQEzzmlcCK4DElSVI/DxN/+f/wkM4kSVJTRxEf/veGdCZJ6ireAmivrHf/JUlSknHAM8Se/a/Gz/5KkpTqzcRf/v9RSGeSpK7jLYD2eUfCmP+aMKYkSeozCVhG7Nn/QqovDkqSNGheAWiPk4n/Ct+lVM8ASJKkJD8g/v7/H4R0JkmSmpoELCU2/H8T0pkkqWt5C2D4TgImB495WfB4kiSpwXeJPftfC+wW0pkkSWpqEvACsQuAX4R0Jknqat4CGJ4TgW2Cx/xu8HiSJKnBlcSe/a8CdgjpTJIkNTUBeI7YBcDVIZ1JkrqetwCG7kRg2+AxvfwvSVKyy4k9+38RmBrSmSRJamo88Zf//fKfJKltvAUwNMcRf/n/yuDxJElSgy8Te/a/lPjdBiVJUoNHiV0AuPWvJEnJDiY2/NcBbwzpTJJUGz4DMHjRYbwUuDZ4TElSl3MBMHgnBY93DbAieExJktTPNGANsZf/zwjpTJIkDegMYsN/De79L0kqwFsAgxN9+f+XwKLgMSVJNeACoHVjgNcHj3lV8HiSJKnBccS//jcjpDNJUu14BaB10Zf/7wYeCx5TklQTLgBad2LweF7+lyQp2e7EX/5/WUhnkqRa8gpAa04IHm8ucFfwmJKkGnEB0JrXBo93FdVVAEmSlKQHeILYy/9/EtKZJEka0CHEhv+LwKSQziRJteUtgK07Pni8m4DlwWNKkmrGBcDWRS8ArgkeT5IkNRgDPEfsLYCDQzqTJEkDehWx4T+f6qFDSZKK8hbAlkW//ncNvv4nSQrgAmDLvP8vSVLNTAZWEXf5fw0wLaQzSVLteQVgYK8AxgaOdzuwOHA8SVKNuQAY2KuCx/PyvyQpjAuAgb0yeLxfBI8nSZIajAFeIO7+/zJgXEhnkiThFYCBHAZsEzjer6keOJQkKYQLgOaOCR7vxuDxJEk15wKguegHAF0ASJKUrAd4krj7/y8CE0I6kySpj1cANrc/sHPgeLcAKwLHkyTJBUATXv6XJHU9FwCbOyp4vBuCx5MkSU3cR9z9/xXAxJi2JEnSQKZQfZQnagHg5X9JUgpvAWzqCGB04Hi/ChxLkqQNXABs6sjg8W4NHk+SJMAFQKOXB493W/B4kiSpibnE3f//XVBPkiRtxisAG70E2DNwPC//S5LSuADYyPv/kqTacAGwUfT9fxcAkqQ0LgA2OjxwrBeBewLHkyRpEy4ANvofgWPdDqwOHE+SpE24AKjsCOwWOJ6v/0mSUrkAqPxh8Hj/HTyeJEmbcAFQibz8D3Bn8HiSJG3CBUAlcgGwFJgdOJ4kSZtxAVCJXAD8FugNHE+SpM24AIBxwAGB43n5X5KUzgUAHEi1CIhyV+BYkiQ15QIADgoezysAkqR0LgCqKwBRVgAPBo4nSVJTLgBirwA8iDsASpI6gAuA2CsA9weOJUnSgOq+ABgDzAwczwWAJKkj1H0BMBMYHzjefYFjSZI0oLovACIv/4NXACRJHaLuC4D9A8daBswJHE+SpAHVfQEQef//AdwCWJLUIVwAxPH9f0lSx3ABEGdW4FiSJG1RnRcA44A9Asf7XeBYkiRtUZ0XAHsDowPHcwEgSeoYdV4ARF7+B5gdPJ4kSQOq8wJgr8CxFgIvBI4nSdIW1XkBsHvgWJ79S5I6Sp0XAJEPAD4eOJYkSVtV5wVA5BWAeYFjSZK0VXVeAEReAXABIEnqKHVeAHgFQJJUW3VdAEwGpgaONzdwLEmStqquC4DIy//gFQBJUoep6wJgt8CxlgFLAseTJGmr6roA2DlwLC//S5I6Tl0XANsFjrUgcCxJklpS1wXAtMCxngkcS5KkltR1AbA2cKynA8eSJKkldV0ARH6Y54nAsSRJakldFwCLAseaFTiWJEnagj2AdUF1SFBPkiSpBbMoH/6PU9+rLJKkDlbncLoyYIzLgN6AcSRJUot2oHoYsNTZ/4vAjLBuJElSyz5NuQXABXFtSJKkwRgL3Ez7w/9+YEJgH5IkaZD2ovpaX7vCf17f/6ckSepw04EHac9T/wfFHrokSRqOHaneDBhq+P8I2D78qCVJUlscD9xK68F/M3BSypFKkjREPdkH0MEOAP4ncFjf33cHVgBLgEeB/wKuA27POkBJkiRJkiRJkiRJkiRJkiRJkiRJkiRJkiRJkiRJkiRJkiRJkiRJkiRJkiRJkiRJkiRJkiRJkiRJkiRJkiRJkiRJkiRJkiRJkiRJkiRJkiRJkiRJkiRJkiRJkiRJkiRJkiRJKun/A2mbqmKnxE96AAAAAElFTkSuQmCC;rotation=20;" vertex="1" parent="1">
          <mxGeometry x="280" y="210" width="170" height="170" as="geometry" />
        </mxCell>
        <mxCell id="fVwzWta8XXvmtXb5B4zN-5" value="" style="shape=image;verticalLabelPosition=bottom;labelBackgroundColor=default;verticalAlign=top;aspect=fixed;imageAspect=0;image=data:image/png,iVBORw0KGgoAAAANSUhEUgAAAgAAAAIACAYAAAD0eNT6AAAACXBIWXMAAA7DAAAOwwHHb6hkAAAAGXRFWHRTb2Z0d2FyZQB3d3cuaW5rc2NhcGUub3Jnm+48GgAAH+JJREFUeJzt3Xm03WV97/H3yTwQAmGSMYSAjOVWQCqIUhS0SBEnqBcvIGIVq8Vh2UvrVGqvVleXraLitcq1MjpXlFoBS0FEECgyDzEMGSRhSMKQhIwn94/fSXKys0+yzzn7+X732b/3a63vSpYufX7fZ2etz/Obnh9IkiRJkiRJkiRJkiRJkiRJkiRJkiRJkiRJkiRJkiRJkiRJkiRJkiRJkiRJkiRJkiRJkiRJkiRJkiRJkiRJkiRJkiRJkiRJkiRJkiRJkiRJkiRJkiRJkiRJkiRJkiRJkrR1PdkHIElqqgc4EngLcBSwB7A7sBR4ElgAPAjc1+/PRSlHqhHJBYAkdZYe4FTgM8C+g/zfPg080leP9vtzLvAEsLp9h6mRzgWAJHWOvYDvUJ3xt1sv1ZWDecDv+/7s//f5VIuEVQXGVgdyASBJneGVwI+AnROPYR2wkGpR8HuqKweNf58PrMw6QLWPCwBJyncYcBMwKftAWvQUGxcDj1PdZnis789HgWVpR6aWuQCQpFy7ALdRXf7vFk8Bs6geTny478+HqBYLvXmHpf5cAEhSriuBt2cfRJAXgXuAO4Db+/58CFibeVB15QJAkvK8jCoER2UfSKKlwG+p5mF9zUo9IkmSCvsB1YN31qa1ALgcOAeYMeTZ1RZ5BUCScoyn2rhncvaBjACzgZ8AV1M9LLkm93AkSRq615N/pj0SazFwKfAGYOygZ12SpGR/TX6YjvR6GvgqcPQg516SpDRfJD9Au6keAs4Hth/MjyBJUrRLyQ/Nbqznga8Ae7f8S9RUnV89kaRMz2UfQJeaAryf6lXCS4ADcg+nc7kAkKQc87IPoMuNBc4A7qe62rJn7uF0HhcAkpTjoewDqIlRwP+imu9P42uXkqRkk6k+mpN9z7xu9XvghBZ+n643OvsAJKmmVgNHAAdmH0jNTAHeQbUR041UiwJJkkIdSfV1vOyz4rrW94AxW/2VupRXACQpz++Bg/tK8Q4GJgHXZR+IJKl+9qD6+E322XBdqxf4k63+SpIkFXA4sJz8MKxrPUQNbwV4C0CS8i0AbgdOBiYkH0sd7Qg8CNyXfSCSpHp6KVUIZZ8R17H+vYXfR5KkYsYAfw7MJz8U61SrgYkt/D5doyf7ACRJTY0HjgX+lGrjmn2p4X3qYEdS3YqpBRcAkjQyjAP2p/q4zUFUGwgd2PefjU88rm5yNvCv2QcRxdWkJI0Mq4B7+6rRrsAMYDrVZ3D7/zmdml3aHoYp2QcQyQWAJI18C/rq1wP89xOpFgn7ALs1+fv6P+tuXPYBRHIBIEnd70Xg0b4ayGRgL2D3vtoT+DPgkOJH1zlWZB+AJElZJgBnAneT/2R+dB3XhvmTJGlE2R/4EvAs+UGcUb1UGwJJktT1RgHHAz/FrxLeNcy5HHF8BkCS6mc74CzgQ1RvCwj+M/sAJEkq5Ujg21QPu2WfcXdanTiMeZUkqeOMpzrbv438kO3Ueg43U5IkdYmpwAfxmwKt1BVDnGNJkjrGTKqn+ZeRH6wjpd42pJmWJKkDHAN8D1hDfqCOpHqRmm0BLEka+cYCpwK3kh+kI7X+bdCzLklSkm2p7u/PIT9AR3qdOci5lyQp3Azgc8AS8oOzG2oVMG1Qv4AkSYFehvf3S9TPB/MjSJIU5RjcprdkndH6TyFJUnnHAL8gPyC7uZYB27T6g0iSVMoo4GTgdvLDsQ51WWs/iyRJZYyjehL9IfJDsU7l3v+SpBSTqV7lm0d+GNatnsSv4ToBkhRse+AvgfOAHZKPpa6upHqjQpKk4qYA5+M7/OvrDuA9wJ0JYx+xld9KkqRh24Yq+BeTH7rZtQT4OnBo39z8YcIxzNrCbyVJ0rCtD/5F5AdvZq0FfkV1tj+xYY4uTjieTzT5rSRJGrb1D/ctJD98M+sJqm2LZw4wT9sT/8niXmCfAY5HkqQhMfirs/3rqL5QOHYr83V+wvHdtJVjkiSpZZOBvwKeIj+As2oO8Elg9xbnbDTweMJxnt3i8UmSNKAJwEeo3inPDuCM6qXarvjNVIE+GG9KON4lwKRBHqckSRuMBt4FzCU/hDPqeeArwIHDmMMbEo77wmEcrySp5o4H7iY/hDNqFtV9++2HOYdHJB3/IcM8bklSDR0N/JL8EI6u9Q/1nQz0DHsWK99L6OOXbTp2SVJNHExOYGXXEuBLwN7DnsFNzQBWJ/Tzjjb3IUnqUjOBK6jOgLPDOLJuB84Axg9/Cpu6MKGnZ6ge2JQkaUA7Um1es4L8MI6q/pf5S5oGvJDQ3z8W7kuSNIJtA/w9sJT8QI6qZcBFwH5tmL9WfCKgp2aLm4F2IpQk1dgo4ByqbWuzAzmqFgAfJ/ZTxJPI2S/hxxHNSZJGluOA35IfyFH1MNVWxY0f5InwoSEcbzvq2IjmJEkjw37U68n+X9He1/gGazwwfyvHWKLuiWhOktT5pgFfBFaRH8qlayXw/+iMzW/eR84cnBXRnCSpc42l+hZ9HT7Ws5Tq/f092zJzwzcWeIz4eXgSX/2TpFo7HriP/GAuXc9TBf+u7Zm2tjmHnPn4VERzkqTOcyhwPfnBXLoWAn8NbNueaWurMcDviJ+TFcAuAf1JkjrIdlRnwhnbzUbWHKon+jv587ZnkDM3X49oTpLUGXqAM6nOiLPDuWTNpgr+Ulv1tsso4F7i52cNcRsbSZKSvYzqVbfscC5Zd1MtcEa3ac5KO42cefpuRHOSpFw7AF+juz/YcztwUrsmLEgP1YIlY74OD+hPkpRkFNXZcDe/1ncPcCp5m/cMx5vImbNrIpqTJOU4HLiF/IAuVfcycoN/vdvImbvXRDQnSYq1E3Ax3Xu5/x7gLYzs4Ac4kZz5uy2iOUlSnB7gbOAZ8kO6RN1HdcY/ql0TluzX5MzjWyOakyTFmAlcR35Il6gHGFlP9bci6+z/AbpnASVJtTYO+CTwIvlB3e6aBZxOdwbWb8iZ09MjmpMklXUM3bl3/1PA+XT+Bj5DdRI58zqbasthSdIItX4L3257yO8F4HPAlPZNVUfKOvt/Z0BvkqRCTgbmkx/W7ayVVHvS79zGeepUbyRnjudQ3S6SJI0wM4D/ID+s21lrge/19VYHPeS99//egP4kSW00CvgQsIz8wG5nXQUc3MZ5Ggmydv2bR/c+TyFJXemldN+He24Cjm7nJI0QPcBd5Mz5Xwb0J0lqg9HAR4Hl5Ad2u+ohqvvfdfVWcuZ9PjAhoD9J0jDtC9xIfmC3qxbT3a/0tSLz7P8DAf1JkoZhDFVQdsuGPquonuzfqZ2TNEKdRs5v8AQwMaA/SdIQHUze0+El6jrgkLbO0Mg1iurjRRm/w/sD+pMkDcFY4BNU78Fnh3Y76m7g+LbO0Mj3dnJ+C5/8l6QOdShwJ/mh3Y5aCPw53fWxnnYYRd5WzX8R0J8kaRB6gA8CK8gP7uHWSqotiae2dYa6x6nk/C5z8exfkjrKdOAG8oO7HXUVsE9bZ6e7ZD75/76A/iRJLTqV6pW47OAebs0G/rTNc9ONTiHn9/HsX5I6xHbA5eQH93BrOXABbirTqqy3Os6NaE6StGUn0B1f7vsp9flgTzu8gZzfaQ6e/UtSqolU37VfS354D6dmAye1eW7qIOv7DX7xT5ISvZxq3/vs8B5Oebl/6E4g5zebA4wL6E+S1GAU8HFgNfkBPpz6EdXbChqaX5Lzu70nojlJ0qZ2A64nP7yHU4/j5f7hOpac3+4xPPuXpHAnAAvID/Ch1lqqj/ZMaffE1NB/kvMbevYvSYHGUt0nH8kP+t0FHNnmeamro8j5DX3vX5IC7Q3cQn6AD7WWUX162L372+fn5PyWfvFPkoKcATxPfogPta7Gh/za7eXk/JZP4JsaklTcRKoP32QH+FBrAXBm22dFAN8k5zf9cERzklRnhwEPkx/iQ6le4BJgh7bPiqA6A19C/O/6NLBNQH+SVFvnMnI/3fs74FXtnxL1k7Xt7/+OaE6S6mgCeZd2h1u9VK/2eYZY3keJ/32fwdc2JamI/YB7yA/yodQjwB+3fUY0kK8R/xt/PKQzSaqZtwHPkR/kg621wD8Bk9o/JdqCy4j9nZcAU0M6k6SaGEP1Bb9e8sN8sPUI1Ta0ihd9BeCCkK4kqSZ2J+8TrsOpNcAXqF5RVI7PEvd7PwdsH9OWJHW/YxmZe/nPxrP+TvBm4n7zzwT1JEldrQf4GNVZdHaYD6Z6qe71e9bfGaYR8z2IF4Adg3qSpK41heq799lhPtiaB7y2wHxoeK6j/G//j2HdSFKX2he4j/wwH2xdifd/O9UJlP3tnwN2CetGkrrQ64HF5If5YGoJcHqJyVBb3Uy5fwMfDOxDkrrOXzHy7vdfD+xVYjLUdjMps3/EnVSvqEqSBmkScAX5YT6YWkG1xeyoAvOhck6jvQ8EzgH2CO1AkrrEXlRnUNmBPpi6Bzi0xGQoxGnASob/7+AJYP/gY5ekrnAs8BT5gd5q9VJt6jO+xGQo1GuAxxn6v4WfATtHH7QkdYP3A6vID/VW6yngxCIzoSyTqDbuWU7r/w4eBM6i2qNCkjQIY4CLyA/0wdT1wG4lJkMdYVvgTODfgfk0D/2vAW/EZz4kaUimAteQH+it1hrgk8DoEpOhjjUR2IdqB0Gf7pekYZoB3E9+qLda84BXF5kJSZJq4hXAQvJDvdX6CbBDkZmQJKkmTmVwD1ll1irgfHzAS5KkIeuhCtOIr7C1ox6julIhSZKGaAJwOfmh3mp9n+rrg5IkaYh2ouxHV9p9yf/DeMlfkqRh2Qd4mPxgb6WepNoNTpIkDcPLqUI1O9hbqRuBXctMgyRJ9XEC8Dz5wb616gW+BIwtMw2SJNXHOxkZe/o/D7ytzBRIklQv55Mf7K3UA8CBheZAkqTaGAN8k/xgb6W+TfXVN0mSNAyTgZ+SH+xbqzVUVygkSdIw7cDIeMd/EXB8oTmQJKlWpgOzyA/3rdW9wMxCcyBJUq0cAMwlP9y3VlcDUwvNgSRJtXIY8BT54b6l6gU+B4wqNAeSJNXKq4FnyQ/4LdULwFtLTYAkSXVzErCc/IDfUj0CHFJqAiRJqpvT6fzd/W6geitBkiS1wbnAWvIDfkt1JTCh1ARIklQ3nb61by9wQanmJUmqo8+TH/BbquXAacW6lySpZnqAfyY/4LdUTwOvKjUBkiTVTQ9wIfkBv6W6D9i7UP+SJNVOD/BV8gN+S3UtsF2pCZAkqW5GA98iP+C3VN8AxpaaAEmS6mY0cAn5AT9Q+aS/JEltNhb4AfkhP1CtBs4p1r0kSTU0Dvg38kN+oFoKnFise0mSamg88DPyQ36gWggcXqx7SZJqaCxwFfkhP1A9AuxXrHtJkmpoNPAd8kN+oLoN2LlY95Ik1dBo4AryQ36gug6YUqx7SZJqaDRwOfkhP1B9C9/xlySprXqAfyE/5AeqLwOjinUvSVIN9QBfIz/kB6rPlWtdkqR66uS9/XuBD5drXZKk+urUr/qtBs4s2LckSbX1WfKDvlmtBN5asG9JkmrrPPKDvlktBV5XsG9JkmrrLKr769lh31iLgaML9i1JUm2dCqwhP+wbawFwSMG+JUmqreOBFeSHfbPwP6hg35Ik1dYrqO6vZ4d9Y83Fj/pIklTEoVT317PDvrHmADML9i1JUm3tS3WJPTvsG+txYJ9ybUuSVF+7UQVtdtg31mxgr3JtS5JUX9sCvyU/7BtrFrBHwb4lSaqtscC15Id9Yz0E7F6wb0mSamsUcAX5Yd9YDwAvKdi3JEm19gXyw77ZZf/dSjYtSVKd/QX5Yd9Yc4DpJZuWJKnO/gxYS37g96+5wIySTUuSVGfH0nlb/M7HTX4kSSrmEOBZ8gO/fy0A9i/ZtCRJdfYSOm+jn6fwq36SJBUzEbiF/MDvX0uAw0s2LUlSnY0CfkB+4Pev54AjSjYtSVLdfZ78wO9fy6keRJQkSYW8i/zA719rgLcU7ViSpJo7FlhJfuivr17g7KIdS5JUcwcAi8kP/f71kaIdS5JUczsBj5Af+P3rgpINS5JUd2OBG8gP/P711ZINS5Ik+L/kB37/uozqNURJklTI+8gP/P51NdUVCUmSVMgxdNYT/7cDk4t2LElSzU2n2lM/O/TX1yPALkU7liSp5iYCd5Af+uvraeClRTuWJKnmeoDvkB/662sZcFTRjiVJEp8iP/TX1xrglLLtSpKkk4G15Af/+np32XYlSdK+wBLyQ399/W3ZdiVJ0iTgbvJDf31dXLZdSZIE8C3yQ3993QiMK9uuJEn6APmhv75mAzuWbVeSJP0RnbPT3yJ811+SpOJ2BuaRH/zrgFXAa8q2K0mSRgPXkh/86+s9ZduVJEkAnyc/9NfXPxTuVZIkAScCveQH/zrgh8Cosu1KkqQ9gGfID/51VB8bmlS2XUmSNAa4ifzgXwcsBPYs264kSQL4LPnBv47qif9jC/cqSZKoXrFbQ374rwPeW7hXSZIE7AIsID/41wEXFe5VkiRRPWH/C/KDfx1wM+7xL0lSiL8jP/jXAXOodh6UJEmFHQusJT/8lwOHFe5VkiQB2wNzyQ//dcA7CvcqSZL6XEl+8K8DLizdqCRJqryL/OBfB9yKD/1JkhRiJvA8+eG/CNi7bKuSJAmqrX5vIT/81wKvL9yrJEnq0ylb/X68dKOSJKnyKjpjq9+r8fO+kiSF2I7OeOXvUarXDyVJUoBLyA//FbjZjyRJYU4hP/zXAe8v3agkSarsCCwkP/x/AvQU7lWSJPX5PvnhPxeYVrpRSZJUOYP88F8NHF26UUmSVNkNWEz+AuCjpRuVJEmVHuBn5If/z/C+vyRJYc4lP/znUz2AKEmSAuxF/od+1gCvLt2oJEna6D/IP/v/P8W7lCRJG7yT/PC/AxhXuE9JktTnJcAicsN/KbB/6UYlSdJGPyT/7P/dxbuUJEkbnEp++P+4eJeSJGmDHcjf6/9JYJfSjUqSpI0uJTf8e4E3FO9SkiRt8DryL/1/sXiXkiRpg4nAbHLD/6G+45AkSUE+Q274rwWOKd6lJEnaYH9gBbkLgM8W71KSJG3QA1xPbvjfD0wo3agkSdroHHLDfzVwRPEuJUnSBjsAT5O7APjb4l1KkqRNfJvc8L8TGFu8S0mStMEfU226kxX+K4E/KN2kJEnaaAxwN176lySpVj5Cbvg/CIwv3qUkSdpgF+BZ8sJ/LXB08S4lSdImLiP37P+fyrcoSZL6eyW5D/49BmxTvEtJkrTBaOAucs/+X1e8S0mStInzyA3/i8u3KEmS+tsZWEJe+C8EphXvUpIkbeLr5J79n16+RUmS1N/BVB/cyQr//6L64qAkSQp0LXnhvwLYv3yLkiSpv1PIvfT/qfItSpKk/sYBD5MX/rOACcW7lCRJm8je7/+15VuUJEn9TQMWkRf+l5RvUZIkNfoKeeG/hGrfAUmSFOilwCryFgDnlW9RkiQ1+iF54X8fMLZ8i5Ikqb8/Ivdrf8eVb1GSJDW6ibzw/05Af5IkqcGbyAv/ZcD08i1KkqT+RgP3k7cA+Fj5FiVJUqP3khf+s3HHP0mSwk0GniBvAXBK+RYlSVKjvyEv/K8P6E+SJDWYSt6Wv2uBw8u3KEmSGv09eWf/3wjoT5IkNdgReJ6c8H8B2LV8i5IkqdEXyDv797U/SZIS7Eq1+U5G+M8DJpVvUZIkNbqIvLP/0wP6kyRJDWaQ97nfO4Ce8i1KkqRGF5N39n98QH+SJKnBdGAlOeH/84D+JElSE98kJ/x7gcMC+pMkSQ0yz/4vC+hPkiQ18Q1ywn8lMDOgP0mS1CDz7P+LAf1JkqQm/oWc8H8e2CmgP0mS1GBv8t77/3T59iRJUjNfJSf8lwDbB/QnSZIa7AwsJ2cB4Ad/JElK8g/khP/TwJSA/iRJUoNtqS7DZywAPhzQnyRJauJj5IT/E8DEgP4kSVKDCcACchYA5wb0J0mSmvgAOeH/ODCufHuSJKnRGKog9uxfkqQaeTs54T8PGB/QnyRJauJWchYAH4hoTpIkbe5ocsJ/AT75L0lSmu+TswD4UERzkiRpc9OB1cSH/0JgUkB/kqQOMyr7AATAeVRvAET7AtX3BiRJUrApwLPEn/0/B0wN6E+S1IG8ApDv3eQE8UVUiwBJkhRsNPAI8Wf/K4DdAvqTJElNvI2cJ/+/EdGcJElq7mbiw78XOCiiOUmStLkjyDn7/3FEc5IkqbkryVkAvDKiOUmStLndgVXEh/9vIpqTJEnNfZ6cs/83RzQnSZI2Nw54kvjwfwj3fZAkKc3p5Jz9vzuiOUmS1NyNxIf/QmBCRHOSJGlzB1C9hx+9APibiOYkSVJz/0x8+C8FdohoTpIkbW4CsIj4BcCXIpqTJEnNnUF8+PcC+0c0J0mSmvsV8QuAa0M6kyRJTR1IzsN/p0Q0J0mSmruQ+PCfA4yOaE6SJG1uIrCY+AWAr/5JkpToncSH/0pgl4DeJEnSAG4hfgFwaUhnkiSpqUOJD/91wCsimpMkSc19mfjw/++QziRJUlNjgaeJXwCcHdGcJElq7hTiw38xMCmiOUnSyDYq+wC62BkJY14MLE8YV5IkAVOpgjjy7L8X2C+iOUmS1Nx7iL/8//OQziRJ0oAyPvxzWkhnkiSpqb2J//DPImBCQG+SpC7hQ4DtdxbQEzzmlcCK4DElSVI/DxN/+f/wkM4kSVJTRxEf/veGdCZJ6ireAmivrHf/JUlSknHAM8Se/a/Gz/5KkpTqzcRf/v9RSGeSpK7jLYD2eUfCmP+aMKYkSeozCVhG7Nn/QqovDkqSNGheAWiPk4n/Ct+lVM8ASJKkJD8g/v7/H4R0JkmSmpoELCU2/H8T0pkkqWt5C2D4TgImB495WfB4kiSpwXeJPftfC+wW0pkkSWpqEvACsQuAX4R0Jknqat4CGJ4TgW2Cx/xu8HiSJKnBlcSe/a8CdgjpTJIkNTUBeI7YBcDVIZ1JkrqetwCG7kRg2+AxvfwvSVKyy4k9+38RmBrSmSRJamo88Zf//fKfJKltvAUwNMcRf/n/yuDxJElSgy8Te/a/lPjdBiVJUoNHiV0AuPWvJEnJDiY2/NcBbwzpTJJUGz4DMHjRYbwUuDZ4TElSl3MBMHgnBY93DbAieExJktTPNGANsZf/zwjpTJIkDegMYsN/De79L0kqwFsAgxN9+f+XwKLgMSVJNeACoHVjgNcHj3lV8HiSJKnBccS//jcjpDNJUu14BaB10Zf/7wYeCx5TklQTLgBad2LweF7+lyQp2e7EX/5/WUhnkqRa8gpAa04IHm8ucFfwmJKkGnEB0JrXBo93FdVVAEmSlKQHeILYy/9/EtKZJEka0CHEhv+LwKSQziRJteUtgK07Pni8m4DlwWNKkmrGBcDWRS8ArgkeT5IkNRgDPEfsLYCDQzqTJEkDehWx4T+f6qFDSZKK8hbAlkW//ncNvv4nSQrgAmDLvP8vSVLNTAZWEXf5fw0wLaQzSVLteQVgYK8AxgaOdzuwOHA8SVKNuQAY2KuCx/PyvyQpjAuAgb0yeLxfBI8nSZIajAFeIO7+/zJgXEhnkiThFYCBHAZsEzjer6keOJQkKYQLgOaOCR7vxuDxJEk15wKguegHAF0ASJKUrAd4krj7/y8CE0I6kySpj1cANrc/sHPgeLcAKwLHkyTJBUATXv6XJHU9FwCbOyp4vBuCx5MkSU3cR9z9/xXAxJi2JEnSQKZQfZQnagHg5X9JUgpvAWzqCGB04Hi/ChxLkqQNXABs6sjg8W4NHk+SJMAFQKOXB493W/B4kiSpibnE3f//XVBPkiRtxisAG70E2DNwPC//S5LSuADYyPv/kqTacAGwUfT9fxcAkqQ0LgA2OjxwrBeBewLHkyRpEy4ANvofgWPdDqwOHE+SpE24AKjsCOwWOJ6v/0mSUrkAqPxh8Hj/HTyeJEmbcAFQibz8D3Bn8HiSJG3CBUAlcgGwFJgdOJ4kSZtxAVCJXAD8FugNHE+SpM24AIBxwAGB43n5X5KUzgUAHEi1CIhyV+BYkiQ15QIADgoezysAkqR0LgCqKwBRVgAPBo4nSVJTLgBirwA8iDsASpI6gAuA2CsA9weOJUnSgOq+ABgDzAwczwWAJKkj1H0BMBMYHzjefYFjSZI0oLovACIv/4NXACRJHaLuC4D9A8daBswJHE+SpAHVfQEQef//AdwCWJLUIVwAxPH9f0lSx3ABEGdW4FiSJG1RnRcA44A9Asf7XeBYkiRtUZ0XAHsDowPHcwEgSeoYdV4ARF7+B5gdPJ4kSQOq8wJgr8CxFgIvBI4nSdIW1XkBsHvgWJ79S5I6Sp0XAJEPAD4eOJYkSVtV5wVA5BWAeYFjSZK0VXVeAEReAXABIEnqKHVeAHgFQJJUW3VdAEwGpgaONzdwLEmStqquC4DIy//gFQBJUoep6wJgt8CxlgFLAseTJGmr6roA2DlwLC//S5I6Tl0XANsFjrUgcCxJklpS1wXAtMCxngkcS5KkltR1AbA2cKynA8eSJKkldV0ARH6Y54nAsSRJakldFwCLAseaFTiWJEnagj2AdUF1SFBPkiSpBbMoH/6PU9+rLJKkDlbncLoyYIzLgN6AcSRJUot2oHoYsNTZ/4vAjLBuJElSyz5NuQXABXFtSJKkwRgL3Ez7w/9+YEJgH5IkaZD2ovpaX7vCf17f/6ckSepw04EHac9T/wfFHrokSRqOHaneDBhq+P8I2D78qCVJUlscD9xK68F/M3BSypFKkjREPdkH0MEOAP4ncFjf33cHVgBLgEeB/wKuA27POkBJkiRJkiRJkiRJkiRJkiRJkiRJkiRJkiRJkiRJkiRJkiRJkiRJkiRJkiRJkiRJkiRJkiRJkiRJkiRJkiRJkiRJkiRJkiRJkiRJkiRJkiRJkiRJkiRJkiRJkiRJkiRJkiRJKun/A2mbqmKnxE96AAAAAElFTkSuQmCC;rotation=80;" vertex="1" parent="1">
          <mxGeometry x="680" y="210" width="170" height="170" as="geometry" />
        </mxCell>
        <mxCell id="fVwzWta8XXvmtXb5B4zN-6" value="" style="shape=image;verticalLabelPosition=bottom;labelBackgroundColor=default;verticalAlign=top;aspect=fixed;imageAspect=0;image=data:image/png,iVBORw0KGgoAAAANSUhEUgAAAgAAAAIACAYAAAD0eNT6AAAABHNCSVQICAgIfAhkiAAAAAlwSFlzAAAOxAAADsQBlSsOGwAAABl0RVh0U29mdHdhcmUAd3d3Lmlua3NjYXBlLm9yZ5vuPBoAACAASURBVHic7d1ptF1Vna7xJwkJTWgkBAgC0pPgtRRLVEBpwigaEURpRAV7aQSUQrHAKrhSeEUoS6CKTgVRERGQnkAAkYAgSUkjIIxSC4mAkAQIkADpc879ME+KGqXJadaa67/3ms9vjDXED3vOd5+cs/e791pzTZAkSZIkSZIkSZIkSZIkSZIkSZIkSZIkSZIkSZIkSZIkSZIkSZIkSZIkSZIkSZIkSZIkSQyLDtAyY4DdgO2B8cB6wIjQRJKq6AWeB6YBVwK/i40j1ccCUI+dgOOA9wOjgrNIyqMH+AlwDDA3OItUmQWgmi2Bc4C9ooNIaswfgPcBT0QHkaqwAAzdXsDlwFrRQSQ1bibpNeDh6CDSUA2PDtClvgLchG/+UqnGAVOAHaODSEPlNwCD90Xg36JDSOoI84ADgcnRQaTB8gr1wdkduAS/OZGUjAQOBp7C0wHqMhaAgXsjcCewWnAOSZ1lOPAB4AXgvuAs0oBZAAbuO8A7o0NI6kjDSMuAe4G7grNIA+I1AAMzAXgMv/qX1L/zSNcK9UQHkVbEN7SBOQZ/VpIG5mjgx6TrA6SO5TcA/RsBzALWiQ4iqatMAj4MzI8OIv01fqrt3zvwzV/S4O1DuleArx/qSBaA/m0XHUBS13o36aLAN0YHkf43C0D/tooOIKmr/R9SCdgsOoj0P1kA+rd2dABJXW9L4F7gbdFBpGVWig7QBVap+PivAj+vI4ik2n0b2KWhucYBd5CuDZja0JzSclkA8psOPBAdQtJf9XLD840Bbsf9A9QBPAUgSc1aDbgO+Eh0EJXNAiBJzRsFXAb8fXQQlcsCIEkxhgFnAadHB1GZLACSFOsE4Fx8PVbD/IWTpHhHA5fg/gFqkAVAkjrDIcA1wKrRQVQGC4AkdY59gFuBtaKDqP0sAJLUWXYC7sH9A5SZBUCShu6hTOO+BfcPUGYWAEkaulOAEzON7f4BysoCIEnVnAEcA/RkGHscMAV4T4axVTgLgCRVdx7wcWBxhrHXBm4D9sowtgpmAZCkelwGfAiYn2Hs1YDrgYMzjK1CWQAkqT43AROB2RnGHgX8FPcPUE0sAJJUr/8AdgGezTC2+weoNhYASarfY8B7gcczjX8CcA6+hqsCf3kkKY/ppJv6PJxp/GNw/wBVYAGQpHxmkq4J+FWm8d0/QENmAZCkvF4C9gAmZxp/H+AW3D9Ag2QBkKT85gEfBC7PNP7OuH+ABskCIEnNWAR8DDg70/hvIZWALTKNr5axAEhSc3qB48i3f8BmwN3AWzONrxaxAEhS83LuH7ABcCewY4ax1SIWAEmKcR7wCdw/QEEsAJIU5yfA/uTZP2A07h+gFbAASFKsSaR7BbyYYexRpJJxRIax1eUsAJIUL+f+ASOA7+D+AfpfLACS1Bkexf0D1CB/ESSpczSxf8CPcP8AYQGQpE6Te/+AQ3H/AGEBkKRO5P4Bys4CIEmdyf0DlJUFQJI6VxP7B9yN+wcUyQIgSZ0t9/4Bm+P+AUWyAEhSdzgD+ALuH6CaWAAkqXuci/sHqCYWAEnqLk3sH/DhDGOrw1gAJKn7TCJ9Up+TYexRwGW4f0DrWQAkqTv9knTrYPcP0JBYACSpezWxf8C/43tFK/mPKkndbdn+AY9kGv8LuH9AK1kAJKn7zQR2Je/+AVfj/gGtYgGQpHZYtn/ALZnG35e0N4H7B7SEBUCS2mMesB9wRabxdwHuANbLNL4aZAGQpHZZBHyUfPsH/C0wFfcP6HoWAElqn6b2D/ibTOOrAStFB1BHWYt0IdEOwHhgLJ1x0c8c4BnSkqe7gPvIcz90qW3OABYCZwLDah57A2AKsDfw65rHljrC5aQ2PdTj4OYjD9q7Sc9zPtWea1PH08DXgXVz/DBUlOuo9ru4X/ORh2TZ/gE5/h5fAf6uuaciNafNBWBT0n2/o9/Qh3q8CnyVdOtSaShKKQCQruKfR56/xQXAgc09FdXBawDKtTvwG+AD0UEqGA2cRtrGdFxsFKnj3Ui+/QNWJn1YOjzD2MrEAlCmLwA3A2+IDlKTHYBpwNuig0gd7pfARGBWhrGX7R/w1QxjKwMLQHk+Q7q3d9suAN0E+AWwZXQQqcP9hlSac+wfMIz0rZz7B3QB/4HKshNwQXSIjNYBbsA7lUn9mU4z+we07YNGq1gAyrEecC3tv2BuG9LXkJJWbCbpdMC0TOMfClwFrJJpfFVkOyvHGaRPyCX4CHAx8POAuTcCDiK9sK4LjMG/sxWZDzxFusfDz0j3eFBzXiQt4buGtI9A3fYj7R+wHzA3w/hSVm1YBrglsIT4ZXtNHlNr+ckN3AjgG3TPvRQ69ZgEbDzIn30VJS0DXJFRpP0Dcv273o/7B3QcTwGU4WjSG1RJtgfe1dBcI0hfdf4jft1Z1ftJW9p6MWezlu0fkOv02TtIKxA2yTS+hsAC0H7DSX/YJTqkoXlOAj7Y0Fwl2Bi4kvZfr9JpeoDPk77JymE8cA/pOh11AAtA+70NWD86RJDdG5hjPeCEBuYpzduBT0WHKNRJpKv4c+y3sRHpG54dMoytQbIAtN920QECTQDWzDzHoXTGhkltdER0gIKdC3yadO1Q3dYGbsP9A8JZANpvq+gAgYaR//lPzDx+ybYlvVkoxiXA/qQLW+u2OumCzwMyjK0BsgC035joAMFyP38vaspnOPCm6BCFy71/wBW4f0AY1ye3X9Wr0k8mreONcjbw3gqPz/31/MjM45fOCwHjLds/YDL1X0+0bP+AMcDpNY+tflgA1J/pwAOB81f95DGslhTLN4t0rYHymBEdQEDaP2An0rn7TWseexjwTdKNyv6BdN8ANcBTAFI1uW6jKnga+HN0CP23/wJ2JN/+Acfj/gGNsgBI1VwZHaDFfhodQH9hBnn3D/g46ZbQ3lCrARYAqZoHSRdKqV4vka7/UOdZtn/AbZnG/yBwM/mX8BbPAiBVdxh+VV2npcDn8Px/J3sN2Jd834BNBO4gbailTCwAUnWzSCsVHo4O0gIvAgeSdqdTZ2ti/4C7cSloNhYAqR5Pku66eBhwF3nuoNZmvyPdg34CaYc+dQf3D+hiXm0p1WcJcFHfMYq0rMnbBK9YDzATWBAdRJWcBLwAnEn9S283Jt2LYG/gvprHLpoFQMpjEZ7DVlnOJpWAi6n/BlljgSmkWxPnuviwOJ4CkCTV5VLy7R8wmrTi5qAMYxfJAiBJqtMk8u0fMIp0f4jDMoxdHAuAJKluvyStjHk2w9gjgO8Cp2QYuygWAElSDo+SSsAfM4w9DPga8G/k3++jtSwAkqRcppM2Ecq1f8AXcf+AIbMASJJymgHsCtybafyPA1fjkttBswBIknJ7CdgDuCXT+B/A/QMGzQIgSWrCa8B+wBWZxt8V9w8YFAuAJKkpi4BDSFfx5/AO0q2418k0fqtYACRJTVoKHAmclmn8bUibSfn+1g9/QJKkCP8EfIG0H0TddgY+kWHcVrEASJKinAt8ElicYexjM4zZKhYASVKkS4EDqX9HyG2BDWses1UsAJKkaDcAe1L//gGb1zxeq3j3JKleI0nrnfcFtgDWjo3TFeYAT5DWcU+m/k+COX0bODk6RIssANaqcTz//lbAAiDVZxfgO8CE6CBdaDfgc6Rbxx5DKgPdYIvoAFoh9wlYAU8BSPU4ALgN3/yr2oz0dfBno4NIbWcBkKqbQNqQZFR0kJYYAVwAvDM6iNRmFgCpum8Co6NDtMxI4F+jQ0htZgGQqhlH2ohE9dsZeHN0CKmtLABSNbvi31FOE6MDSG3lC5dUzabRAVpus+gAUlu5DLD9llR8/NeB4+oIMkRbVnx8jluM/k8jM49fupWjA0htZQFov1cqPn4zuvtT2NzM4z+XefzSzYwOILWVpwDa76noAMH+lHn8aZnHL93U6ABSW1kA2u+30QECvQQ8k3mOR4DHMs9RqmeAe6JDSG1lAWi/X5H/PHinmgL0Zp6jF/jnzHOU6pvAougQUltZANrvFdItakt0TUPz/Az4fkNzleJG4PzoEFKbWQDKcGF0gACzgWsbnO9w4Gygp8E52+pHpP3hc397IxXNAlCGG4FHo0M07ExgXoPz9ZCWS24PXEK6/kAD9ypwJenGP5/Cr/6l7FwGWIYe4O+B26ODNOQJ4Kygue8DPtn332OBDfHvbEV6gGeBWUHzf5l0rwt1pm+TttlWBr4wleMXpDfFyJv6NGEh8AlgfnQQ4IW+Q53rj9EBtEIvRwdoM08BlOV4YFJ0iMy+QFr5IElaAQtAWXqAQ4FfRwfJ5BTKvOBRkgbNAlCeOaRtVi+JDlKjhaQLx1yPL0kDZAEo07I3zC8Br8VGqew3wE6kpWOSpAGyAJSrl3RR4JtJX5svjI0zaE+RLvbbjnTlvSRpECwAeop0E5sNgaNI9wyYHZror+sB/gv4HrA3sDnwY7zxjiQNicsAtcxs4IK+A9Ia9rHA6LBEr3uJtFZ8QXQQSWoLC4CWxzXsktRingKQJKlAFgBJkgpkAZAkqUAWAEmSCmQBkCSpQBYASZIKZAGQJKlAFgBJkgpkAZAkqUAWAEmSCmQBkCSpQBYASZIKZAGQJKlAFgBJkgpkAZAkqUAWAEmSCmQBkCSpQBYASZIKZAGQJKlAFgBJkgpkAZAkqUAWAEmSCmQBkCSpQBYASZIKZAGQJKlAFgBJkgpkAZAkqUAWAEmSCmQBkCSpQBYASZIKtFJ0AHWU9YG/A3YAJgBrA28ITQSLgVeAp4DHgLuAu4FFkaEkSe13OdBb4Ti4+ciD9m7gRtKbbZXn2tTxPPCvwNgcPwxJHeM6qr1W7Nd85O7hKYCybQFcCUwF9qF7vhEaC3wZeBw4EVglNo4kdR8LQLneBzwIHAQMC84yVGsB3yQVmDcFZ5GkrmIBKNMJwCRgzeggNdkWmAa8MzqIJHULC0B5jgVOp33/9hsAtwNvjg4iSd2gbW8CWrE9SBfPtdWawDWk1QuSpBWwAJRjA+AKuudCv6EaD1wUHUKSOl3b3wz0um8Rv6a/KfsDewM3B8y9BrAvsCfpwsQ1AjJIdekBniPdg+M60gW3UjHacB+ACcBS4tfvN3ncV8tPbnA+Q3qxjH7uHh65jtuAzWmO9wHIyFMAZTiK8v6ttwN2bHC+04DvA+s2OKfUtN2Be4G3RAdRdaW9KZRoOPCR6BBBPtrQPB8BvtrQXFK09YGrgNHRQVSNBaD9tqXcT6V7NDDHKNq9skL6a8YDn48OoWosAO23XXSAQFuT7haY0z7AhpnnkDrREdEBVI0FoP22ig4QLPfzn5h5fKlTbQlsHB1CQ2cBaL/Sb4qT+/lvmnl8qZNtFh1AQ+d9ANqv6k55XwKuryPIEF1EtU/Zq9YVZDlGZR5f6mQrRwfQ0FkA1J/ngCcC559X8fG5dzqclXl8qZPNjA6gofMUgFTNtOgAUpBXgP+MDqGhswBI1VwHLIwOIQW4ClgSHUJDZwGQqnkWNx9SeRYAZ0SHUDUWAKm6E4BHo0NIDfoS8PvoEKrGAiBV9xqwK3B3cA4pt/nAkcAF0UFUnQVAqsdsYBfgEOAOYHFsHKlWzwDnA9sA3w3Oopq4DFCqTy9wWd+xCmkPhnXJvxRRymUBMAN4MTqI6mcBkPJYADzdd0hSx/EUgCRJBbIASJJUIAuAJEkFsgBIklQgC4AkSQWyAEiSVCALgCRJBbIASJJUIAuAJEkFsgBIklQgC4AkSQWyAEiSVCALgCRJBbIASJJUILcDluq1GvB+YC9gY2BMbBypkh7gReBx4CbgNmBpaCLVxgIg1ecA4Gxgo+ggUs32BI4GHgGOBKbGxlEdPAUg1eNY4Gf45q92eytwB7B3dBBVZwGQqtsVOBMYFpxDasIqwE+ATaKDqBoLgFTdmfi3pLK8AfhadAhV44uWVM27gLdHh5ACHAKsER1CQ2cBkKqZGB1ACjIKeG90CA2dBUCqZrPoAFKgTaMDaOhcBth+Syo+/kzg1DqCDNG4io9fXEuK5RuVeXypk60cHUBDZwFov7kVH79e39Gt5mQe/7nM40udbFZ0AA2dpwDa78noAMGmZx7/15nHlzrZtOgAGjoLQPs9Eh0g0GxgRuY5fg68nHkOqRPdT/6CrYwsAO13L7AoOkSQO4DezHO8Qrr9r1Saf44OoGosAO33GnBzdIggVzc0z2mkoiWV4rvApOgQqsYCUIYLowMEeA64vqG5FpN2/7upofmkKL2kb7yOig6i6iwAZZgMPBgdomHfAhY0ON8rwD7Ah4BbKPe0i9rpZeBK4N3AcaRtgtXlXAZYhl7SbnW/pIwNa34PnBM093V9xyheX0JZws9c7bSQdDHt81S/p4g6jAWgHPcA3wT+MTpIZvOBQ0kvXJEWAX/uOySp43gKoCwnkb7Ga6te4HOk5UmSpBWwAJSlF/gscHd0kAx6gROBy6KDSFI3sACU51VgN+C86CA1eg04CPiX6CCS1C0sAGVaAhwDfJ7qewVEewh4D82t+ZekVrAAlO07wATg34F5wVkG6wngMGA74OHgLJLUdSwAmkFaIrgB8BngZ3TmleuLgN+SyspuwFbARcDSyFCS1K1cBqhl5gI/6DsARgPrA2sCI6JCkZb1zQVm4jpkSaqNBUDL8xrpa3ZJUgt5CkCSpAJZACRJKpAFQJKkAlkAJEkqkAVAkqQCWQAkSSqQBUCSpAJZACRJKpAFQJKkAlkAJEkqkAVAkqQCWQAkSSqQBUCSpAJZACRJKpAFQJKkAlkAJEkqkAVAkqQCWQAkSSqQBUCSpAJZACRJKpAFQJKkAlkAJEkqkAVAkqQCWQAkSSqQBUCSpAJZACRJKpAFQJKkAlkAJEkqkAVAkqQCWQAkSSrQStEB1FHGABOBHYDxwLp0xu/IPODPwKPAXcA0YGloIknqcp3w4q547wGOA/YFRgVnGYgZwI+As4FZwVkkqSt5CqBsmwM3AfcAB9Adb/4AGwAnAtOBk4GVY+NIUvexAJRrT+ABYO/oIBWsCpwK3AmMi40iSd3FAlCm40if/N8QHaQm2wP3AW+PDiJJ3cICUJ7PAmcCI6KD1Gwj4HZgy+ggktQNLABl2Rk4PzpERmOAG2nPNxuSlI0FoBzjgGvpngv9hmoC8L3oEJLU6VwGWI4zSJ+QS3AQ6SLHWwPm3gT4MLALsD7l/MzVnRYATwEPAVf0/a+kPpcDvRWOg5uP/Be2BpZQ7Xl02/EftfzkBm4lUslaWEN2D4+o40rSDcA6xXVUez77NR+5e3gKoAxH0b6L/vrzLtLqgCasRDq98g+0/xSL2u0g4G7gjdFBlJ8FoP2GAx+NDhHkYw3N83+BfRqaS8ptPHApvj+0nv/A7bctsF50iCC7NzDHesDxDcwjNWki8IHoEMrLAtB+20UHCDQBWDPzHB8n3ZFQapvDowMoLwtA+20VHSBY7uc/MfP4UpSdKe/aoaJYANpv7egAwXIvw3tT5vGlKKOBsdEhlI/3AWi/VSo+/mRgch1Bhuhs4L0VHp/763n/htRmrmppMV+81J/ppF0Do8yp+PhhtaRYvueAbTLPIUVYSvr9Vkt5CkCqZmp0ACmTB0g3tlJLWQCkaq6IDiBlcll0AOVlAZCqeYh0u1KpTZ4Cvh8dQnlZAKTqDie9YEptMB84FHg1OojysgBI1T1PWqnwYHQQqaJnSDtp3h0dRPlZAKR6PE3agOjTwC+ARbFxpAFbQiqvJ5LunumbfyFcBijVZynww75jOOkmKqsH5pH6sxiYQSoBKowFQMqjh7SG2nXUkjqSpwAkSSqQBUCSpAJZACRJKpAFQJKkAlkAJEkqkAVAkqQCWQAkSSqQBUCSpAJZACRJKpAFQJKkAlkAJEkqkAVAkqQCWQAkSSqQBUCSpAK5HbBUr7WAA4E9gTcCY4CVQxNJyzcPeBF4ArgJuAFYFJpIjbEASPX5HHA6sE50EGmQdgY+BTwOHAn8IjSNGuEpAKkepwIX4pu/utuWwGTgw9FBlJ8FQKpuP+Ck6BBSTUYCFwMTooMoLwuAVM1w4FvAsOggUo1Gk77VUotZAKRqdgG2ig4hZbA/MDY6hPKxAEjVTIwOIGUygnRxoFrKAiBVs0l0ACmjTaMDKB+XAbbfkoqP/zpwXB1BhmjLio9fXEuK5RuZeXwp0qjoAMrHAtB+r1R8/GZ9R7eam3n8WZnHlyLNjA6gfDwF0H5PRQcI9qfM40/LPL4U6d7oAMrHAtB+j0QHCPQi8EzmOSaT/1sGKcJDwB+iQygfC0D7/Yr858E71RSgN/Mcc4GzMs8hRTglOoDysgC036vALdEhglzT0DzfAO5paC6pCRcC10eHUF4WgDJcFB0gwAvAdQ3NtRh4H2knNamb9QBnkjYEUstZAMpwI+VdC/Bt0lanTXmVtCfAPqQi0OTcUlWzgUuBdwJfJhUBtZzLAMvQCxwL3EEZ96z/I3B20Nw39R3DSbdRXT0ohzRQL5MumFVhLADluJP0qfj44By5LQAO7fvfSD3Ac32HJHUcTwGU5QTS6YA2OwbX5ktSvywAZekhfTqeGh0kg17gZOD70UEkqRtYAMozl7SD3Q+Dc9RpAfBJ4P9FB5GkbmEBKNNC4NPAF0lXr3ez+4H3AD+ODiJJ3cQCULZzgG2A84m/aG6wpgMfA94FPBicRZK6jgVAfwaOBt4IHA5cS2fuALYE+E9SWdkD2Ar4Kflv9StJreQyQC3zEun2nxf2/f+1gXWAtcISJUtI1y08AywKziJJrWEB0PK81HdIklrIUwCSJBXIAiBJUoEsAJIkFcgCIElSgSwAkiQVyAIgSVKBLACSJBXIAiBJUoEsAJIkFcgCIElSgSwAkiQVyAIgSVKBLACSJBXIAiBJUoEsAJIkFcgCIElSgSwAkiQVyAIgSVKBLACSJBXIAiBJUoEsAJIkFcgCIElSgSwAkiQVyAIgSVKBLACSJBXIAiBJUoEsAJIkFcgCIElSgSwAkiQVyAIgSVKBVooOoI6yOrALsAMwARgDrBmaCJYCc4GngMeAu4DfAD2RoSSp21kABPAO4Dhgf2DV4CwD8STwA+BcYHZwFknqSp4CKNvGwNXA/cAhdMebP8AmwCnAn4CvACMjw0hSN7IAlGsn4AHSp/5utTrwL8AUYP3gLJLUVSwAZfo8cAewbnSQmrwHmAq8JTqIJHULC0B5PgWcT/uu/9gMuBPYIjiHJHUFC0BZ3gt8JzpERusANxC/ckGSOp4FoBzrAtcAK0cHyezNwAXRISSp07Xta2At3+m055x/fz4GXAz8ImDukcDuwL6k0xFjAjJIgzEHeByYDNwELI6No6ZYAMqwBfCJ6BANO5XmC8BOwHeBbRqeV6pqN+Bw4A/AkaSVNWo5TwGU4SjKK3s7Au9scL4PAbfjm7+629bArcBB0UGUnwWg/YaTvhIvUVPPe2vgx8CohuaTchpJutPm+OggyssC0H5vBcZFhwiyR0PznA6MbmguqQmjga9Hh1BeFoD22y46QKBtgDUyz7E+8IHMc0gR9gfGRodQPhaA9ts6OkCgYcBWmefYBRiReQ4pwghg5+gQyscC0H6lL0PL/fw3yzy+FGnT6ADKp7Qrw0u0SsXHn0xaHxzlbNIdDIdqtbqCLIc7EarN2n7jsKJZANSf6aRdA6PMqfj4YbWkWL7nMo8vRZoZHUD5eApAqmZadAApo6nRAZSPBUCq5rfAY9EhpAweAX4XHUL5WACkanqBU6JDSBmcGh1AeVkApOquAi6KDiHV6AfA1dEhlJcFQKrHEcBZQE90EKmCXuAc4LDoIMrPAiDVowf4ErA9cAnwUmwcaVBeAq4g/f5+EVgaG0dNcBmgVK/7gE/2/fdYYEP8O1Pnmg+8AMzGN/3i+MIk5fNC3yFJHcdTAJIkFcgCIElSgSwAkiQVyAIgSVKBLACSJBXIAiBJUoEsAJIkFcgCIElSgSwAkiQVyAIgSVKBLACSJBXIAiBJUoEsAJIkFcgCIElSgdwOWKrXGsC+wJ7Am/r+v9TJ5gCPA5OBm4DFsXHUFAuAVJ9PA2cA60YHkQZpN+Bw4PfAkcCdoWnUCE8BSPX4OnAxvvmru40HbgUOiA6i/CwAUnUfAk6KDiHVZBTwQ2Dr4BzKzAIgVTMc+FZ0CKlmqwOnRodQXhYAqZqJwBbRIaQMDgTWiQ6hfCwAUjU7RQeQMhkB7BwdQvlYAKRqNooOIGW0aXQA5eMywPZbUvHxZxJ7LnBcxcfnXtNsiVabrRwdQPlYANpvbsXHr9d3dKs5mcd/JvP4UqSZ0QGUj59e2u/J6ADBpmce/1eZx5ciTY0OoHwsAO33cHSAQC8Az2aeYwowI/McUoSHSXcGVEtZANrvXmBhdIggdzQwx0LgtAbmkZrmfQBazgLQfvOAm6NDBLmqoXnOAyY1NJfUhIuBa6JDKC8LQBm+Fx0gwEzgxobm6iXdNOUnDc0n5dILnEPaGEgtZwEow63A/dEhGvYtYEGD8y0EDgV2B64D5jc4t1TVS8AVwPbAF4GlsXHUBJcBlqEXOBa4mzJK3++Ac4Pmvr3vGMHrSyj9O1Onmk+6WHY2vukXxxemctwLfAM4OTpIZvOAQ4BFwTmWklYHuEJAUkcq4dOgXvc10td8bdULfBZ4MDqIJHU6C0BZlr1BTokOkkEPcDxweXQQSeoGFoDyvAbsQbrSty1eJV2Ff2Z0EEnqFhaAMi0hXel7GPBycJaq7gd2AK6NDiJJ3cQCULaLgAmkT86vBmcZrD8AnyYtW3o0OIskdR0LgGYBXwY2AD4B/BT4E+l6gU6ykHRx31nAzqTi8kNcuiRJQ+IyQC3zKvDjvgNgVWAsMDIs0eteA54nXegnSaqBBUDLMx94OjqEJCkPTwFIklQgC4AkSQWyAEiSVCALgCRJBbIASJJUIAuAJEkFsgBIklQgC4AkSQWyAEiSVCALgCRJBbIASJJUIAuAJEkFsgBIklQgC4AkSQWyAEiSoGE0kgAAAlNJREFUVCALgCRJBbIASJJUIAuAJEkFsgBIklQgC4AkSQWyAEiSVCALgCRJBbIASJJUIAuAJEkFsgBIklQgC4AkSQWyAEiSVCALgCRJBbIASJJUIAuAJEkFsgBIklQgC4AkSQWyAEiSVCALgCRJBbIASJJUIAuAJEkFsgBIklQgC4AkSQWyAEiSVCALgCRJBbIASJJUIAuAJEkFsgBIklQgC4AkSQWyAEiSVCALgCRJBVopOkAXWFLx8acBX6kjiCQVZouKj19cS4qWsgD075WKj9+8lhSSpMGaEx2gk3kKoH9PRgeQJA3Jn6IDdDILQP8eiQ4gSRq02cCz0SE6mQWgf/dQ/ToASVKzpgC90SE6mQWgf3OB26JDSJIG5eroAJ3OAjAwF0YHkCQN2Ezg+ugQnc4CMDA3AI9Gh5AkDcgpwPzoEJ1uWHSALrIzcCf+zCSpk/0O+Bu8dqtfI6IDdJEngTWAHaODSJL+qgXAB4Gno4N0AwvA4NwO/C0wPjqIJOkvHAFMig7RLbwGYHB6gEOBqdFBJEn/rRf4J+Di6CDdxG8ABm8hcCmwEbBtcBZJKt0C4DPAedFBuo0FYGiWkpaYzAZ2AlaOjSNJRfo18CG8V8uQWACq+TVwCTCKdNXpyNg4klSEPwJHAccBM4KzdC2XtNVnLeBAYC9gB2DD2DiS1BqLgd+Tbu97HWlJdk9koDawAOQzGlgfWBO/aZGkoZhPuh37TFzXL0mSJEmSJEmSJEmSJEmSJEmSJEmSJEmSJEmSJEmSJEmSJEmSJEmSJEmSwv1/QZQ4gytVyRwAAAAASUVORK5CYII=;" vertex="1" parent="1">
          <mxGeometry x="270" y="210" width="54" height="54" as="geometry" />
        </mxCell>
      </root>
    </mxGraphModel>
  </diagram>
</mxfile>
